<!-- Generated by IcoMoon.io -->
<svg version="1.1" xmlns="http://www.w3.org/2000/svg" width="32" height="32" viewBox="0 0 32 32">
<title>icons_duplicate</title>
<path fill="#231f20" d="M23.239 1.422h-13.639v25.6h20.622v-18.439zM28.089 25.6h-17.067v-22.044h10.667v5.689h6.4z"></path>
<path fill="#fff" d="M20.907 30.471h-18.816v-23.801h13.312l5.504 5.568v18.233z"></path>
<path fill="#7a1c17" d="M14.876 4.978h-13.81v26.311h20.622v-18.489zM19.556 29.867h-17.067v-22.756h11.378v6.4h5.689z"></path>
<path fill="#7a1c17" d="M6.044 14.933h9.956v1.422h-9.956v-1.422z"></path>
<path fill="#7a1c17" d="M6.044 17.778h9.956v1.422h-9.956v-1.422z"></path>
<path fill="#7a1c17" d="M6.044 23.41h9.956v1.479h-9.956v-1.479z"></path>
<path fill="#7a1c17" d="M6.044 26.311h9.956v1.422h-9.956v-1.422z"></path>
<path fill="#7a1c17" d="M6.044 20.622h9.956v1.422h-9.956v-1.422z"></path>
</svg>
