<!-- Generated by IcoMoon.io -->
<svg version="1.1" xmlns="http://www.w3.org/2000/svg" width="32" height="32" viewBox="0 0 32 32">
<title>icons_lock</title>
<path d="M25.358 14.834h-0.576v-4.708c-0.028-5.767-3.968-8.91-8.782-8.91s-9.045 3.292-8.896 8.91v4.7h-0.292c-0.384 0-2.901 0.441-2.901 2.688v10.78c0 2.396 2.844 2.994 2.901 2.994h18.432c0.064 0 2.752-0.299 2.752-2.994v-10.624c0-0 0-0 0-0 0-1.498-1.159-2.726-2.629-2.836l-0.009-0.001zM18.091 27.143h-4.267l0.868-4.388c-0.643-0.438-1.060-1.167-1.060-1.993 0-0.004 0-0.009 0-0.013v0.001c0-1.276 1.035-2.311 2.311-2.311s2.311 1.035 2.311 2.311v0c0 0.004 0 0.008 0 0.013 0 0.826-0.417 1.555-1.051 1.987l-0.008 0.005zM11.15 14.834v-4.644c0-2.994 1.828-5.383 4.786-5.383s4.786 2.091 4.786 5.383v4.644z"></path>
</svg>
