<!-- Generated by IcoMoon.io -->
<svg version="1.1" xmlns="http://www.w3.org/2000/svg" width="32" height="32" viewBox="0 0 32 32">
<title>icons_batch</title>
<path d="M1.55 12.8l13.86 4.16c0.118 0.028 0.252 0.044 0.391 0.044s0.274-0.016 0.403-0.046l-0.012 0.002 13.867-4.16c0.513-0.167 0.877-0.641 0.877-1.199 0-0.026-0.001-0.052-0.002-0.077l0 0.004c-0.010-0.58-0.383-1.071-0.901-1.256l-0.009-0.003-13.831-4.16c-0.106-0.038-0.228-0.061-0.356-0.061s-0.25 0.022-0.363 0.063l0.008-0.002-13.888 4.16c-0.53 0.156-0.911 0.638-0.911 1.21 0 0.017 0 0.034 0.001 0.051l-0-0.002c-0.004 0.037-0.006 0.079-0.006 0.122 0 0.546 0.366 1.006 0.865 1.149l0.008 0.002zM15.772 8.768l9.316 2.773-9.316 2.844-9.316-2.773z"></path>
<path d="M29.276 15.9l-13.476 4.011-13.468-4.011c-0.118-0.041-0.255-0.065-0.397-0.065-0.578 0-1.064 0.391-1.208 0.923l-0.002 0.009c-0.040 0.117-0.062 0.251-0.062 0.39 0 0.577 0.39 1.063 0.921 1.207l0.009 0.002 13.732 4.117c0.139 0.043 0.302 0.073 0.469 0.085l0.007 0c0.172-0.004 0.335-0.035 0.487-0.089l-0.011 0.003 13.774-4.075c0.545-0.152 0.937-0.644 0.937-1.228 0-0.133-0.020-0.261-0.058-0.381l0.002 0.009c-0.154-0.563-0.662-0.971-1.264-0.971-0.14 0-0.275 0.022-0.402 0.063l0.009-0.003z"></path>
<path d="M29.276 21.447l-13.476 4.025-13.468-4.025c-0.119-0.041-0.256-0.065-0.399-0.065-0.575 0-1.060 0.388-1.206 0.917l-0.002 0.009c-0.040 0.117-0.062 0.251-0.062 0.39 0 0.577 0.39 1.063 0.921 1.207l0.009 0.002 13.86 4.16c0.118 0.028 0.252 0.044 0.391 0.044s0.274-0.016 0.403-0.046l-0.012 0.002 13.86-4.16c0.525-0.165 0.898-0.647 0.898-1.216 0-0.137-0.022-0.269-0.062-0.392l0.003 0.009c-0.193-0.535-0.696-0.911-1.288-0.911-0.131 0-0.259 0.019-0.379 0.053l0.010-0.002z"></path>
</svg>
