<!-- Generated by IcoMoon.io -->
<svg version="1.1" xmlns="http://www.w3.org/2000/svg" width="32" height="32" viewBox="0 0 32 32">
<title>icons_coding_sheet</title>
<path d="M13.6 14.4h10.4v1.6h-10.4v-1.6z"></path>
<path d="M7.2 14.4h3.2v1.6h-3.2v-1.6z"></path>
<path d="M13.6 17.6h10.4v1.6h-10.4v-1.6z"></path>
<path d="M7.2 17.6h3.2v1.6h-3.2v-1.6z"></path>
<path d="M13.6 20.8h10.4v1.6h-10.4v-1.6z"></path>
<path d="M7.2 20.8h3.2v1.6h-3.2v-1.6z"></path>
<path d="M13.6 24h10.4v1.6h-10.4v-1.6z"></path>
<path d="M7.2 24h3.2v1.6h-3.2v-1.6z"></path>
<path d="M19.76 2.4h-15.76v28.8h24v-21.36l-8.24-7.44zM26.4 29.6h-20.8v-25.6h13.6v6.4h7.2v19.2z"></path>
</svg>
