<!-- Generated by IcoMoon.io -->
<svg version="1.1" xmlns="http://www.w3.org/2000/svg" width="32" height="32" viewBox="0 0 32 32">
<title>icons_project</title>
<path stroke="#010101" stroke-linejoin="miter" stroke-linecap="butt" stroke-miterlimit="10" stroke-width="0.8" fill="#000" d="M26.88 2h-21.6c-0.48 0-0.88 0.080-0.88 0.48v27.6c0 0.4 0.4 0.72 0.88 0.72h21.6c0.48 0 0.72-0.32 0.72-0.72v-27.6c0-0.4-0.32-0.48-0.72-0.48zM26.8 29.2h-21.6v-12.8h21.6v12.8zM26.8 17.2h-21.6v-13.6h21.6v13.6z"></path>
<path d="M22.32 13.6h-12.8v-6.32h1.68v4.72h9.28v-4.72h1.84z"></path>
<path d="M22.32 26.4h-12.8v-6.32h1.68v4.72h9.28v-4.72h1.84z"></path>
</svg>
