<!-- Generated by IcoMoon.io -->
<svg version="1.1" xmlns="http://www.w3.org/2000/svg" width="32" height="32" viewBox="0 0 32 32">
<title>icons_icon-sensory_data</title>
<path d="M8.753 10.447l5.647 2.635c0.753 0.376 1.976 0.376 2.729 0l4.706-2.165 7.812-3.671c-0.188-0.094-0.376-0.188-0.471-0.282l-11.482-5.365c-1.129-0.471-2.918-0.471-4.047 0l-11.294 5.176c-0.188 0.094-0.376 0.282-0.565 0.376l6.965 3.294z"></path>
<path d="M15.153 16.753c0-0.847-0.565-1.788-1.318-2.071l-8.565-3.953c0 0 0 0 0 0l-3.953-1.788v13.365c0 1.224 0.941 2.635 1.976 3.2l11.388 5.271c0.094 0 0.188 0.094 0.282 0.094l0.094-6.965v-7.153h0.094z"></path>
<path d="M26.824 10.635c0 0.094-0.094 0.094 0 0l-8.659 3.953c-0.753 0.376-1.318 1.318-1.318 2.071v14.118c0.188-0.094 0.282-0.094 0.471-0.188l11.294-5.176c1.129-0.471 1.976-1.976 1.976-3.106v-13.365l-3.765 1.694z"></path>
</svg>
