<!-- Generated by IcoMoon.io -->
<svg version="1.1" xmlns="http://www.w3.org/2000/svg" width="32" height="32" viewBox="0 0 32 32">
<title>icons_icon-project</title>
<path stroke="#010101" stroke-linejoin="miter" stroke-linecap="butt" stroke-miterlimit="10" stroke-width="0.9412" fill="#000" d="M26.598 1.751h-21.647c-0.012-0.001-0.026-0.001-0.040-0.001-0.386 0-0.702 0.298-0.732 0.676l-0 0.003v27.078c0.029 0.376 0.342 0.67 0.723 0.67 0.017 0 0.034-0.001 0.051-0.002l-0.002 0h21.647c0.015 0.001 0.032 0.002 0.049 0.002 0.381 0 0.693-0.294 0.722-0.667l0-0.003v-27.078c-0.030-0.381-0.346-0.679-0.732-0.679-0.014 0-0.028 0-0.042 0.001l0.002-0zM25.412 28.866h-19.209v-12.235h19.209zM25.412 15.313h-19.209v-12.235h19.209z"></path>
<path d="M21.224 19.181h-1.515v3.407c-0.005 0.266-0.222 0.48-0.489 0.48-0 0-0 0-0 0h-6.814c-0.003 0-0.006 0-0.009 0-0.265 0-0.48-0.215-0.48-0.48 0-0 0-0 0-0v0-3.407h-1.412c-0 0-0 0-0 0-0.267 0-0.484 0.214-0.489 0.48v4.866c0 0 0 0 0 0 0 0.265 0.215 0.48 0.48 0.48 0.003 0 0.007-0 0.010-0h10.72c0.003 0 0.006 0 0.009 0 0.265 0 0.48-0.215 0.48-0.48 0-0 0-0 0-0v0-4.866c-0.005-0.266-0.222-0.48-0.489-0.48-0 0-0 0-0 0v0z"></path>
<path d="M21.224 5.788h-1.515v3.398c-0.005 0.266-0.222 0.48-0.489 0.48-0 0-0 0-0 0h-6.814c-0.003 0-0.006 0-0.009 0-0.265 0-0.48-0.215-0.48-0.48 0-0 0-0 0-0v0-3.398h-1.412c-0.003-0-0.006-0-0.009-0-0.265 0-0.48 0.215-0.48 0.48 0 0 0 0 0 0v0 4.866c0 0 0 0 0 0 0 0.265 0.215 0.48 0.48 0.48 0.003 0 0.007-0 0.010-0h10.72c0.003 0 0.006 0 0.009 0 0.265 0 0.48-0.215 0.48-0.48 0-0 0-0 0-0v0-4.866c0-0 0-0 0-0 0-0.265-0.215-0.48-0.48-0.48-0.003 0-0.007 0-0.010 0h0z"></path>
</svg>
