<!-- Generated by IcoMoon.io -->
<svg version="1.1" xmlns="http://www.w3.org/2000/svg" width="32" height="32" viewBox="0 0 32 32">
<title>icons_compare</title>
<path d="M10.069 26.654c-3.271-0.284-6.044-1.92-7.822-4.622-1.138-1.707-1.636-3.484-1.636-5.547s0.569-3.84 1.636-5.547c1.28-1.991 3.129-3.413 5.404-4.124 0.996-0.356 1.92-0.498 3.129-0.498 1.707 0 3.129 0.356 4.693 1.138l0.427 0.213 0.427-0.213c1.067-0.569 2.062-0.853 3.342-1.067 0.64-0.071 1.991-0.071 2.631 0 2.347 0.356 4.338 1.351 5.902 2.987 1.564 1.564 2.489 3.484 2.844 5.76 0.071 0.64 0.071 1.991 0 2.631-0.427 2.987-2.062 5.547-4.551 7.182-1.707 1.138-3.484 1.636-5.547 1.636-1.707 0-3.129-0.356-4.693-1.138l-0.427-0.213-0.427 0.213c-1.422 0.711-2.844 1.067-4.409 1.138-0.427 0.071-0.853 0.071-0.924 0.071v0zM16.256 24.165c1.849-1.28 3.129-3.2 3.698-5.333 0.213-0.853 0.284-1.351 0.284-2.347s-0.071-1.493-0.284-2.347c-0.569-2.204-1.92-4.196-3.84-5.476l-0.284-0.213-0.284 0.213c-1.849 1.28-3.271 3.271-3.84 5.476-0.213 0.853-0.284 1.351-0.284 2.347s0.071 1.493 0.284 2.347c0.498 1.849 1.493 3.556 2.916 4.764 0.569 0.498 1.138 0.853 1.209 0.853 0.142 0 0.284-0.142 0.427-0.284z"></path>
</svg>
