<!-- Generated by IcoMoon.io -->
<svg version="1.1" xmlns="http://www.w3.org/2000/svg" width="32" height="32" viewBox="0 0 32 32">
<title>icons_batch</title>
<path d="M1.564 12.8l13.867 4.124c0.142 0.071 0.284 0.071 0.356 0.071s0.284 0 0.356-0.071l13.938-4.124c0.569-0.142 0.924-0.64 0.924-1.28 0-0.569-0.356-1.067-0.924-1.28l-13.867-4.124c-0.284-0.071-0.498-0.071-0.711 0l-13.938 4.124c-0.569 0.142-0.924 0.64-0.924 1.28s0.427 1.138 0.924 1.28zM15.787 8.747l9.316 2.773-9.316 2.844-9.316-2.773 9.316-2.844z"></path>
<path d="M29.298 15.929l-13.511 3.982-13.44-3.982c-0.711-0.213-1.422 0.142-1.636 0.853s0.142 1.422 0.853 1.636l13.724 4.124c0.142 0.071 0.356 0.071 0.498 0.071s0.356-0.071 0.498-0.071l13.796-4.053c0.711-0.213 1.067-0.924 0.853-1.636-0.213-0.782-0.996-1.138-1.636-0.924z"></path>
<path d="M29.298 21.476l-13.44 4.053-13.511-4.053c-0.711-0.213-1.422 0.142-1.636 0.853s0.142 1.422 0.853 1.636l13.867 4.124c0.142 0.071 0.284 0.071 0.356 0.071 0.142 0 0.284 0 0.356-0.071l13.867-4.124c0.711-0.213 1.067-0.924 0.853-1.636s-0.924-1.067-1.564-0.853z"></path>
</svg>
