<!-- Generated by IcoMoon.io -->
<svg version="1.1" xmlns="http://www.w3.org/2000/svg" width="32" height="32" viewBox="0 0 32 32">
<title>icons_gears</title>
<path d="M24.036 16c0.924 0.427 2.062 0 2.418-0.924 0.427-0.924 0-2.062-0.924-2.418-0.924-0.427-2.062 0-2.418 0.924-0.427 0.853 0 1.991 0.924 2.418zM23.538 13.724c0.284-0.64 1.138-0.996 1.778-0.64 0.64 0.284 0.996 1.138 0.64 1.778-0.284 0.64-1.138 0.996-1.778 0.64-0.64-0.284-0.924-1.067-0.64-1.778z"></path>
<path d="M20.764 15.076l0.498 1.209c0.071 0.142 0.213 0.213 0.356 0.213l0.498-0.213c0.142 0.213 0.284 0.356 0.427 0.498l-0.213 0.498c-0.071 0.142 0 0.284 0.213 0.356l1.209 0.569c0.142 0.071 0.284 0 0.356-0.142l0.213-0.498c0.213 0 0.427 0.071 0.711 0l0.213 0.498c0.071 0.142 0.213 0.284 0.427 0.213l1.209-0.498c0.142-0.071 0.213-0.213 0.142-0.427l-0.213-0.498c0.213-0.142 0.356-0.284 0.498-0.498l0.498 0.213c0.142 0.071 0.284 0 0.356-0.142l0.569-1.209c0.071-0.142 0-0.356-0.142-0.427l-0.427-0.213c0-0.213 0-0.427 0-0.711l0.498-0.142c0.142-0.071 0.213-0.213 0.213-0.427l-0.498-1.209c-0.071-0.142-0.213-0.213-0.427-0.142l-0.498 0.213c-0.142-0.213-0.284-0.356-0.498-0.498l0.213-0.498c0.071-0.142 0-0.356-0.142-0.427l-1.209-0.569c-0.142-0.071-0.356 0-0.427 0.142l-0.142 0.64c-0.213 0-0.427 0-0.64 0l-0.213-0.498c-0.071-0.142-0.213-0.213-0.356-0.142l-1.28 0.356c-0.142 0.071-0.213 0.213-0.142 0.356l0.213 0.498c-0.142 0.142-0.356 0.284-0.498 0.427l-0.498-0.213c-0.142-0.071-0.356 0-0.427 0.142l-0.569 1.209c-0.071 0.142 0 0.356 0.142 0.427l0.498 0.213c0 0.213-0.071 0.427 0 0.64l-0.498 0.213c-0.213 0.142-0.284 0.356-0.213 0.498zM22.613 13.298c0.569-1.209 1.991-1.778 3.2-1.209s1.778 1.991 1.209 3.2c-0.569 1.209-1.991 1.778-3.2 1.209-1.28-0.569-1.778-1.991-1.209-3.2z"></path>
<path d="M26.524 23.68c-1.209-0.569-2.702 0-3.271 1.209s0 2.702 1.209 3.271c1.209 0.569 2.702 0 3.271-1.209 0.64-1.28 0.071-2.702-1.209-3.271zM27.164 26.667c-0.427 0.924-1.493 1.28-2.347 0.853-0.924-0.427-1.28-1.493-0.853-2.347 0.427-0.924 1.493-1.28 2.347-0.853s1.28 1.422 0.853 2.347z"></path>
<path d="M30.649 26.738l-0.64-0.284c0-0.284 0.071-0.64 0-0.924l0.64-0.213c0.213-0.071 0.356-0.284 0.213-0.498l-0.64-1.636c-0.071-0.213-0.284-0.284-0.569-0.213l-0.64 0.213c-0.213-0.213-0.427-0.498-0.64-0.64l0.284-0.64c0.071-0.213 0-0.427-0.213-0.569l-1.636-0.711c-0.213-0.071-0.498 0-0.569 0.213l-0.284 0.64c-0.284 0-0.569-0.071-0.853 0l-0.284-0.711c-0.071-0.213-0.284-0.284-0.498-0.213l-1.636 0.64c-0.213 0.071-0.284 0.284-0.213 0.498l0.284 0.711c-0.213 0.213-0.427 0.356-0.64 0.569l-0.711-0.284c-0.213-0.071-0.427 0-0.569 0.213l-0.711 1.636c-0.071 0.213 0 0.427 0.213 0.498l0.711 0.284c0 0.284-0.071 0.569 0 0.853l-0.711 0.284c-0.213 0.071-0.284 0.284-0.213 0.498l0.64 1.636c0.071 0.213 0.284 0.284 0.498 0.213l0.711-0.284c0.213 0.213 0.356 0.427 0.569 0.64l-0.284 0.64c-0.071 0.213 0 0.427 0.213 0.498l1.636 0.711c0.213 0.071 0.427 0.071 0.498-0.142l0.284-0.64c0.284 0 0.64 0.071 0.924 0.071l0.213 0.64c0.071 0.213 0.284 0.356 0.498 0.284l1.636-0.64c0.213-0.071 0.284-0.284 0.213-0.569l-0.213-0.64c0.213-0.213 0.498-0.427 0.711-0.64l0.64 0.284c0.213 0.071 0.427 0 0.498-0.213l0.711-1.636c0.142-0.071 0.142-0.284-0.071-0.427zM28.516 27.236c-0.711 1.636-2.631 2.347-4.267 1.636s-2.347-2.631-1.636-4.267c0.711-1.636 2.631-2.347 4.267-1.636s2.347 2.631 1.636 4.267z"></path>
<path d="M11.591 15.147c-2.631 0-4.693 2.133-4.693 4.693 0 2.631 2.133 4.693 4.693 4.693 2.631 0 4.693-2.133 4.693-4.693s-2.062-4.693-4.693-4.693zM11.591 23.324c-1.92 0-3.413-1.564-3.413-3.413s1.564-3.413 3.413-3.413c1.92 0 3.413 1.564 3.413 3.413s-1.493 3.413-3.413 3.413z"></path>
<path d="M20.124 24.889l-0.924-0.853c0.284-0.498 0.498-1.209 0.711-1.564h1.28c0.427 0 0.996-0.498 0.996-0.924v-3.413c0-0.427-0.498-0.853-0.996-0.853h-1.28c-0.142-0.711-0.427-1.067-0.711-1.636l0.924-0.924c0.284-0.284 0.356-0.782 0-1.138l-2.418-2.418c-0.284-0.284-0.782-0.284-1.138 0l-0.853 0.924c-0.498-0.284-1.209-0.498-1.493-0.64v-1.351c0-0.427-0.569-0.853-0.996-0.853h-3.413c-0.427 0-0.782 0.356-0.782 0.853v1.351c-0.356 0.142-1.067 0.427-1.564 0.64l-0.996-0.996c-0.284-0.284-0.782-0.284-1.067 0l-2.418 2.418c-0.284 0.284-0.356 0.782 0 1.067l0.996 0.996c-0.284 0.498-0.498 1.209-0.64 1.564h-1.422c-0.427 0-0.711 0.356-0.711 0.853v3.413c0 0.427 0.284 0.924 0.711 0.924h1.422c0.142 0.356 0.356 0.996 0.64 1.493l-0.996 0.996c-0.284 0.284-0.284 0.782 0 1.067l2.418 2.347c0.284 0.284 0.782 0.284 1.067 0l0.996-0.996c0.498 0.284 1.209 0.498 1.564 0.64v1.422c0 0.427 0.356 0.853 0.782 0.853h3.413c0.427 0 0.996-0.427 0.996-0.853v-1.351c0.356-0.142 0.996-0.356 1.493-0.64l0.853 0.924c0.284 0.284 0.782 0.356 1.067 0l2.347-2.418c0.427-0.142 0.427-0.64 0.142-0.924zM11.662 26.027c-3.413 0-6.258-2.773-6.258-6.258s2.773-6.258 6.258-6.258c3.413 0 6.258 2.773 6.258 6.258-0.071 3.484-2.844 6.258-6.258 6.258z"></path>
</svg>
