<!-- Generated by IcoMoon.io -->
<svg version="1.1" xmlns="http://www.w3.org/2000/svg" width="32" height="32" viewBox="0 0 32 32">
<title>icons_magnify2</title>
<path d="M16.904 4.224c-1.624-1.628-3.869-2.635-6.349-2.635-4.953 0-8.968 4.015-8.968 8.968s4.015 8.968 8.968 8.968c2.082 0 3.999-0.71 5.521-1.9l-0.020 0.015 2.4 2.4v1.6l7.944 7.96 3.2-3.2-7.928-7.928h-1.6l-2.4-2.4c1.172-1.5 1.879-3.412 1.879-5.49 0-2.485-1.012-4.734-2.646-6.358l-0-0zM5.808 15.32c-1.218-1.218-1.972-2.9-1.972-4.759 0-3.716 3.012-6.728 6.728-6.728s6.728 3.012 6.728 6.728c0 1.859-0.754 3.541-1.972 4.759l-0 0c-1.217 1.217-2.899 1.969-4.756 1.969s-3.539-0.753-4.756-1.969l0 0z"></path>
</svg>
