<!-- Generated by IcoMoon.io -->
<svg version="1.1" xmlns="http://www.w3.org/2000/svg" width="32" height="32" viewBox="0 0 32 32">
<title>icons_add_space</title>
<path fill="#231f20" d="M18.968 1.6h-15.768v29.6h24v-21.92zM25.6 29.6h-1.168l-1.744 1.6h-4.92l-1.704-1.6h-11.264v-25.6h13.6v6.4h7.2v10.352l1.6 1.152v4.88l-1.6 1.016z"></path>
<path fill="#231f20" d="M8.8 12.8h12v1.6h-12v-1.6z"></path>
<path fill="#231f20" d="M8.8 18.4h8l0.8-1.6h-8.8v1.6z"></path>
<path fill="#231f20" d="M8.8 20.8h4.8v1.6h-4.8v-1.6z"></path>
<path fill="#231f20" d="M8.8 24.8h4v1.6h-4v-1.6z"></path>
<path fill="#781a15" d="M27.776 24c0 4.295-3.481 7.776-7.776 7.776s-7.776-3.481-7.776-7.776c0-4.295 3.481-7.776 7.776-7.776v0c4.295 0 7.776 3.481 7.776 7.776v0zM20 17.6c-3.535 0-6.4 2.865-6.4 6.4s2.865 6.4 6.4 6.4c3.535 0 6.4-2.865 6.4-6.4v0c0-3.535-2.865-6.4-6.4-6.4v0z"></path>
<path fill="#781a15" d="M15.2 23.2h9.6v1.6h-9.6v-1.6z"></path>
<path fill="#781a15" d="M19.2 19.2h1.6v9.6h-1.6v-9.6z"></path>
</svg>
