<!-- Generated by IcoMoon.io -->
<svg version="1.1" xmlns="http://www.w3.org/2000/svg" width="32" height="32" viewBox="0 0 32 32">
<title>icons_heart</title>
<path d="M22.194 5.284c-0.043-0.001-0.094-0.001-0.145-0.001-2.408 0-4.559 1.103-5.974 2.832l-0.011 0.014c-1.426-1.743-3.576-2.846-5.985-2.846-0.053 0-0.107 0.001-0.16 0.002l0.008-0c-5.227 0-8.74 4.843-8.74 9.365 0 6.592 12.679 15.417 14.101 16.398 0.22 0.147 0.491 0.234 0.782 0.234s0.562-0.088 0.787-0.238l-0.005 0.003c1.429-0.981 14.080-9.806 14.080-16.391 0-4.523-3.513-9.372-8.74-9.372z"></path>
</svg>
