<!-- Generated by IcoMoon.io -->
<svg version="1.1" xmlns="http://www.w3.org/2000/svg" width="32" height="32" viewBox="0 0 32 32">
<title>icons_delete</title>
<path d="M30.4 19.294c0.094-0.282 0.094-0.659 0.188-0.941 0-0.094 0-0.188 0-0.282 0-0.282 0.094-0.659 0.094-0.941 0-0.094 0-0.094 0-0.188 0-0.659 0-1.224 0-1.788 0-0.094 0-0.188 0-0.282 0-0.282-0.094-0.471-0.094-0.753 0-0.188-0.094-0.376-0.094-0.565s-0.094-0.471-0.094-0.659c-0.094-0.188-0.094-0.471-0.188-0.659s-0.094-0.376-0.188-0.565c-0.094-0.282-0.188-0.565-0.282-0.847-0.094-0.188-0.094-0.282-0.188-0.471-0.188-0.376-0.282-0.753-0.471-1.035-0.094-0.094-0.188-0.282-0.188-0.376-0.188-0.282-0.282-0.471-0.471-0.753-0.094-0.094-0.188-0.282-0.282-0.376-0.188-0.282-0.376-0.471-0.565-0.753-0.094-0.094-0.188-0.188-0.282-0.376-0.282-0.376-0.565-0.659-0.941-1.035-5.647-5.835-15.059-5.835-20.8-0.094-0.282 0.376-0.659 0.659-0.941 1.035-0.094 0.094-0.188 0.188-0.282 0.376-0.188 0.188-0.376 0.471-0.471 0.753-0.094 0.094-0.188 0.188-0.282 0.376-0.188 0.282-0.376 0.471-0.471 0.753-0.094 0.188-0.188 0.282-0.188 0.376-0.188 0.376-0.376 0.659-0.471 1.035-0.094 0.188-0.094 0.282-0.188 0.471-0.188 0.282-0.282 0.565-0.376 0.847 0 0.188-0.094 0.471-0.094 0.659-0.094 0.188-0.094 0.376-0.188 0.659-0.094 0.188-0.094 0.471-0.094 0.659s-0.094 0.376-0.094 0.565c0 0.282-0.094 0.471-0.094 0.753 0 0.094 0 0.188 0 0.282 0 0.659 0 1.224 0 1.788 0 0.094 0 0.094 0 0.188 0 0.282 0.094 0.659 0.094 0.941 0 0.094 0 0.188 0 0.282 0.094 0.282 0.094 0.659 0.188 0.941 0 0.094 0 0.094 0 0.188 0.565 2.541 1.882 4.988 3.859 6.965 5.741 5.741 15.153 5.741 20.894 0 1.976-1.976 3.294-4.424 3.859-6.965 0.094-0.094 0.188-0.188 0.188-0.188zM15.718 18.824l-4.988 4.988-2.635-2.635 4.988-4.988-4.894-4.894 2.635-2.635 4.988 4.988 4.894-4.988 2.635 2.635-4.988 4.988 4.988 4.988-2.635 2.541-4.988-4.988z"></path>
</svg>
