<!-- Generated by IcoMoon.io -->
<svg version="1.1" xmlns="http://www.w3.org/2000/svg" width="32" height="32" viewBox="0 0 32 32">
<title>icons_cloud_upload</title>
<path d="M24.199 15.317c-1.164 0.006-2.244 0.361-3.142 0.966l0.020-0.013c-1.152-2.944-3.655-4.892-6.443-4.892-3.804 0-6.955 3.627-7.111 8.142-1.889 0.363-3.38 1.753-3.881 3.556l-0.008 0.035c-1.515 0.577-2.572 2.017-2.572 3.705 0 0.073 0.002 0.145 0.006 0.216l-0-0.010c0 2.226 1.515 4.011 3.356 4.011h9.828v-6.357h-1.636c-0.327 0-0.412-0.412-0.235-0.711 0.981-1.422 2.347-2.844 3.328-4.267 0.049-0.083 0.134-0.14 0.233-0.149l0.001-0c0.003-0 0.007-0 0.011-0 0.1 0 0.186 0.061 0.223 0.148l0.001 0.002c0.981 1.422 2.347 2.844 3.328 4.267 0.178 0.27 0.092 0.711-0.235 0.711h-1.636v6.329h6.592c3.627 0 6.535-3.556 6.535-7.822s-2.965-7.865-6.564-7.865z"></path>
</svg>
