<!-- Generated by IcoMoon.io -->
<svg version="1.1" xmlns="http://www.w3.org/2000/svg" width="32" height="32" viewBox="0 0 32 32">
<title>icons_edit-doc</title>
<path opacity="0.41999998688697815" fill="#000" d="M30.578 6.357c0-0.013 0.001-0.027 0.001-0.042 0-0.394-0.17-0.749-0.44-0.995l-0.001-0.001-1.038-1.052c-0.26-0.256-0.616-0.416-1.009-0.42h-0.001c-0.015-0.001-0.032-0.001-0.050-0.001-0.395 0-0.752 0.161-1.009 0.42l-0 0-4.914 4.864v-4.622c0-0.817-0.662-1.479-1.479-1.479v0h-14.777c-0.817 0-1.479 0.662-1.479 1.479v0 1.479h-1.479c-0.817 0-1.479 0.662-1.479 1.479v0 22.172c0 0.817 0.662 1.479 1.479 1.479v0h14.777c0.817 0 1.479-0.662 1.479-1.479v0-1.479h1.479c0.817 0 1.479-0.662 1.479-1.479v0-11.271l8.021-8.021c0.255-0.271 0.419-0.63 0.441-1.027l0-0.004zM17.678 29.639h-14.777v-22.172h1.479v19.2c-0 0.004-0 0.009-0 0.014 0 0.817 0.662 1.479 1.479 1.479 0 0 0 0 0 0h11.819zM20.636 26.681h-14.777v-22.172h14.777v6.094l-2.404 2.404h-6.464v0.711h5.724l-1.493 1.508h-4.267v0.711h3.556l-1.479 1.479h-2.041v0.711h1.294l-0.96 0.96c-0.079 0.088-0.152 0.186-0.215 0.29l-0.005 0.009-0.036-0.036-1.18 2.958v-0.484h-2.965v0.711h2.844l-0.59 1.479h-2.254v0.711h2.958v-0.555l4.139-1.664h3.989v-0.711h-3.136l1.479-1.479h1.664v-0.711h-0.924l2.773-2.773v9.849zM14.236 21.248l-0.519-0.519-0.562-0.512 13.099-13.106 1.038 1.038zM27.769 7.652l-1.031-1.038 1.294-1.294 1.038 1.038zM18.788 9.316h-7.019v-0.711h7.019zM10.66 13.746h-2.958v-0.711h2.958zM10.66 9.308h-2.958v-0.711h2.958zM10.66 7.090h-2.958v-0.711h2.958zM10.66 15.957h-2.958v-0.711h2.958zM10.66 18.176h-2.958v-0.711h2.958zM18.788 11.527h-7.019v-0.711h7.019zM18.788 7.090h-7.019v-0.711h7.019z"></path>
</svg>
