<!-- Generated by IcoMoon.io -->
<svg version="1.1" xmlns="http://www.w3.org/2000/svg" width="32" height="32" viewBox="0 0 32 32">
<title>icons_transfer</title>
<path d="M18.089 30.024c-0.498-0.498-1.067-1.138-1.351-1.422l-0.498-0.498 1.351-1.351c0.782-0.782 1.351-1.351 1.351-1.422 0 0-3.058 0-6.827 0h-6.756v-3.84h6.756c3.769 0 6.827 0 6.827 0s-0.569-0.64-1.351-1.422l-1.351-1.351 0.711-0.711c0.356-0.427 0.996-1.067 1.351-1.422l0.64-0.64 3.769 3.769c2.489 2.489 3.769 3.769 3.769 3.84s-1.28 1.351-3.698 3.84c-2.062 2.062-3.769 3.698-3.769 3.698-0.071-0.142-0.427-0.569-0.924-1.067v0zM9.129 12.104c-2.489-2.489-3.698-3.769-3.698-3.84s1.28-1.351 3.769-3.84l3.769-3.769 0.64 0.64c0.356 0.356 0.996 0.996 1.351 1.422l0.711 0.711-1.351 1.351c-0.782 0.782-1.351 1.351-1.351 1.422s3.058 0 6.827 0h6.756v3.84h-6.756c-3.769 0-6.827 0-6.827 0s0.569 0.64 1.351 1.422l1.351 1.351-0.498 0.498c-0.569 0.569-2.204 2.276-2.276 2.276-0.071 0.213-1.707-1.422-3.769-3.484v0z"></path>
</svg>
