<!-- Generated by IcoMoon.io -->
<svg version="1.1" xmlns="http://www.w3.org/2000/svg" width="32" height="32" viewBox="0 0 32 32">
<title>icons_two-docs</title>
<path fill="#231f20" d="M23.602 0.711h-14.002v26.311h21.333v-18.788zM28.8 25.6h-17.778v-22.756h11.378v5.689h6.4z"></path>
<path fill="#000" d="M14.578 10.667h10.667v1.422h-10.667v-1.422z"></path>
<path fill="#000" d="M14.578 14.222h10.667v1.422h-10.667v-1.422z"></path>
<path fill="#000" d="M14.578 17.778h10.667v1.422h-10.667v-1.422z"></path>
<path fill="#000" d="M14.578 21.333h10.667v1.422h-10.667v-1.422z"></path>
<path fill="#fff" d="M21.212 30.578h-19.2v-24.299h13.589l5.611 5.689v18.61z"></path>
<path fill="#7a1c17" d="M15.068 4.978h-14.002v26.311h21.333v-18.788zM20.267 29.867h-17.778v-22.756h11.378v5.689h6.4z"></path>
<path fill="#7a1c17" d="M6.044 14.933h10.667v1.422h-10.667v-1.422z"></path>
<path fill="#7a1c17" d="M6.044 18.489h10.667v1.422h-10.667v-1.422z"></path>
<path fill="#7a1c17" d="M6.044 22.044h10.667v1.422h-10.667v-1.422z"></path>
<path fill="#7a1c17" d="M6.044 25.6h10.667v1.422h-10.667v-1.422z"></path>
</svg>
