<!-- Generated by IcoMoon.io -->
<svg version="1.1" xmlns="http://www.w3.org/2000/svg" width="32" height="32" viewBox="0 0 32 32">
<title>icons_icon-geospatial</title>
<path d="M17.449 2.099c-1.727 0.014-3.359 0.405-4.824 1.093l0.071-0.030h0.179c0.274 0.030 0.591 0.046 0.912 0.046 0.766 0 1.509-0.096 2.218-0.276l-0.062 0.013c0.941-0.405 1.788 0.687 1.393 0.687s-0.885 1.195-0.48 1.195 0.499 0.593 1.082-0.113 0.499-0.395 1.591 0.292-0.687 0.696-0.687 0.696-0.386 0.8-0.885 0.8-1.694 1.318-1.958 2.212-0.386 0.941-0.791 0.207-0.998-0.198-1.675 0.706 1.299 1.779 1.299 1.779l0.998 0.885c0.462-0.118 0.857-0.257 1.235-0.424l-0.050 0.020c0.395-0.207 0.301 0.395 1.694 0.941s0.207 0.696 1.496 1.082c0.73 0.183 1.312 0.692 1.594 1.359l0.006 0.015-0.395 0.791-0.386 1.195c-0.459 0.238-0.79 0.67-0.883 1.185l-0.002 0.010c-0.292 0.988-0.941 1.195-1.478 1.694s0.113 1.581 0.414 2.174-0.593-0.094-0.988-0.188-0.602-1.289-0.809-1.882c-0.023-0.283-0.036-0.613-0.036-0.945 0-0.609 0.044-1.209 0.129-1.795l-0.008 0.067c0-0.687-0.405-0.885-0.941-1.487-0.427-0.479-0.719-1.089-0.808-1.762l-0.002-0.017c-0.301-1.092-0.113-1.384 0.188-1.591s-0.791-0.584-1.299-0.781c-0.642-0.323-1.194-0.68-1.704-1.088l0.019 0.015c-0.696-0.489-0.941-1.28-1.205-1.675-0.264-0.774-0.416-1.666-0.416-2.594 0-0.064 0.001-0.128 0.002-0.192l-0 0.010c0-0.593 0.687-1.289 0.386-1.788-0.132-0.216-0.536-0.254-1.007-0.245-2.837 2.124-4.654 5.478-4.654 9.255 0 2.266 0.654 4.379 1.783 6.162l-0.028-0.047c0.494 0.193 1.072 0.345 1.672 0.428l0.041 0.005c0.508 0 1.882-0.122 2.287 0.894s1.016 1.148 0.122 2.165l-0.292 0.311c1.71 1.052 3.781 1.675 5.998 1.675 6.393 0 11.576-5.183 11.576-11.576s-5.183-11.576-11.576-11.576c-0.024 0-0.048 0-0.072 0l0.004-0z"></path>
<path d="M21.562 28.235c1.647-0.433 3.092-1.078 4.399-1.919l-0.060 0.036-0.753-1.158c-1.974 1.173-4.352 1.867-6.892 1.867-7.542 0-13.656-6.114-13.656-13.656 0-4.579 2.254-8.632 5.713-11.11l0.041-0.028-0.753-1.158c-4.054 2.741-6.685 7.321-6.685 12.516 0 6.77 4.468 12.497 10.616 14.393l0.107 0.028c-2.296 0.48-3.849 1.402-3.849 2.466h14.861c0-0.941-1.214-1.769-3.087-2.278z"></path>
</svg>
