<?xml version="1.0" encoding="utf-8"?>
<!-- Generated by IcoMoon.io -->
<!DOCTYPE svg PUBLIC "-//W3C//DTD SVG 1.1//EN" "http://www.w3.org/Graphics/SVG/1.1/DTD/svg11.dtd">
<svg version="1.1" xmlns="http://www.w3.org/2000/svg" xmlns:xlink="http://www.w3.org/1999/xlink" width="32" height="32" viewBox="0 0 32 32">
<path d="M26.88 2h-21.6c-0.48 0-0.88 0.080-0.88 0.48v27.6c0 0.4 0.4 0.72 0.88 0.72h21.6c0.48 0 0.72-0.32 0.72-0.72v-27.6c0-0.4-0.32-0.48-0.72-0.48zM26.8 30h-21.6v-13.6h21.6v13.6zM26.8 17.2h-21.6v-13.6h21.6v13.6z"></path>
<path d="M22.32 13.6h-12.8v-6.32h1.68v4.72h9.28v-4.72h1.84z"></path>
<path d="M22.32 27.2h-12.8v-6.32h1.68v4.72h9.28v-4.72h1.84z"></path>
</svg>
