<!-- Generated by IcoMoon.io -->
<svg version="1.1" xmlns="http://www.w3.org/2000/svg" width="32" height="32" viewBox="0 0 32 32">
<title>icons_institution</title>
<path fill="#6d6e71" d="M30.080 27.307v0c-0.071-0.427-0.356-0.711-0.711-0.782v-2.631h0.711c0.356 0 0.711-0.213 0.782-0.569s0-0.711-0.356-0.924l-2.987-2.062-2.987-1.991c-0.142-0.071-0.284-0.142-0.427-0.142s-0.356 0.071-0.427 0.142l-5.973 4.124c-0.284 0.213-0.427 0.569-0.356 0.924s0.427 0.569 0.782 0.569h0.711v2.631c-0.356 0.071-0.711 0.356-0.711 0.782h-0.071c-0.427 0-0.853 0.356-0.853 0.853v1.564c0 0.427 0.356 0.853 0.853 0.853h12.018c0.427 0 0.853-0.356 0.853-0.853v-1.564c0-0.498-0.427-0.924-0.853-0.924zM22.187 27.378h-1.351v-4.267h1.351v4.267zM24.747 27.378h-1.351v-4.267h1.28v4.267zM27.307 27.378h-1.351v-4.267h1.351v4.267z"></path>
<path fill="#a7a9ac" d="M16.071 29.724v-1.564c0-0.782 0.498-1.493 1.138-1.778 0.142-0.213 0.284-0.356 0.427-0.498v-0.782c-0.711-0.142-1.28-0.64-1.493-1.351-0.284-0.853 0.071-1.707 0.782-2.204l4.978-3.342v-8.462c0-0.64-0.498-1.138-1.138-1.138h-7.538c-0.64 0-1.138 0.498-1.138 1.138v8.604h-1.707v-3.058c0-0.64-0.498-1.138-1.138-1.138h-6.4c-0.64 0-1.138 0.498-1.138 1.138v14.009c0 0.64 0.498 1.138 1.138 1.138h13.44c-0.142-0.142-0.213-0.427-0.213-0.711z"></path>
</svg>
