<!-- Generated by IcoMoon.io -->
<svg version="1.1" xmlns="http://www.w3.org/2000/svg" width="32" height="32" viewBox="0 0 32 32">
<title>icons_info</title>
<path d="M16.064 30.68c0.040 0 0.088 0.001 0.136 0.001 8.094 0 14.656-6.562 14.656-14.656s-6.562-14.656-14.656-14.656c-8.086 0-14.642 6.548-14.656 14.63v0.001c-0 0.029-0 0.062-0 0.096 0 8.032 6.493 14.548 14.517 14.584h0.003zM16.064 4.752c0.031-0 0.067-0 0.104-0 6.23 0 11.28 5.050 11.28 11.28s-5.050 11.28-11.28 11.28c-6.23 0-11.28-5.050-11.28-11.28 0-0.011 0-0.022 0-0.033v0.002c-0-0.014-0-0.031-0-0.048 0-6.177 5.001-11.186 11.175-11.2h0.001z"></path>
<path d="M18.752 23.2c-0.168 0-0.296-0.192-0.296-0.424v-10.032h-6.24v1.28h1.128c0.163 0 0.296 0.133 0.296 0.296v0 8.544c0 0.163-0.133 0.296-0.296 0.296v0h-1.128v1.328h7.784v-1.288z"></path>
<path d="M18.728 9.2c0 1.48-1.2 2.68-2.68 2.68s-2.68-1.2-2.68-2.68c0-1.48 1.2-2.68 2.68-2.68s2.68 1.2 2.68 2.68z"></path>
</svg>
