<!-- Generated by IcoMoon.io -->
<svg version="1.1" xmlns="http://www.w3.org/2000/svg" width="32" height="32" viewBox="0 0 32 32">
<title>icons_bulk</title>
<path fill="#000" d="M21.84 0.8h-13.040v24.8h20v-18.16l-6.96-6.64zM27.2 24h-16.8v-20.8h11.2v5.6h5.6v15.2z"></path>
<path fill="#000" d="M13.6 10.4h9.6v1.6h-9.6v-1.6z"></path>
<path fill="#000" d="M13.6 13.6h9.6v1.6h-9.6v-1.6z"></path>
<path fill="#000" d="M13.6 16.8h9.6v1.6h-9.6v-1.6z"></path>
<path fill="#000" d="M13.6 20h9.6v1.6h-9.6v-1.6z"></path>
<path fill="#fff" d="M24.56 27.12h-17.6v-21.84h11.6l6 6.24z"></path>
<path fill="#781a15" d="M18.64 3.2h-13.040v24.8h20v-18.16l-6.96-6.64zM24 26.4h-16.8v-20.8h11.2v5.6h5.6v15.2z"></path>
<path fill="#781a15" d="M10.4 12.8h9.6v1.6h-9.6v-1.6z"></path>
<path fill="#781a15" d="M10.4 16h9.6v1.6h-9.6v-1.6z"></path>
<path fill="#781a15" d="M10.4 19.2h9.6v1.6h-9.6v-1.6z"></path>
<path fill="#781a15" d="M10.4 22.4h9.6v1.6h-9.6v-1.6z"></path>
<path fill="#fff" d="M20.56 30.32h-17.6v-21.84h11.6l6 6.24z"></path>
<path fill="#781a15" d="M14.64 6.4h-13.040v24.8h20v-18.16l-6.96-6.64zM20 29.6h-16.8v-20.8h11.2v5.6h5.6v15.2z"></path>
<path fill="#781a15" d="M6.4 16h9.6v1.6h-9.6v-1.6z"></path>
<path fill="#781a15" d="M6.4 19.2h9.6v1.6h-9.6v-1.6z"></path>
<path fill="#781a15" d="M6.4 22.4h9.6v1.6h-9.6v-1.6z"></path>
<path fill="#781a15" d="M6.4 25.6h9.6v1.6h-9.6v-1.6z"></path>
</svg>
