<!-- Generated by IcoMoon.io -->
<svg version="1.1" xmlns="http://www.w3.org/2000/svg" width="32" height="32" viewBox="0 0 32 32">
<title>icons_share</title>
<path d="M4.11 18.091c-0.224 0.165-0.506 0.263-0.811 0.263s-0.586-0.099-0.815-0.266l0.004 0.003c-0.664 0.147-1.155 0.726-1.166 1.421l-0 0.001c0.405 0.66 1.117 1.096 1.932 1.109l0.002 0c0.023 0.001 0.050 0.001 0.077 0.001 0.806 0 1.505-0.458 1.852-1.128l0.005-0.012c-0.012-0.663-0.461-1.219-1.071-1.391l-0.010-0.003z"></path>
<path d="M4.409 16.967c0 0.609-0.493 1.102-1.102 1.102s-1.102-0.493-1.102-1.102c0-0.609 0.493-1.102 1.102-1.102s1.102 0.493 1.102 1.102z"></path>
<path d="M29.39 18.091c-0.224 0.165-0.506 0.263-0.811 0.263s-0.586-0.099-0.815-0.266l0.004 0.003c-0.664 0.147-1.155 0.726-1.166 1.421l-0 0.001c0.405 0.66 1.117 1.096 1.932 1.109l0.002 0c0.023 0.001 0.050 0.001 0.077 0.001 0.806 0 1.505-0.458 1.852-1.128l0.005-0.012c-0.012-0.663-0.461-1.219-1.071-1.391l-0.010-0.003z"></path>
<path d="M29.689 16.967c0 0.609-0.493 1.102-1.102 1.102s-1.102-0.493-1.102-1.102c0-0.609 0.493-1.102 1.102-1.102s1.102 0.493 1.102 1.102z"></path>
<path d="M7.296 7.893c-0.224 0.165-0.506 0.263-0.811 0.263s-0.586-0.099-0.815-0.266l0.004 0.003c-0.664 0.147-1.155 0.726-1.166 1.421l-0 0.001c0.399 0.671 1.112 1.118 1.931 1.138l0.003 0c0.023 0.001 0.050 0.001 0.077 0.001 0.806 0 1.505-0.458 1.852-1.128l0.005-0.012c0-0.001 0-0.002 0-0.003 0-0.674-0.453-1.242-1.071-1.417l-0.010-0.003z"></path>
<path d="M7.595 6.763c0 0.609-0.493 1.102-1.102 1.102s-1.102-0.493-1.102-1.102c0-0.609 0.493-1.102 1.102-1.102s1.102 0.493 1.102 1.102z"></path>
<path d="M26.212 7.893c-0.224 0.165-0.506 0.263-0.811 0.263s-0.586-0.099-0.815-0.266l0.004 0.003c-0.664 0.147-1.155 0.726-1.166 1.421l-0 0.001c0.399 0.671 1.112 1.118 1.931 1.138l0.003 0c0.023 0.001 0.050 0.001 0.077 0.001 0.806 0 1.505-0.458 1.852-1.128l0.005-0.012c0-0.001 0-0.002 0-0.003 0-0.674-0.453-1.242-1.071-1.417l-0.010-0.003z"></path>
<path d="M26.51 6.763c0 0.609-0.493 1.102-1.102 1.102s-1.102-0.493-1.102-1.102c0-0.609 0.493-1.102 1.102-1.102s1.102 0.493 1.102 1.102z"></path>
<path d="M7.296 28.537c-0.224 0.165-0.506 0.263-0.811 0.263s-0.586-0.099-0.815-0.266l0.004 0.003c-0.664 0.147-1.155 0.726-1.166 1.421l-0 0.001c0.399 0.671 1.112 1.118 1.931 1.138l0.003 0c0.023 0.001 0.050 0.001 0.077 0.001 0.806 0 1.505-0.458 1.852-1.128l0.005-0.012c0-0.001 0-0.002 0-0.003 0-0.674-0.453-1.242-1.071-1.417l-0.010-0.003z"></path>
<path d="M7.595 27.413c0 0.609-0.493 1.102-1.102 1.102s-1.102-0.493-1.102-1.102c0-0.609 0.493-1.102 1.102-1.102s1.102 0.493 1.102 1.102z"></path>
<path d="M25.5 28.537c-0.224 0.165-0.506 0.263-0.811 0.263s-0.586-0.099-0.815-0.266l0.004 0.003c-0.664 0.147-1.155 0.726-1.166 1.421l-0 0.001c0.399 0.671 1.112 1.118 1.931 1.138l0.003 0c0.023 0.001 0.050 0.001 0.077 0.001 0.806 0 1.505-0.458 1.852-1.128l0.005-0.012c0-0.001 0-0.002 0-0.003 0-0.674-0.453-1.242-1.071-1.417l-0.010-0.003z"></path>
<path d="M25.799 27.413c0 0.609-0.493 1.102-1.102 1.102s-1.102-0.493-1.102-1.102c0-0.609 0.493-1.102 1.102-1.102s1.102 0.493 1.102 1.102z"></path>
<path d="M17.913 18.347c0 1.147-0.93 2.076-2.076 2.076s-2.076-0.93-2.076-2.076c0-1.147 0.93-2.076 2.076-2.076s2.076 0.93 2.076 2.076z"></path>
<path d="M17.92 16.256l0.1 0.107 5.12-5.12-0.206-0.206-5.12 5.12z"></path>
<path d="M18.788 18.432c0 0.050 0 0.164 0 0.164h7.31v-0.334h-7.317s0.007 0.121 0.007 0.171z"></path>
<path d="M17.92 20.43l-0.107 0.1 5.12 5.12 0.206-0.206-5.12-5.12z"></path>
<path d="M13.746 20.43l-0.1-0.107-5.12 5.12 0.206 0.206 5.12-5.12z"></path>
<path d="M12.885 18.432c0-0.050 0-0.164 0-0.164h-7.332v0.334h7.339s-0.007-0.114-0.007-0.171z"></path>
<path d="M13.746 16.256l0.107-0.1-5.12-5.12-0.206 0.206 5.12 5.12z"></path>
</svg>
