<!-- Generated by IcoMoon.io -->
<svg version="1.1" xmlns="http://www.w3.org/2000/svg" width="32" height="32" viewBox="0 0 32 32">
<title>icons_project</title>
<path stroke="#010101" stroke-linejoin="miter" stroke-linecap="butt" stroke-miterlimit="10" stroke-width="0.8" fill="#000" d="M26.856 2h-21.6c-0.44 0-0.856 0.096-0.856 0.488v27.608c0.048 0.4 0.386 0.706 0.795 0.706 0.022 0 0.043-0.001 0.064-0.003l-0.003 0h21.6c0.012 0.001 0.026 0.001 0.040 0.001 0.389 0 0.704-0.315 0.704-0.704 0-0 0-0.001 0-0.001v0-27.608c0-0.392-0.296-0.488-0.744-0.488zM26.8 29.2h-21.6v-12.8h21.6zM26.8 17.2h-21.6v-13.6h21.6z"></path>
<path d="M22.352 13.6h-12.824v-6.352h1.672v4.776h9.28l0.024-4.776h1.848v6.352z"></path>
<path d="M22.352 26.4h-12.824v-6.352h1.672v4.776h9.28l0.024-4.776h1.848v6.352z"></path>
</svg>
