<!-- Generated by IcoMoon.io -->
<svg version="1.1" xmlns="http://www.w3.org/2000/svg" width="32" height="32" viewBox="0 0 32 32">
<title>icons_find</title>
<path d="M28.64 26.32l-8-7.52c1.28-1.6 2.56-4.16 2.56-6.56 0-5.68-5.2-9.92-10.88-9.92-5.68-0.080-10.080 4.16-10.080 9.92 0 5.68 3.84 10.64 9.52 10.64 2.48 0 4.16-0.64 5.36-1.28l8.080 8.080c0.48 0.48 1.2 0.48 1.68 0l1.68-1.68c0.56-0.48 0.56-1.2 0.080-1.68zM12.8 19.6c-3.84 0-6.96-3.12-6.96-6.96-0.080-3.92 3.040-7.040 6.96-7.040 3.84 0 6.96 3.12 6.96 6.96 0 3.92-3.12 7.040-6.96 7.040z"></path>
</svg>
