<!-- Generated by IcoMoon.io -->
<svg version="1.1" xmlns="http://www.w3.org/2000/svg" width="32" height="32" viewBox="0 0 32 32">
<title>icons_cart</title>
<path fill="#010101" d="M12.302 26.24c-1.351 0-2.489 1.138-2.489 2.489s1.138 2.489 2.489 2.489c1.351 0 2.489-1.138 2.489-2.489 0-1.422-1.067-2.489-2.489-2.489z"></path>
<path fill="#010101" d="M25.031 26.24c-1.351 0-2.489 1.138-2.489 2.489s1.138 2.489 2.489 2.489c1.351 0 2.489-1.138 2.489-2.489 0-1.422-1.138-2.489-2.489-2.489z"></path>
<path fill="#010101" d="M10.667 25.031c-0.498 0-0.996-0.284-1.209-0.782l-3.413-7.68-1.991-2.56h-1.707c-0.711 0-1.28-0.569-1.28-1.28s0.569-1.28 1.28-1.28h2.347c0.427 0 0.782 0.213 0.996 0.498l2.489 3.129c0.071 0.071 0.142 0.142 0.142 0.284l3.129 7.040 13.796-0.498 2.204-6.756c0.213-0.64 0.924-1.067 1.636-0.853 0.64 0.213 1.067 0.924 0.853 1.636l-2.489 7.609c-0.142 0.498-0.64 0.853-1.209 0.853l-15.573 0.64c0 0 0 0 0 0z"></path>
<path fill="#000" d="M17.493 8.533h-6.471v12.089h9.956v-9.102l-3.484-2.987zM20.267 19.911h-8.533v-10.667h5.689v2.844h2.844v7.822z"></path>
<path fill="#000" d="M13.156 17.067h4.978v0.711h-4.978v-0.711z"></path>
<path fill="#000" d="M13.156 18.489h4.978v0.711h-4.978v-0.711z"></path>
<path fill="#000" d="M13.156 15.644h4.978v0.711h-4.978v-0.711z"></path>
<path fill="#000" d="M13.156 14.222h4.978v0.711h-4.978v-0.711z"></path>
<path fill="#000" d="M13.156 12.8h4.978v0.711h-4.978v-0.711z"></path>
<path fill="#fff" d="M14.933 9.458h9.102v11.449h-9.102v-11.449z"></path>
<path fill="#781a15" d="M21.049 9.244h-6.471v12.089h9.956v-9.102l-3.484-2.987zM23.822 20.622h-8.533v-10.667h5.689v2.844h2.844v7.822z"></path>
<path fill="#781a15" d="M16.711 17.778h4.978v0.711h-4.978v-0.711z"></path>
<path fill="#781a15" d="M16.711 19.2h4.978v0.711h-4.978v-0.711z"></path>
<path fill="#781a15" d="M16.711 16.356h4.978v0.711h-4.978v-0.711z"></path>
<path fill="#781a15" d="M16.711 14.933h4.978v0.711h-4.978v-0.711z"></path>
<path fill="#781a15" d="M16.711 13.511h4.978v0.711h-4.978v-0.711z"></path>
</svg>
