<!-- Generated by IcoMoon.io -->
<svg version="1.1" xmlns="http://www.w3.org/2000/svg" width="32" height="32" viewBox="0 0 32 32">
<title>icons_sensory_data</title>
<path fill="#010101" d="M11.12 19.36l2.16 1.040c0.32 0.16 0.72 0.16 1.040 0l1.84-0.88 3.040-1.44c-0.080-0.080-0.16-0.080-0.16-0.16l-4.4-2c-0.4-0.16-1.12-0.16-1.6 0l-4.4 2c-0.080 0-0.16 0.080-0.24 0.16l2.72 1.28z"></path>
<path fill="#010101" d="M10 19.2l-1.6-0.88v5.28c0 0.48 0.4 1.040 0.88 1.28 0 0 4.24 2.080 4.32 2.080v-5.36c0-0.32-0.24-0.72-0.56-0.8z"></path>
<path fill="#010101" d="M14.32 20.8c-0.32 0.16-0.32 0.56-0.32 0.88v5.44c0.080 0 0.16-0.080 0.16-0.080l4.32-2.080c0.4-0.16 0.72-0.8 0.72-1.28v-5.28z"></path>
<path fill="#000" d="M19.76 1.6h-15.76v29.6h24v-21.92l-8.24-7.68zM26.4 28.8h-20.8v-25.6h13.6v7.2h7.2v18.4z"></path>
<path fill="#010101" d="M22.080 13.040c-0.56-0.48-0.8-1.040-0.8-1.84h-0.72c0 0.8 0.32 1.68 0.96 2.32 0.72 0.64 1.68 0.88 2.48 0.88v-0.64c0 0-1.44-0.24-1.92-0.72z"></path>
<path fill="#010101" d="M20.88 14.080c-0.88-0.8-1.28-1.28-1.28-2.88h-0.72c0 1.6 0.48 2.4 1.44 3.36 1.040 0.96 2.8 1.36 3.6 1.36v-0.64c-0.72-0.080-2.16-0.4-3.040-1.2z"></path>
<path fill="#010101" d="M19.76 15.040c-1.12-1.040-1.84-2.56-1.84-3.92h-0.56c0 1.6 0.64 3.2 1.92 4.48 1.28 1.2 3.12 1.84 4.72 1.84v-0.64c-0.8 0-3.12-0.72-4.24-1.76z"></path>
</svg>
