<!-- Generated by IcoMoon.io -->
<svg version="1.1" xmlns="http://www.w3.org/2000/svg" width="32" height="32" viewBox="0 0 32 32">
<title>icons_safe</title>
<path d="M5.84 9.76c0.16 0.080 0.24 0.24 0.24 0.4v2.48c0 0.24-0.080 0.32-0.24 0.4v5.76c0.16 0.080 0.24 0.24 0.24 0.4v2.48c0 0.24-0.080 0.32-0.24 0.4v0.32c0 0.48 0.4 0.96 0.88 1.2l7.84 3.28c0.4 0.16 0.64 0 0.64-0.32v-13.040c0-0.48-0.4-0.96-0.88-1.2l-7.84-3.28c-0.4-0.16-0.64 0-0.64 0.32v0.4zM7.76 26l-1.36 0.56c0 0-0.080 0-0.080 0s-0.080 0-0.080 0l-1.52-0.64c-0.080 0-0.16-0.080-0.16-0.16 0 0 0-0.080 0-0.080v-18.24c0-0.16 0-0.32 0.080-0.48 0.16-0.48 0.64-0.96 1.12-1.2l9.6-4.080c0.16-0.080 0.32-0.080 0.56-0.080 0.16 0 0.32 0 0.48 0.080l9.6 4.080c0.48 0.24 0.88 0.64 1.12 1.2 0.080 0.16 0.080 0.32 0.080 0.48v0 18.16c0 0.080 0 0.080 0 0.080 0 0.080-0.080 0.16-0.16 0.16l-1.52 0.64c0 0-0.080 0-0.080 0s-0.080 0-0.080 0l-1.44-0.56-6.16 2.64v1.040c0 0.080 0 0.080 0 0.080 0 0.080-0.080 0.16-0.16 0.16l-1.6 0.8c0 0-0.080 0-0.080 0s-0.080 0-0.080 0l-1.52-0.64c-0.080 0-0.16-0.080-0.16-0.16 0 0 0-0.080 0-0.080v-1.040l-6.4-2.72zM6.88 17.68c0.16 0.64 0.64 1.040 1.12 0.96 0.48-0.16 0.72-0.72 0.56-1.36s-0.64-1.040-1.12-0.96c-0.4 0.16-0.64 0.72-0.56 1.36v0zM7.44 15.84c0.24-0.56 0.56-0.96 1.12-1.12 0.96-0.24 1.92 0.64 2.24 1.92s-0.24 2.56-1.2 2.8c-0.48 0.080-0.96 0-1.28-0.32-0.080 0-0.080 0-0.16 0.080-0.64 0.16-1.36-0.4-1.6-1.36s0.16-1.84 0.88-2v0 0zM11.44 20.8v-2.32c0-0.64 0.32-1.28 0.8-1.68 0-0.48 0.24-0.88 0.64-1.040 0.48-0.16 0.96 0.32 1.12 0.96s-0.080 1.28-0.56 1.36c-0.24 0.080-0.4 0-0.56-0.16-0.080 0.16-0.16 0.32-0.16 0.48v2.4c-0.080 0.8-1.28 0.8-1.28 0v0z"></path>
</svg>
