<!-- Generated by IcoMoon.io -->
<svg version="1.1" xmlns="http://www.w3.org/2000/svg" width="32" height="32" viewBox="0 0 32 32">
<title>icons_edit</title>
<path d="M3.012 3.106c-1.788 1.788-1.788 4.8 0 6.588l6.588-6.588c-1.788-1.788-4.706-1.788-6.588 0z"></path>
<path d="M19.294 25.976l11.294 4.706-4.706-11.294-14.4-14.494-6.588 6.588 14.4 14.494zM20.8 23.059c0.565-0.565 1.694-0.471 1.976-0.188-0.282-0.282-0.376-1.412 0.188-1.976s1.788-0.847 1.788-0.847l2.729 6.494-1.035 1.035-6.494-2.729c0 0 0.282-1.224 0.847-1.788z"></path>
</svg>
