<!-- Generated by IcoMoon.io -->
<svg version="1.1" xmlns="http://www.w3.org/2000/svg" width="32" height="32" viewBox="0 0 32 32">
<title>icons_duplicate_mono</title>
<path fill="#231f20" d="M23.239 1.422h-13.639v3.705l5.632 1.984-0.156 1.707 5.028 4.060 0.164 14.144h9.956v-18.439zM28.089 25.6h-8.178l-0.135-12.146-5.049-0.59-0.498-6.023-3.207-0.206v-3.079h10.667v5.689h6.4z"></path>
<path fill="#000" d="M14.876 4.978h-13.81v26.311h20.622v-18.489zM19.556 29.867h-17.067v-22.756h11.378v6.4h5.689z"></path>
<path fill="#000" d="M6.044 14.933h9.956v1.422h-9.956v-1.422z"></path>
<path fill="#000" d="M6.044 17.778h9.956v1.422h-9.956v-1.422z"></path>
<path fill="#000" d="M6.044 23.467h9.956v1.337h-9.956v-1.337z"></path>
<path fill="#000" d="M6.044 26.311h9.956v1.422h-9.956v-1.422z"></path>
<path fill="#000" d="M6.044 20.622h9.956v1.337h-9.956v-1.337z"></path>
</svg>
