<!-- Generated by IcoMoon.io -->
<svg version="1.1" xmlns="http://www.w3.org/2000/svg" width="32" height="32" viewBox="0 0 32 32">
<title>icons_share</title>
<path d="M4.124 18.062c-0.213 0.142-0.498 0.284-0.782 0.284s-0.569-0.071-0.782-0.284v0c-1.138 0.213-1.138 1.422-1.138 1.422s0.569 1.067 1.92 1.138c1.422 0.071 1.92-1.138 1.92-1.138-0.142-1.067-0.996-1.351-1.138-1.422z"></path>
<path d="M4.338 16.996c0 0.589-0.478 1.067-1.067 1.067s-1.067-0.478-1.067-1.067c0-0.589 0.478-1.067 1.067-1.067s1.067 0.478 1.067 1.067z"></path>
<path d="M29.369 18.062c-0.213 0.142-0.498 0.284-0.782 0.284s-0.569-0.071-0.782-0.284v0c-1.138 0.213-1.138 1.422-1.138 1.422s0.569 1.067 1.92 1.138c1.422 0.071 1.92-1.138 1.92-1.138-0.071-1.067-0.924-1.351-1.138-1.422z"></path>
<path d="M29.653 16.996c0 0.589-0.478 1.067-1.067 1.067s-1.067-0.478-1.067-1.067c0-0.589 0.478-1.067 1.067-1.067s1.067 0.478 1.067 1.067z"></path>
<path d="M7.324 7.893c-0.213 0.142-0.498 0.284-0.782 0.284s-0.569-0.071-0.782-0.284v0c-1.138 0.213-1.138 1.422-1.138 1.422s0.569 1.067 1.92 1.138c1.422 0.071 1.92-1.138 1.92-1.138-0.142-1.067-0.996-1.351-1.138-1.422z"></path>
<path d="M7.538 6.756c0 0.589-0.478 1.067-1.067 1.067s-1.067-0.478-1.067-1.067c0-0.589 0.478-1.067 1.067-1.067s1.067 0.478 1.067 1.067z"></path>
<path d="M26.24 7.893c-0.213 0.142-0.498 0.284-0.782 0.284s-0.569-0.071-0.782-0.284v0c-1.138 0.213-1.138 1.422-1.138 1.422s0.569 1.067 1.92 1.138c1.422 0.071 1.92-1.138 1.92-1.138-0.142-1.067-0.996-1.351-1.138-1.422z"></path>
<path d="M26.453 6.756c0 0.589-0.478 1.067-1.067 1.067s-1.067-0.478-1.067-1.067c0-0.589 0.478-1.067 1.067-1.067s1.067 0.478 1.067 1.067z"></path>
<path d="M7.324 28.516c-0.213 0.142-0.498 0.284-0.782 0.284s-0.569-0.071-0.782-0.284v0c-1.138 0.213-1.138 1.422-1.138 1.422s0.569 1.067 1.92 1.138c1.422 0.071 1.92-1.138 1.92-1.138-0.142-1.067-0.996-1.351-1.138-1.422z"></path>
<path d="M7.538 27.378c0 0.589-0.478 1.067-1.067 1.067s-1.067-0.478-1.067-1.067c0-0.589 0.478-1.067 1.067-1.067s1.067 0.478 1.067 1.067z"></path>
<path d="M25.529 28.516c-0.213 0.142-0.498 0.284-0.782 0.284s-0.569-0.071-0.782-0.284v0c-1.138 0.213-1.138 1.422-1.138 1.422s0.569 1.067 1.92 1.138c1.422 0.071 1.92-1.138 1.92-1.138-0.142-1.067-0.996-1.351-1.138-1.422z"></path>
<path d="M25.742 27.378c0 0.589-0.478 1.067-1.067 1.067s-1.067-0.478-1.067-1.067c0-0.589 0.478-1.067 1.067-1.067s1.067 0.478 1.067 1.067z"></path>
<path d="M17.92 18.347c0 1.139-0.923 2.062-2.062 2.062s-2.062-0.923-2.062-2.062c0-1.139 0.923-2.062 2.062-2.062s2.062 0.923 2.062 2.062z"></path>
<path d="M17.92 16.284c0 0 0.071 0.071 0.071 0.142l5.12-5.12-0.213-0.213-5.12 5.12c0.071 0 0.142 0 0.142 0.071z"></path>
<path d="M18.773 18.418c0 0.071 0 0.142 0 0.142h7.324v-0.356h-7.324c0 0.071 0 0.142 0 0.213z"></path>
<path d="M17.92 20.409c0 0.071-0.142 0.071-0.142 0.071l5.12 5.12 0.213-0.213-5.12-5.12c0 0.071 0 0.142-0.071 0.142z"></path>
<path d="M13.724 20.409c-0.071 0-0.071-0.142-0.071-0.142l-5.12 5.12 0.213 0.213 5.12-5.12c0 0.071-0.071 0-0.142-0.071z"></path>
<path d="M12.871 18.418c0-0.071 0-0.142 0-0.142h-7.324v0.356h7.324c0 0 0-0.142 0-0.213z"></path>
<path d="M13.724 16.284c0.071 0 0.142-0.071 0.142-0.071l-5.12-5.12-0.213 0.213 5.12 5.12c0-0.071 0.071-0.142 0.071-0.142z"></path>
</svg>
