<!-- Generated by IcoMoon.io -->
<svg version="1.1" xmlns="http://www.w3.org/2000/svg" width="32" height="32" viewBox="0 0 32 32">
<title>icons_search</title>
<path d="M28.706 24.847l-4.141-4.141c1.224-1.882 1.976-4.141 1.976-6.588 0-6.776-5.553-12.329-12.329-12.329s-12.424 5.459-12.424 12.329c0 6.776 5.553 12.329 12.329 12.329 2.447 0 4.706-0.753 6.588-1.882l4.141 4.141c1.035 1.035 2.729 1.035 3.859 0 1.035-1.129 1.035-2.824 0-3.859zM8.376 19.953c-1.506-1.506-2.447-3.576-2.447-5.835s0.941-4.329 2.447-5.835c1.506-1.506 3.576-2.447 5.835-2.447s4.329 0.941 5.835 2.447c1.506 1.506 2.447 3.576 2.447 5.835s-0.941 4.329-2.447 5.835c-1.506 1.506-3.576 2.447-5.835 2.447-2.353-0.094-4.424-1.035-5.835-2.447z"></path>
</svg>
