<!-- Generated by IcoMoon.io -->
<svg version="1.1" xmlns="http://www.w3.org/2000/svg" width="32" height="32" viewBox="0 0 32 32">
<title>icons_learn</title>
<path fill="#7a1c17" d="M26.553 16.875l-3.826 3.527-8.676 0.882-7.943-9.557 1.764-4.117 1.031-1.771 7.204-3.527 6.030 1.764 4.416 3.534v9.266z"></path>
<path fill="#010101" d="M28.508 13.511c0.526-3.989-1.131-8.811-5.924-10.98-3.812-1.707-10.539-1.707-14.087 1.529-1.862 1.797-3.201 4.124-3.774 6.738l-0.016 0.088c-0.131 0.549-0.243 1.225-0.314 1.913l-0.006 0.071c0 0.469 0.533 0.661 0.469 0.903s-0.654 0.939-1.109 1.692-1.621 2.446-1.621 2.901 0.27 0.626 0.818 0.804 0.974 0.334 1.060 0.548-0.256 0.818-0.277 1.252 0.121 0.412 0.398 0.519c0.257 0.085 0.554 0.139 0.862 0.149l0.005 0s-1.173 0.22-1.052 0.711 0.825 0.597 0.889 0.988c0 0.199-0.597 1.202-0.512 2.19 0.107 1.28 1.323 1.856 3.243 1.543s2.695-0.569 2.93 0.441c0.149 0.64 0.135 1.714 0.405 2.923v0.149h14.108c-0.864-1.462-1.387-3.216-1.422-5.089l-0-0.010c0-1.536 0.149-3.819 1.252-5.035 1.408-1.522 3.257-3.676 3.676-6.94zM22.699 16.697s-0.185 2.012-1.664 2.268c-0.064 0.006-0.139 0.010-0.215 0.010-0.792 0-1.492-0.395-1.913-0.998l-0.005-0.008-0.42 1.963h-0.853s-0.804-2.965-1.358-3.463c-0.395-0.316-0.876-0.542-1.403-0.637l-0.019-0.003c-0.741-0.072-1.4-0.375-1.916-0.835l0.003 0.003c-0.207-0.228-0.335-0.532-0.335-0.866 0-0.303 0.105-0.581 0.28-0.801l-0.002 0.003c-1.013-0.006-1.992-0.138-2.927-0.381l0.083 0.018c-1.913-0.412-1.33-1.636-1.33-1.636-0.022 0.002-0.048 0.003-0.074 0.003-0.349 0-0.656-0.174-0.841-0.44l-0.002-0.003c-0.204-0.336-0.324-0.742-0.324-1.177s0.121-0.841 0.33-1.187l-0.006 0.010c0.289-0.569 0.75-1.016 1.313-1.28l0.017-0.007s-0.313-0.398 0.348-0.953c0.264-0.178 0.589-0.285 0.939-0.285 0.005 0 0.010 0 0.014 0h-0.001c0.196-0.494 0.594-0.871 1.090-1.035l0.012-0.004c0.274-0.15 0.599-0.238 0.945-0.238 0.283 0 0.552 0.059 0.795 0.165l-0.013-0.005c0.234-0.421 0.613-0.737 1.068-0.885l0.013-0.004c0.148-0.037 0.318-0.058 0.493-0.058 0.412 0 0.797 0.117 1.123 0.319l-0.009-0.005c0.399-0.307 0.905-0.492 1.455-0.492 0.031 0 0.062 0.001 0.093 0.002l-0.004-0c0.053-0.006 0.114-0.009 0.176-0.009 0.466 0 0.887 0.191 1.189 0.5l0 0c0.217-0.099 0.47-0.157 0.737-0.157 0.212 0 0.416 0.037 0.605 0.104l-0.013-0.004c0.418 0.158 0.74 0.487 0.886 0.9l0.003 0.010c0.191-0.117 0.422-0.186 0.669-0.186 0.187 0 0.366 0.040 0.526 0.112l-0.008-0.003c0.44 0.21 0.781 0.57 0.962 1.011l0.005 0.013c0.028-0.002 0.060-0.003 0.092-0.003 0.333 0 0.635 0.128 0.861 0.338l-0.001-0.001c0.163 0.183 0.262 0.426 0.262 0.692 0 0.072-0.007 0.143-0.021 0.211l0.001-0.007c0.416 0.176 0.744 0.491 0.934 0.885l0.005 0.011c0.071 0.145 0.112 0.316 0.112 0.496 0 0.27-0.093 0.519-0.249 0.716l0.002-0.002c0.684 0.649 1.109 1.565 1.109 2.58 0 0.008-0 0.016-0 0.024v-0.001c0.171 2.297-1.301 2.745-1.301 2.745 0.053 0.16 0.083 0.344 0.083 0.534 0 0.369-0.114 0.711-0.308 0.993l0.004-0.006c-0.697 1.102-2.112 0.462-2.112 0.462z"></path>
</svg>
