<!-- Generated by IcoMoon.io -->
<svg version="1.1" xmlns="http://www.w3.org/2000/svg" width="32" height="32" viewBox="0 0 32 32">
<title>icons_review</title>
<path d="M10.048 26.652c-3.278-0.241-6.1-2-7.791-4.57l-0.024-0.038c-1.025-1.527-1.636-3.406-1.636-5.428 0-0.042 0-0.084 0.001-0.125l-0 0.006c-0-0.035-0.001-0.077-0.001-0.119 0-2.022 0.611-3.901 1.659-5.463l-0.022 0.035c1.268-1.927 3.125-3.376 5.311-4.104l0.072-0.021c0.887-0.303 1.908-0.478 2.971-0.478 0.058 0 0.116 0.001 0.174 0.002l-0.009-0c0.039-0.001 0.084-0.001 0.13-0.001 1.658 0 3.22 0.413 4.588 1.143l-0.053-0.026 0.427 0.22 0.427-0.22c0.962-0.514 2.081-0.888 3.266-1.060l0.055-0.007c0.4-0.045 0.864-0.071 1.333-0.071s0.933 0.026 1.39 0.077l-0.056-0.005c4.561 0.634 8.127 4.205 8.748 8.715l0.006 0.053c0.045 0.4 0.071 0.864 0.071 1.333s-0.026 0.933-0.076 1.39l0.005-0.056c-0.412 3.023-2.102 5.584-4.498 7.159l-0.038 0.024c-1.527 1.025-3.406 1.636-5.428 1.636-0.042 0-0.084-0-0.125-0.001l0.006 0c-0.039 0.001-0.084 0.001-0.13 0.001-1.658 0-3.22-0.413-4.588-1.143l0.053 0.026-0.427-0.22-0.427 0.22c-1.29 0.685-2.817 1.096-4.438 1.116l-0.007 0c-0.391 0-0.804 0-0.917 0zM16.284 24.178c1.779-1.287 3.081-3.139 3.647-5.288l0.015-0.066c0.179-0.622 0.282-1.337 0.282-2.076 0-0.095-0.002-0.19-0.005-0.285l0 0.014c0.003-0.081 0.005-0.176 0.005-0.271 0-0.739-0.103-1.454-0.295-2.131l0.013 0.055c-0.598-2.272-1.953-4.163-3.774-5.434l-0.031-0.020-0.27-0.185-0.27 0.185c-1.852 1.291-3.207 3.182-3.79 5.388l-0.015 0.066c-0.179 0.622-0.282 1.337-0.282 2.076 0 0.095 0.002 0.19 0.005 0.285l-0-0.014c-0.003 0.081-0.005 0.176-0.005 0.271 0 0.739 0.103 1.454 0.295 2.131l-0.013-0.055c0.501 1.909 1.53 3.533 2.919 4.755l0.011 0.009c0.338 0.333 0.73 0.614 1.161 0.827l0.026 0.012c0.143-0.085 0.264-0.168 0.379-0.256l-0.010 0.007z"></path>
</svg>
