<!-- Generated by IcoMoon.io -->
<svg version="1.1" xmlns="http://www.w3.org/2000/svg" width="32" height="32" viewBox="0 0 32 32">
<title>icons_icon-geospatial</title>
<path d="M17.412 2.071c-1.694 0-3.294 0.376-4.8 1.035 0.094 0 0.188 0 0.188 0s2.071 0.188 3.106-0.188c0.941-0.376 1.788 0.659 1.412 0.659s-0.847 1.224-0.471 1.224c0.376 0 0.471 0.565 1.129-0.094 0.565-0.659 0.471-0.376 1.6 0.282 1.035 0.753-0.753 0.753-0.753 0.753s-0.376 0.753-0.847 0.753c-0.471 0-1.694 1.318-1.976 2.165s-0.376 0.941-0.753 0.188c-0.376-0.659-1.035-0.188-1.694 0.659-0.659 0.941 1.318 1.788 1.318 1.788l1.035 0.847c0 0 0.753-0.188 1.224-0.376 0.376-0.188 0.282 0.376 1.694 0.941s0.188 0.659 1.506 1.035c1.318 0.376 1.6 1.412 1.6 1.412l-0.376 0.753-0.376 1.224c0 0-0.565 0.188-0.847 1.224s-0.941 1.224-1.506 1.694c-0.471 0.471 0.094 1.6 0.376 2.165s-0.565-0.094-1.035-0.188c-0.376-0.094-0.565-1.318-0.847-1.882-0.188-0.565 0.094-1.976 0.094-2.635s-0.376-0.847-0.941-1.506c-0.471-0.565-0.471-0.659-0.847-1.788-0.282-1.129-0.094-1.412 0.188-1.6s-0.753-0.565-1.318-0.753c-0.471-0.188-1.035-0.565-1.694-1.035s-0.941-1.318-1.224-1.694c-0.282-0.376-0.376-2.165-0.376-2.729s0.659-1.318 0.376-1.788c-0.094-0.188-0.565-0.282-1.035-0.282-2.824 2.165-4.706 5.553-4.612 9.318 0 2.353 0.659 4.329 1.788 6.118 0.376 0.094 1.318 0.471 1.694 0.471 0.471 0 1.882-0.094 2.259 0.847 0.376 1.035 1.035 1.129 0.094 2.165-0.094 0.094-0.188 0.188-0.282 0.282 1.788 1.035 3.859 1.694 6.118 1.694 6.4 0 11.576-5.271 11.482-11.671 0-6.306-5.271-11.482-11.671-11.482z"></path>
<path d="M21.553 28.235c1.506-0.376 3.012-1.035 4.329-1.882l-0.753-1.129c-2.918 1.788-6.494 2.541-10.071 1.788-7.341-1.6-12.047-8.941-10.447-16.282 0.753-3.576 2.918-6.588 5.741-8.471l-0.753-1.129c-3.106 2.071-5.553 5.365-6.4 9.318-1.694 7.718 2.918 15.341 10.447 17.6-2.259 0.471-3.859 1.412-3.859 2.447h14.871c0-0.941-1.224-1.788-3.106-2.259z"></path>
</svg>
