<!-- Generated by IcoMoon.io -->
<svg version="1.1" xmlns="http://www.w3.org/2000/svg" width="32" height="32" viewBox="0 0 32 32">
<title>icons_info</title>
<path d="M16.080 30.72c8 0 14.48-6.56 14.48-14.64s-6.48-14.64-14.48-14.64c-8-0.080-14.56 6.48-14.56 14.56 0 8.16 6.56 14.72 14.56 14.72zM16.080 4.72c6.16 0 11.2 5.040 11.12 11.28 0 6.24-4.96 11.28-11.12 11.28s-11.2-5.040-11.2-11.28c0-6.16 5.040-11.28 11.2-11.28z"></path>
<path d="M18.72 23.2c-0.16 0-0.32-0.16-0.32-0.4v-10.080h-6.24v1.28h1.12c0.16 0 0.32 0.16 0.32 0.32v8.56c0 0.16-0.16 0.32-0.32 0.32h-1.12v1.36h7.84v-1.36h-1.28z"></path>
<path d="M18.72 9.2c0 1.458-1.182 2.64-2.64 2.64s-2.64-1.182-2.64-2.64c0-1.458 1.182-2.64 2.64-2.64s2.64 1.182 2.64 2.64z"></path>
</svg>
