<!-- Generated by IcoMoon.io -->
<svg version="1.1" xmlns="http://www.w3.org/2000/svg" width="32" height="32" viewBox="0 0 32 32">
<title>icons_integration</title>
<path d="M27.388 13.459h-1.976c-0.188-0.941-0.565-1.788-1.035-2.541l1.412-1.412c0.659-0.659 0.659-1.694 0-2.353 0 0 0 0 0 0l-1.129-1.129c-0.659-0.659-1.694-0.659-2.353 0v0l-1.412 1.412c-0.753-0.471-1.694-0.847-2.541-1.035v-2.071c0-0.941-0.753-1.694-1.694-1.694h-1.694c-0.941 0-1.694 0.753-1.694 1.694v1.976c-0.941 0.188-1.788 0.565-2.541 1.035l-1.318-1.318c-0.659-0.659-1.694-0.659-2.353 0v0l-1.224 1.129c-0.659 0.659-0.659 1.694 0 2.353 0 0 0 0 0 0l1.412 1.412c-0.471 0.753-0.847 1.694-1.035 2.541h-1.976c-0.941 0-1.694 0.753-1.694 1.694v1.694c0 0.941 0.753 1.694 1.694 1.694h1.976c0.188 0.941 0.565 1.788 1.035 2.541l-1.412 1.412c-0.659 0.659-0.659 1.694 0 2.353 0 0 0 0 0 0l1.129 1.129c0.659 0.659 1.694 0.659 2.353 0 0 0 0 0 0 0l1.412-1.412c0.753 0.471 1.694 0.847 2.541 1.035v1.976c0 0.941 0.753 1.694 1.694 1.694h1.694c0.941 0 1.694-0.753 1.694-1.694v-1.976c0.941-0.188 1.788-0.565 2.541-1.035l1.412 1.412c0.659 0.659 1.694 0.659 2.353 0 0 0 0 0 0 0l1.129-1.129c0.659-0.659 0.659-1.694 0-2.353 0 0 0 0 0 0l-1.412-1.412c0.471-0.753 0.847-1.694 1.035-2.541h1.976c0.941 0 1.694-0.753 1.694-1.694v-1.788c0-0.847-0.753-1.6-1.694-1.6zM15.812 20.047c-2.259 0-4.141-1.882-4.141-4.141s1.882-4.141 4.141-4.141 4.141 1.882 4.141 4.141-1.882 4.141-4.141 4.141z"></path>
</svg>
