<!-- Generated by IcoMoon.io -->
<svg version="1.1" xmlns="http://www.w3.org/2000/svg" width="32" height="32" viewBox="0 0 32 32">
<title>icons_child_collection</title>
<path d="M3.84 0.996c-1.422 0-2.631 1.209-2.631 2.631v9.244c0 1.422 1.209 2.631 2.631 2.631h9.244c1.422 0 2.631-1.209 2.631-2.631v-9.244c0-1.422-1.209-2.631-2.631-2.631h-9.244zM23.68 2.916c-0.569 0-0.996 0.427-0.996 0.996 0 0 0 0 0 0v3.271h-3.271c0 0-0.071 0-0.071 0-0.569 0-0.996 0.498-0.924 1.067 0 0.569 0.498 0.996 1.067 0.924v0h3.271v3.271c0 0.569 0.427 0.996 0.996 0.996s0.996-0.427 0.996-0.996c0 0 0 0 0 0v-3.2h3.271c0.569 0 0.996-0.427 0.996-0.996s-0.427-0.996-0.996-0.996c0 0 0 0 0 0h-3.271v-3.342c-0.071-0.498-0.498-0.996-1.067-0.996 0 0 0 0 0 0zM3.84 16.142c-1.422 0-2.631 1.209-2.631 2.631v9.244c0 1.422 1.209 2.631 2.631 2.631h9.244c1.422 0 2.631-1.209 2.631-2.631v-9.244c0-1.422-1.209-2.631-2.631-2.631h-9.244zM19.058 16.142c-1.422 0-2.631 1.209-2.631 2.631v9.244c0 1.422 1.209 2.631 2.631 2.631h9.244c1.422 0 2.631-1.209 2.631-2.631v-9.244c0-1.422-1.209-2.631-2.631-2.631h-9.244z"></path>
</svg>
