<!-- Generated by IcoMoon.io -->
<svg version="1.1" xmlns="http://www.w3.org/2000/svg" width="32" height="32" viewBox="0 0 32 32">
<title>icons_find</title>
<path d="M28.664 26.296l-8-7.512c1.439-1.798 2.367-4.061 2.534-6.532l0.002-0.036c0-5.696-5.184-9.952-10.888-9.952-0.081-0.002-0.177-0.004-0.273-0.004-5.421 0-9.816 4.395-9.816 9.816 0 0.049 0 0.098 0.001 0.147l-0-0.007c0 5.696 3.84 10.656 9.544 10.656 0.015 0 0.032 0 0.049 0 1.949 0 3.788-0.47 5.409-1.303l-0.067 0.031 8.088 8.104c0.218 0.217 0.52 0.352 0.852 0.352s0.634-0.134 0.852-0.352l-0 0 1.712-1.704c0.217-0.218 0.352-0.52 0.352-0.852s-0.134-0.634-0.352-0.852l0 0zM12.8 19.608c-3.862 0-6.992-3.13-6.992-6.992s3.13-6.992 6.992-6.992c3.862 0 6.992 3.13 6.992 6.992v0c-0.005 3.86-3.132 6.987-6.992 6.992h-0z"></path>
</svg>
