<!-- Generated by IcoMoon.io -->
<svg version="1.1" xmlns="http://www.w3.org/2000/svg" width="32" height="32" viewBox="0 0 32 32">
<title>icons_geospatial</title>
<path fill="#000" d="M19.76 2.4h-15.76v28.8h24v-21.28l-8.24-7.52zM26.4 29.6h-20.8v-25.6h13.6v6.4h7.2v19.2z"></path>
<path fill="#010101" d="M16.56 12.48c-0.8 0-1.6 0.16-2.32 0.48 0.080 0 0.080 0 0.080 0s1.040 0.080 1.44-0.080c0.48-0.16 0.88 0.32 0.64 0.32-0.16 0-0.4 0.56-0.24 0.56s0.24 0.32 0.56-0.080c0.32-0.32 0.24-0.16 0.8 0.16s-0.32 0.32-0.32 0.32-0.16 0.4-0.4 0.4c-0.24 0-0.8 0.64-0.96 1.040s-0.16 0.4-0.4 0.080c-0.16-0.32-0.48-0.080-0.8 0.32s0.64 0.88 0.64 0.88l0.48 0.4c0 0 0.4-0.080 0.56-0.16s0.16 0.16 0.8 0.48c0.64 0.32 0.080 0.32 0.72 0.56 0.64 0.16 0.8 0.64 0.8 0.64l-0.16 0.4-0.16 0.56c0 0-0.32 0.080-0.4 0.56-0.16 0.48-0.48 0.56-0.72 0.8s0.080 0.8 0.16 1.040c0.16 0.32-0.32-0.080-0.48-0.080-0.16-0.080-0.32-0.64-0.4-0.88-0.080-0.32 0.080-0.96 0-1.28 0-0.32-0.16-0.4-0.4-0.72s-0.24-0.32-0.4-0.88-0.080-0.64 0.080-0.8c0.16-0.080-0.4-0.32-0.64-0.4s-0.48-0.32-0.8-0.48c-0.32-0.24-0.4-0.64-0.56-0.8s-0.16-0.96-0.16-1.28c0-0.32 0.32-0.64 0.16-0.88-0.080-0.080-0.24-0.080-0.48-0.080-1.36 1.040-2.24 2.64-2.24 4.48 0 1.040 0.32 2.080 0.8 2.88 0.16 0.080 0.64 0.24 0.8 0.24 0.24 0 0.88-0.080 1.12 0.4 0.16 0.48 0.48 0.56 0.080 1.040-0.080 0.080-0.080 0.080-0.16 0.16 0.88 0.48 1.84 0.8 2.96 0.8 3.040 0 5.52-2.56 5.52-5.6s-2.48-5.52-5.6-5.52z"></path>
<path fill="#010101" d="M18.56 25.2c0.72-0.16 1.44-0.56 2.080-0.96l-0.4-0.56c-1.36 0.88-3.12 1.2-4.88 0.8-3.52-0.8-5.84-4.24-5.040-7.84 0.4-1.76 1.44-3.2 2.8-4.080l-0.32-0.56c-1.52 1.040-2.64 2.56-3.040 4.48-0.8 3.76 1.44 7.52 5.040 8.64-1.2 0.16-1.92 1.28-1.92 1.28h7.12c0.080 0-0.56-0.96-1.44-1.2z"></path>
</svg>
