<!-- Generated by IcoMoon.io -->
<svg version="1.1" xmlns="http://www.w3.org/2000/svg" width="32" height="32" viewBox="0 0 32 32">
<title>icons_learn</title>
<path fill="#7a1c17" d="M26.524 16.853l-3.769 3.556-8.676 0.853-7.964-9.529 1.778-4.124 0.996-1.778 7.253-3.556 5.973 1.778 4.409 3.556v5.618z"></path>
<path fill="#010101" d="M28.516 13.511c0.498-4.053-1.067-8.818-5.902-11.022-3.84-1.707-10.524-1.707-14.080 1.493-3.129 2.844-3.769 6.827-3.769 6.827s-0.284 1.493-0.284 1.991c0 0.498 0.498 0.64 0.498 0.924-0.071 0.213-0.64 0.924-1.138 1.707-0.427 0.782-1.636 2.418-1.636 2.916 0 0.427 0.284 0.64 0.853 0.782 0.569 0.213 0.996 0.356 1.067 0.569s-0.284 0.853-0.284 1.28c0 0.356 0.142 0.427 0.427 0.498 0.356 0.142 0.853 0.142 0.853 0.142s-1.138 0.213-1.067 0.711c0.142 0.498 0.853 0.569 0.924 0.996 0 0.213-0.569 1.209-0.498 2.204 0.142 1.28 1.351 1.849 3.271 1.564 1.849-0.284 2.702-0.569 2.916 0.427 0.142 0.64 0.142 1.707 0.427 2.916 0 0.071 0 0.071 0 0.142h14.080c-0.569-1.067-1.422-2.844-1.422-5.12 0-1.564 0.142-3.84 1.28-5.049 1.209-1.493 3.058-3.627 3.484-6.898zM22.684 16.711c0 0-0.213 1.991-1.636 2.276-1.28 0.213-2.133-0.996-2.133-0.996l-0.427 1.991h-0.853c0 0-0.782-2.987-1.351-3.484s-1.422-0.64-1.422-0.64-1.138-0.071-1.92-0.853c-0.782-0.782-0.071-1.636-0.071-1.636s-0.924 0.071-2.844-0.356c-1.92-0.427-1.351-1.636-1.351-1.636s-0.498 0.071-0.924-0.427c-0.284-0.356-0.498-1.28 0-2.347 0.498-0.924 1.351-1.28 1.351-1.28s-0.284-0.427 0.356-0.924c0.356-0.284 0.924-0.284 0.924-0.284s0.142-0.64 1.067-1.067c1.067-0.498 1.707-0.071 1.707-0.071s0.284-0.64 1.067-0.853c0.924-0.356 1.707 0.142 1.707 0.142s0.569-0.498 1.564-0.498c0.996 0 1.351 0.498 1.351 0.498s0.569-0.284 1.351-0.071c0.711 0.213 0.853 0.924 0.853 0.924s0.498-0.356 1.209-0.071c0.711 0.284 0.996 0.996 0.996 0.996s0.498-0.071 0.924 0.356c0.356 0.284 0.213 0.924 0.213 0.924s0.569 0.213 0.924 0.924c0.356 0.64-0.142 1.209-0.142 1.209s0.996 0.711 1.138 2.631c0.142 2.276-1.28 2.773-1.28 2.773s0.284 0.711-0.213 1.493c-0.711 0.996-2.133 0.356-2.133 0.356z"></path>
</svg>
