<!-- Generated by IcoMoon.io -->
<svg version="1.1" xmlns="http://www.w3.org/2000/svg" width="32" height="32" viewBox="0 0 32 32">
<title>icons_icon-image</title>
<path d="M16 14.231c-2.63 0-4.762 2.132-4.762 4.762v0c-0 0.013-0 0.029-0 0.045 0 2.685 2.101 4.879 4.749 5.027l0.013 0.001c2.661-0.149 4.762-2.343 4.762-5.028 0-0.013-0-0.025-0-0.038v0.002c0-0.003 0-0.006 0-0.009 0-2.63-2.132-4.762-4.762-4.762 0 0 0 0 0 0v0zM27.915 8.104h-8.339v-1.195c0-0.66-0.535-1.195-1.195-1.195h-4.762c-0.66 0-1.195 0.535-1.195 1.195v0 1.195h-8.339c-1.315 0-2.381 1.066-2.381 2.381v0 16.809c0 1.315 1.066 2.381 2.381 2.381v0h23.831c1.315 0 2.381-1.066 2.381-2.381v0-16.809c0-1.315-1.066-2.381-2.381-2.381v0zM16 26.146c-3.945 0-7.144-3.198-7.144-7.144s3.198-7.144 7.144-7.144c3.945 0 7.144 3.198 7.144 7.144v0c-0.005 3.943-3.2 7.138-7.143 7.144h-0.001z"></path>
</svg>
