<!-- Generated by IcoMoon.io -->
<svg version="1.1" xmlns="http://www.w3.org/2000/svg" width="32" height="32" viewBox="0 0 32 32">
<title>icons_image</title>
<path fill="#000" d="M21.6 18.4h-12v7.2h12v-7.2zM18.4 21.84c0 1.68-1.36 3.040-3.040 3.040s-3.040-1.36-3.040-3.040c0-1.68 1.36-3.040 3.040-3.040s3.040 1.36 3.040 3.040z"></path>
<path fill="#000" d="M19.76 1.6h-15.76v29.6h24v-21.68l-8.24-7.92zM26.4 29.6h-20.8v-25.6h13.6v6.4h7.2v19.2z"></path>
<path fill="#000" d="M23.2 26.4h-15.2v-8.8h15.2v8.8zM22.4 18.4h-13.6v7.2h13.6v-7.2z"></path>
<path fill="#010101" d="M18.080 16.8h-5.52l-0.56-1.84v-2.96h7.2v2.96l-1.12 1.84zM17.6 12.8h-4v3.2h4v-3.2z"></path>
<path fill="#000" d="M17.84 21.84c0 1.36-1.12 2.4-2.4 2.4-1.36 0-2.4-1.12-2.4-2.4s1.12-2.4 2.4-2.4c1.28 0 2.4 1.040 2.4 2.4zM15.36 19.84c-1.12 0-2 0.88-2 2s0.88 2 2 2c1.12 0 2-0.88 2-2s-0.88-2-2-2z"></path>
<path fill="#010101" d="M20 16.8h2.4v0.8h-2.4v-0.8z"></path>
<path fill="#010101" d="M14.4 16.8h2.4v0.8h-2.4v-0.8z"></path>
</svg>
