<!-- Generated by IcoMoon.io -->
<svg version="1.1" xmlns="http://www.w3.org/2000/svg" width="32" height="32" viewBox="0 0 32 32">
<title>icons_cart</title>
<path fill="#010101" d="M12.331 26.212c-1.363 0-2.468 1.105-2.468 2.468s1.105 2.468 2.468 2.468c1.363 0 2.468-1.105 2.468-2.468v0c0-1.363-1.105-2.468-2.468-2.468v0z"></path>
<path fill="#010101" d="M25.017 26.212c-1.363 0-2.468 1.105-2.468 2.468s1.105 2.468 2.468 2.468c1.363 0 2.468-1.105 2.468-2.468v0c0-1.363-1.105-2.468-2.468-2.468v0z"></path>
<path fill="#010101" d="M10.638 25.017c-0.001 0-0.002 0-0.003 0-0.523 0-0.973-0.312-1.175-0.76l-0.003-0.008-3.413-7.701-1.963-2.524h-1.728c-0.711 0-1.287-0.576-1.287-1.287s0.576-1.287 1.287-1.287v0h2.354c0.408 0 0.772 0.191 1.008 0.488l0.002 0.003 2.46 3.15c0.063 0.080 0.117 0.171 0.16 0.269l0.003 0.008 3.108 7.047 13.817-0.519 2.233-6.763c0.175-0.517 0.656-0.883 1.223-0.883 0.712 0 1.289 0.577 1.289 1.289 0 0.145-0.024 0.284-0.068 0.414l0.003-0.009-2.503 7.602c-0.17 0.502-0.627 0.861-1.171 0.882l-0.002 0-15.58 0.59z"></path>
<path fill="#231f20" d="M17.486 8.533h-6.464v12.089h9.956v-9.067zM20.267 19.911h-8.533v-10.667h5.689v2.844h2.844z"></path>
<path fill="#231f20" d="M13.156 17.067h4.978v0.711h-4.978v-0.711z"></path>
<path fill="#231f20" d="M13.156 18.489h4.978v0.711h-4.978v-0.711z"></path>
<path fill="#231f20" d="M13.156 15.644h4.978v0.711h-4.978v-0.711z"></path>
<path fill="#231f20" d="M13.156 14.222h4.978v0.711h-4.978v-0.711z"></path>
<path fill="#231f20" d="M13.156 12.8h4.978v0.711h-4.978v-0.711z"></path>
<path fill="#fff" d="M14.933 9.465h9.067v11.47h-9.067v-11.47z"></path>
<path fill="#781a15" d="M21.042 9.244h-6.464v12.089h9.956v-9.067zM23.822 20.622h-8.533v-10.667h5.689v2.844h2.844z"></path>
<path fill="#781a15" d="M16.711 17.778h4.978v0.711h-4.978v-0.711z"></path>
<path fill="#781a15" d="M16.711 19.2h4.978v0.711h-4.978v-0.711z"></path>
<path fill="#781a15" d="M16.711 16.356h4.978v0.711h-4.978v-0.711z"></path>
<path fill="#781a15" d="M16.711 14.933h4.978v0.711h-4.978v-0.711z"></path>
<path fill="#781a15" d="M16.711 13.511h4.978v0.711h-4.978v-0.711z"></path>
</svg>
