<!-- Generated by IcoMoon.io -->
<svg version="1.1" xmlns="http://www.w3.org/2000/svg" width="32" height="32" viewBox="0 0 32 32">
<title>icons_lock</title>
<path d="M25.387 14.862c-0.356 0-0.569 0-0.569 0v-4.693c0-5.76-3.982-8.889-8.747-8.889s-9.102 3.271-8.96 8.889v4.693c0 0 0.071 0-0.284 0s-2.916 0.427-2.916 2.702v10.738c0 2.418 2.844 2.987 2.916 2.987 5.049 0 13.369 0 18.418 0 0.071 0 2.773-0.284 2.773-2.987v-10.596c-0.071-2.56-2.56-2.844-2.631-2.844zM18.062 27.164h-4.267l0.924-4.409c-0.64-0.427-1.067-1.138-1.067-1.991 0-1.351 1.067-2.418 2.347-2.418s2.347 1.067 2.347 2.418c0 0.853-0.427 1.564-1.067 1.991l0.782 4.409zM11.164 14.862v-4.622c0-2.987 1.849-5.404 4.764-5.404s4.764 2.062 4.764 5.404v4.622h-9.529z"></path>
</svg>
