<!-- Generated by IcoMoon.io -->
<svg version="1.1" xmlns="http://www.w3.org/2000/svg" width="32" height="32" viewBox="0 0 32 32">
<title>icons_duplicate_mono</title>
<path d="M23.253 1.422h-13.653v3.698l5.618 1.991-0.142 1.707 5.049 4.053 0.142 14.151h9.956v-18.418l-6.969-7.182zM28.089 25.6h-8.178l-0.142-12.16-5.049-0.569-0.498-6.044-3.2-0.213v-3.058h10.667v5.689h6.4v16.356z"></path>
<path d="M14.862 4.978h-13.796v26.311h20.622v-18.489l-6.827-7.822zM19.556 29.867h-17.067v-22.756h11.378v6.4h5.689v16.356z"></path>
<path d="M6.044 14.933h9.956v1.422h-9.956v-1.422z"></path>
<path d="M6.044 17.778h9.956v1.422h-9.956v-1.422z"></path>
<path d="M6.044 23.467h9.956v1.351h-9.956v-1.351z"></path>
<path d="M6.044 26.311h9.956v1.422h-9.956v-1.422z"></path>
<path d="M6.044 20.622h9.956v1.351h-9.956v-1.351z"></path>
</svg>
