<!-- Generated by IcoMoon.io -->
<svg version="1.1" xmlns="http://www.w3.org/2000/svg" width="32" height="32" viewBox="0 0 32 32">
<title>icons_image</title>
<path fill="#231f20" d="M21.6 18.4h-12v7.2h12zM18.4 21.84c0 1.692-1.372 3.064-3.064 3.064s-3.064-1.372-3.064-3.064c0-1.692 1.372-3.064 3.064-3.064v0c1.692 0 3.064 1.372 3.064 3.064v0z"></path>
<path fill="#231f20" d="M19.768 1.6h-15.768v29.6h24v-21.688zM26.4 29.6h-20.8v-25.6h13.6v6.4h7.2z"></path>
<path fill="#231f20" d="M23.2 26.4h-15.2v-8.8h15.2zM22.4 18.4h-13.6v7.2h13.6z"></path>
<path fill="#010101" d="M18.072 16.8h-5.552l-0.52-1.88v-2.92h7.2v2.92zM17.6 12.8h-4v3.2h4z"></path>
<path fill="#231f20" d="M17.808 21.84c0 1.325-1.075 2.4-2.4 2.4s-2.4-1.075-2.4-2.4c0-1.325 1.075-2.4 2.4-2.4v0c1.325 0 2.4 1.075 2.4 2.4v0zM15.408 19.84c-1.105 0-2 0.895-2 2s0.895 2 2 2c1.105 0 2-0.895 2-2v0c0-0 0-0 0-0 0-1.105-0.895-2-2-2-0.011 0-0.022 0-0.034 0l0.002-0z"></path>
<path fill="#010101" d="M20 16.8h2.4v0.8h-2.4v-0.8z"></path>
<path fill="#010101" d="M14.4 16.8h2.4v0.8h-2.4v-0.8z"></path>
</svg>
