<!-- Generated by IcoMoon.io -->
<svg version="1.1" xmlns="http://www.w3.org/2000/svg" width="32" height="32" viewBox="0 0 32 32">
<title>icons_sensory_data</title>
<path fill="#010101" d="M11.104 19.384l2.184 1.008c0.154 0.062 0.333 0.098 0.52 0.098s0.366-0.036 0.53-0.102l-0.010 0.003 1.84-0.848 3.032-1.448c-0.058-0.045-0.124-0.085-0.194-0.117l-0.006-0.003-4.408-2.032c-0.237-0.098-0.512-0.155-0.8-0.155s-0.563 0.057-0.814 0.161l0.014-0.005-4.408 2.032c-0.076 0.038-0.142 0.080-0.202 0.129l0.002-0.001 2.688 1.28z"></path>
<path fill="#010101" d="M10.024 19.2l-1.6-0.848v5.304c0.063 0.547 0.393 1.005 0.855 1.244l0.009 0.004 4.312 2.104v-5.408c-0.025-0.347-0.227-0.642-0.515-0.797l-0.005-0.003z"></path>
<path fill="#010101" d="M14.304 20.8c-0.288 0.136-0.36 0.56-0.36 0.872v5.44c0.064 0 0.12-0.080 0.176-0.112l4.336-2.048c0.443-0.248 0.739-0.713 0.744-1.247v-5.305z"></path>
<path fill="#231f20" d="M19.768 1.6h-15.768v29.6h24v-21.944zM26.4 28.8h-20.8v-25.6h13.6v7.2h7.2z"></path>
<path fill="#010101" d="M22.048 13.024c-0.492-0.412-0.803-1.027-0.803-1.714 0-0.039 0.001-0.077 0.003-0.115l-0 0.005h-0.712c0 0.002 0 0.004 0 0.006 0 0.9 0.381 1.711 0.99 2.28l0.002 0.002c0.649 0.567 1.504 0.912 2.44 0.912 0.011 0 0.022-0 0.034-0h-0.002v-0.664c-0.735-0.1-1.395-0.352-1.971-0.723l0.019 0.011z"></path>
<path fill="#010101" d="M20.912 14.072c-0.773-0.579-1.267-1.493-1.267-2.523 0-0.123 0.007-0.245 0.021-0.364l-0.001 0.015h-0.712c-0.005 0.075-0.008 0.163-0.008 0.251 0 1.243 0.567 2.354 1.457 3.088l0.007 0.005c0.98 0.79 2.221 1.291 3.577 1.359l0.015 0.001v-0.664c-1.181-0.039-2.254-0.473-3.096-1.175l0.008 0.007z"></path>
<path fill="#010101" d="M19.784 15.048c-1.080-0.979-1.775-2.367-1.84-3.917l-0-0.011h-0.576c0 0.003 0 0.006 0 0.009 0 1.755 0.74 3.338 1.925 4.452l0.003 0.003c1.238 1.127 2.89 1.818 4.703 1.824h0.001v-0.608c-1.617-0.182-3.059-0.813-4.231-1.764l0.015 0.012z"></path>
</svg>
