<!-- Generated by IcoMoon.io -->
<svg version="1.1" xmlns="http://www.w3.org/2000/svg" width="32" height="32" viewBox="0 0 32 32">
<title>icons_gears</title>
<path d="M24.021 15.972c0.225 0.105 0.489 0.167 0.767 0.167 1.021 0 1.849-0.828 1.849-1.849s-0.828-1.849-1.849-1.849c-0.739 0-1.376 0.433-1.672 1.059l-0.005 0.011c-0.108 0.228-0.172 0.496-0.172 0.778 0 0.743 0.438 1.384 1.071 1.678l0.011 0.005zM23.559 13.732c0.216-0.47 0.683-0.79 1.224-0.79 0.742 0 1.344 0.602 1.344 1.344s-0.602 1.344-1.344 1.344c-0.202 0-0.393-0.044-0.564-0.124l0.008 0.003c-0.469-0.217-0.788-0.683-0.788-1.224 0-0.201 0.044-0.391 0.123-0.563l-0.003 0.008z"></path>
<path d="M20.75 15.076l0.469 1.237c0.040 0.116 0.149 0.198 0.276 0.198 0.039 0 0.076-0.008 0.11-0.021l-0.002 0.001 0.512-0.199c0.138 0.182 0.285 0.342 0.445 0.488l0.003 0.003-0.228 0.505c-0.013 0.031-0.020 0.068-0.020 0.106 0 0.13 0.085 0.24 0.203 0.278l0.002 0.001 1.209 0.548c0.039 0.023 0.086 0.036 0.135 0.036 0.111 0 0.206-0.067 0.248-0.163l0.001-0.002 0.22-0.491c0.107 0.010 0.23 0.016 0.356 0.016s0.249-0.006 0.371-0.017l-0.016 0.001 0.185 0.491c0.041 0.124 0.156 0.211 0.291 0.211 0.039 0 0.075-0.007 0.109-0.020l-0.002 0.001 1.237-0.469c0.115-0.046 0.195-0.156 0.195-0.285 0-0.043-0.009-0.085-0.025-0.122l0.001 0.002-0.178-0.476c0.188-0.148 0.356-0.304 0.509-0.473l0.003-0.003 0.462 0.206c0.035 0.016 0.076 0.026 0.119 0.026 0.12 0 0.223-0.075 0.265-0.18l0.001-0.002 0.548-1.209c0.022-0.041 0.035-0.090 0.035-0.142 0-0.117-0.065-0.218-0.161-0.27l-0.002-0.001-0.462-0.206c0.011-0.107 0.017-0.23 0.017-0.356s-0.006-0.249-0.018-0.371l0.001 0.016 0.469-0.171c0.12-0.041 0.205-0.152 0.205-0.284 0-0.039-0.007-0.076-0.021-0.11l0.001 0.002-0.469-1.237c-0.046-0.115-0.156-0.195-0.285-0.195-0.043 0-0.085 0.009-0.122 0.025l0.002-0.001-0.484 0.185c-0.147-0.186-0.303-0.351-0.473-0.501l-0.004-0.003 0.213-0.476c0.020-0.040 0.032-0.087 0.032-0.136 0-0.121-0.070-0.226-0.172-0.275l-0.002-0.001-1.209-0.548c-0.039-0.018-0.084-0.028-0.132-0.028-0.129 0-0.24 0.074-0.294 0.182l-0.001 0.002-0.22 0.484c-0.1-0.010-0.217-0.015-0.334-0.015s-0.234 0.006-0.349 0.016l0.015-0.001-0.192-0.512c-0.042-0.113-0.149-0.192-0.274-0.192-0.040 0-0.077 0.008-0.112 0.022l0.002-0.001-1.23 0.469c-0.118 0.039-0.201 0.149-0.201 0.277 0 0.041 0.009 0.080 0.024 0.116l-0.001-0.002 0.206 0.519c-0.179 0.138-0.337 0.285-0.481 0.445l-0.003 0.003-0.512-0.235c-0.034-0.014-0.074-0.022-0.116-0.022-0.13 0-0.241 0.079-0.288 0.191l-0.001 0.002-0.548 1.209c-0.019 0.038-0.030 0.082-0.030 0.129 0 0.121 0.073 0.224 0.178 0.268l0.002 0.001 0.519 0.235c-0.010 0.1-0.015 0.217-0.015 0.334s0.006 0.234 0.017 0.349l-0.001-0.015-0.526 0.199c-0.133 0.029-0.232 0.145-0.232 0.285 0 0.043 0.009 0.085 0.027 0.122l-0.001-0.002zM22.585 13.262c0.392-0.853 1.24-1.435 2.223-1.435 1.347 0 2.439 1.092 2.439 2.439s-1.092 2.439-2.439 2.439c-0.357 0-0.695-0.077-1.001-0.214l0.015 0.006c-0.862-0.389-1.451-1.241-1.451-2.23 0-0.362 0.079-0.705 0.22-1.014l-0.006 0.015z"></path>
<path d="M26.56 23.694c-0.297-0.138-0.644-0.218-1.011-0.218-1.355 0-2.453 1.098-2.453 2.453s1.098 2.453 2.453 2.453c0.987 0 1.838-0.583 2.228-1.424l0.006-0.015c0.139-0.298 0.22-0.647 0.22-1.014 0-0.989-0.585-1.841-1.427-2.229l-0.015-0.006zM27.172 26.667c-0.287 0.624-0.907 1.049-1.626 1.049-0.986 0-1.785-0.799-1.785-1.785s0.799-1.785 1.785-1.785c0.267 0 0.521 0.059 0.748 0.164l-0.011-0.005c0.62 0.289 1.042 0.907 1.042 1.623 0 0.268-0.059 0.521-0.164 0.749l0.005-0.011z"></path>
<path d="M30.62 26.766l-0.612-0.277c0.013-0.136 0.020-0.295 0.020-0.455s-0.007-0.319-0.022-0.475l0.002 0.020 0.626-0.228c0.161-0.054 0.275-0.203 0.275-0.379 0-0.051-0.009-0.099-0.027-0.143l0.001 0.003-0.619-1.643c-0.060-0.153-0.207-0.259-0.378-0.259-0.056 0-0.11 0.011-0.158 0.032l-0.637 0.241c-0.195-0.246-0.402-0.465-0.627-0.664l-0.005-0.005 0.284-0.626c0.028-0.053 0.045-0.116 0.045-0.183 0-0.162-0.096-0.301-0.234-0.363l-0.003-0.001-1.6-0.711c-0.052-0.024-0.112-0.038-0.176-0.038-0.169 0-0.316 0.099-0.385 0.242l-0.001 0.003-0.292 0.64c-0.133-0.013-0.288-0.021-0.444-0.021s-0.311 0.007-0.464 0.022l0.019-0.002-0.249-0.711c-0.054-0.151-0.196-0.258-0.363-0.258-0.054 0-0.105 0.011-0.152 0.031l0.003-0.001-1.643 0.619c-0.154 0.055-0.262 0.199-0.262 0.369 0 0.051 0.010 0.101 0.028 0.146l-0.001-0.003 0.27 0.711c-0.237 0.182-0.446 0.375-0.636 0.586l-0.004 0.004-0.711-0.306c-0.047-0.020-0.101-0.031-0.158-0.031-0.172 0-0.32 0.106-0.382 0.256l-0.001 0.003-0.711 1.6c-0.025 0.050-0.040 0.108-0.040 0.171 0 0.16 0.098 0.297 0.237 0.355l0.003 0.001 0.711 0.313c-0.013 0.132-0.020 0.286-0.020 0.441s0.007 0.309 0.022 0.46l-0.001-0.019-0.711 0.263c-0.152 0.056-0.258 0.2-0.258 0.368 0 0.055 0.011 0.107 0.031 0.154l-0.001-0.003 0.619 1.643c0.055 0.154 0.199 0.262 0.369 0.262 0.051 0 0.101-0.010 0.146-0.028l-0.003 0.001 0.711-0.263c0.182 0.239 0.375 0.451 0.587 0.644l0.004 0.003-0.306 0.668c-0.018 0.043-0.029 0.093-0.029 0.145 0 0.172 0.112 0.317 0.268 0.366l0.003 0.001 1.6 0.711c0.053 0.033 0.117 0.052 0.185 0.052 0.146 0 0.271-0.088 0.326-0.213l0.001-0.002 0.299-0.654c0.197 0.027 0.424 0.042 0.656 0.042 0.090 0 0.179-0.002 0.267-0.007l-0.012 0 0.242 0.647c0.056 0.161 0.207 0.275 0.384 0.275 0.051 0 0.1-0.009 0.145-0.027l-0.003 0.001 1.643-0.619c0.153-0.060 0.259-0.207 0.259-0.378 0-0.056-0.011-0.11-0.032-0.158l0.001 0.003-0.235-0.633c0.263-0.196 0.496-0.404 0.709-0.63l0.003-0.003 0.612 0.277c0.048 0.024 0.104 0.038 0.164 0.038 0.159 0 0.295-0.101 0.347-0.242l0.001-0.003 0.711-1.6c0.028-0.054 0.045-0.118 0.045-0.186 0-0.176-0.113-0.326-0.27-0.382l-0.003-0.001zM28.523 27.25c-0.518 1.138-1.645 1.914-2.953 1.914-1.787 0-3.236-1.449-3.236-3.236s1.449-3.236 3.236-3.236c0.485 0 0.946 0.107 1.359 0.299l-0.020-0.008c1.128 0.522 1.896 1.644 1.896 2.945 0 0.479-0.104 0.933-0.29 1.342l0.008-0.020z"></path>
<path d="M11.584 15.154c-2.612 0-4.729 2.117-4.729 4.729s2.117 4.729 4.729 4.729c2.602 0 4.713-2.101 4.729-4.699v-0.002c0-0.008 0-0.018 0-0.028 0-2.612-2.117-4.729-4.729-4.729-0 0-0 0-0 0v0zM11.584 23.31c-1.893-0-3.427-1.535-3.427-3.428s1.535-3.428 3.428-3.428 3.428 1.535 3.428 3.428c0 0.010-0 0.020-0 0.030v-0.002c-0.020 1.879-1.546 3.395-3.427 3.399h-0z"></path>
<path d="M20.096 24.889l-0.924-0.846c0.284-0.519 0.512-1.223 0.711-1.564h1.294c0.502-0.046 0.902-0.429 0.974-0.919l0.001-0.006v-3.406c-0.081-0.471-0.486-0.825-0.974-0.825h-1.323c-0.173-0.616-0.416-1.155-0.726-1.647l0.015 0.026 0.917-0.903c0.146-0.14 0.237-0.337 0.237-0.555s-0.091-0.415-0.237-0.554l-0-0-2.389-2.389c-0.142-0.145-0.34-0.234-0.558-0.234s-0.416 0.090-0.558 0.234l-0 0-0.825 0.932c-0.512-0.277-1.18-0.498-1.529-0.661v-1.308c0-0.448-0.54-0.818-0.988-0.818h-3.328c-0.427 0.012-0.769 0.36-0.769 0.789 0 0.010 0 0.020 0.001 0.030l-0-0.001v1.358c-0.341 0.171-1.095 0.398-1.593 0.668l-0.996-0.996c-0.137-0.145-0.33-0.235-0.544-0.235s-0.407 0.090-0.544 0.235l-0 0-2.396 2.404c-0.155 0.131-0.253 0.326-0.253 0.544s0.098 0.413 0.252 0.543l0.001 0.001 1.010 0.981c-0.263 0.498-0.484 1.202-0.647 1.55h-1.422c-0.4 0.025-0.714 0.356-0.714 0.759 0 0.023 0.001 0.046 0.003 0.068l-0-0.003v3.385c0 0.448 0.277 0.924 0.711 0.924h1.422c0.164 0.341 0.384 0.996 0.647 1.493l-1.017 0.981c-0.148 0.131-0.241 0.321-0.241 0.533s0.093 0.402 0.24 0.533l0.001 0.001 2.396 2.382c0.131 0.155 0.326 0.253 0.544 0.253s0.413-0.098 0.543-0.252l0.001-0.001 1.010-1.010c0.498 0.27 1.244 0.491 1.586 0.661v1.422c-0.001 0.012-0.001 0.025-0.001 0.038 0 0.439 0.337 0.799 0.766 0.836l0.003 0h3.378c0.499-0.021 0.906-0.389 0.988-0.869l0.001-0.006v-1.38c0.341-0.164 1.003-0.384 1.515-0.661l0.889 0.939c0.137 0.145 0.33 0.235 0.544 0.235s0.407-0.090 0.544-0.235l0-0 2.375-2.389c0.124-0.138 0.2-0.321 0.2-0.522 0-0.212-0.084-0.404-0.221-0.545l0 0zM11.634 26.084c-3.433-0.004-6.215-2.788-6.215-6.222 0-3.436 2.786-6.222 6.222-6.222s6.222 2.786 6.222 6.222v0c-0.020 3.425-2.801 6.194-6.229 6.194-0 0-0 0-0 0v0z"></path>
</svg>
