<!-- Generated by IcoMoon.io -->
<svg version="1.1" xmlns="http://www.w3.org/2000/svg" width="32" height="32" viewBox="0 0 32 32">
<title>icons_map</title>
<path stroke-linejoin="miter" stroke-linecap="butt" stroke-miterlimit="10" stroke-width="0.8" stroke="#000" fill="#000" d="M15.856 2.264c-4.128 0-7.48 4-7.48 8.104 0 0.8 7.48 19.76 7.48 19.76l7.344-19.328c0.112 0 0.176-0.8 0.176-1.32-0.020-3.992-3.261-7.221-7.256-7.221-0.093 0-0.185 0.002-0.277 0.005l0.013-0zM15.856 13.296c-1.767 0-3.2-1.433-3.2-3.2s1.433-3.2 3.2-3.2c1.767 0 3.2 1.433 3.2 3.2v0c0 1.767-1.433 3.2-3.2 3.2v0z"></path>
</svg>
