<!-- Generated by IcoMoon.io -->
<svg version="1.1" xmlns="http://www.w3.org/2000/svg" width="32" height="32" viewBox="0 0 32 32">
<title>icons_search</title>
<path d="M28.706 24.838l-4.132-4.132c1.208-1.877 1.927-4.169 1.927-6.629 0-6.83-5.537-12.367-12.367-12.367s-12.367 5.537-12.367 12.367c0 6.83 5.537 12.367 12.367 12.367 2.46 0 4.752-0.718 6.678-1.956l-0.049 0.030 4.132 4.132c0.496 0.54 1.205 0.878 1.993 0.878 1.492 0 2.701-1.209 2.701-2.701 0-0.786-0.336-1.493-0.871-1.987l-0.002-0.002zM8.339 19.915c-1.488-1.489-2.409-3.545-2.409-5.816 0-4.543 3.683-8.226 8.226-8.226s8.226 3.683 8.226 8.226c0 4.543-3.683 8.226-8.226 8.226-0.013 0-0.027-0-0.040-0h0.002c-2.259-0.006-4.301-0.926-5.779-2.409l-0-0z"></path>
</svg>
