<!-- Generated by IcoMoon.io -->
<svg version="1.1" xmlns="http://www.w3.org/2000/svg" width="32" height="32" viewBox="0 0 32 32">
<title>icons_columns</title>
<path d="M26.027 2.347h-20.836c-2.133 0-3.84 1.707-3.84 3.84v21.191c0 2.133 1.707 3.84 3.84 3.84h20.836c2.133 0 3.84-1.707 3.84-3.84v-21.191c0-2.133-1.707-3.84-3.84-3.84zM27.947 6.187v1.92h-7.324v-3.84h5.476c0.996 0 1.849 0.853 1.849 1.92zM11.947 8.107v-3.84h7.396v3.84h-7.396zM19.271 9.387v19.911h-7.324v-19.911h7.324zM5.191 4.267h5.476v3.84h-7.396v-1.92c0-1.067 0.853-1.92 1.92-1.92zM3.271 27.378v-17.991h7.396v19.911h-5.476c-1.067 0-1.92-0.853-1.92-1.92zM26.027 29.298h-5.476v-19.911h7.396v17.991c0 1.067-0.853 1.92-1.92 1.92zM4.551 13.582c0-0.356 0.284-0.64 0.64-0.64h3.556c0.356 0 0.64 0.284 0.64 0.64s-0.284 0.64-0.64 0.64h-3.556c-0.356 0-0.64-0.284-0.64-0.64zM9.387 17.422c0 0.356-0.284 0.64-0.64 0.64h-3.556c-0.356 0-0.64-0.284-0.64-0.64s0.284-0.64 0.64-0.64h3.556c0.356 0 0.64 0.284 0.64 0.64zM9.387 21.262c0 0.356-0.284 0.64-0.64 0.64h-3.556c-0.356 0-0.64-0.284-0.64-0.64s0.284-0.64 0.64-0.64h3.556c0.356 0 0.64 0.284 0.64 0.64zM9.387 25.173c0 0.356-0.284 0.64-0.64 0.64h-3.556c-0.356 0-0.64-0.284-0.64-0.64s0.284-0.64 0.64-0.64h3.556c0.356 0 0.64 0.284 0.64 0.64zM13.227 13.582c0-0.356 0.284-0.64 0.64-0.64h3.556c0.356 0 0.64 0.284 0.64 0.64s-0.356 0.64-0.711 0.64h-3.556c-0.284 0-0.569-0.284-0.569-0.64zM13.227 17.422c0-0.356 0.284-0.64 0.64-0.64h3.556c0.356 0 0.64 0.284 0.64 0.64s-0.284 0.64-0.64 0.64h-3.556c-0.356 0-0.64-0.284-0.64-0.64zM13.227 21.262c0-0.356 0.284-0.64 0.64-0.64h3.556c0.356 0 0.64 0.284 0.64 0.64s-0.284 0.64-0.64 0.64h-3.556c-0.356 0-0.64-0.284-0.64-0.64zM17.991 25.173c0 0.356-0.284 0.64-0.64 0.64h-3.556c-0.356 0-0.64-0.284-0.64-0.64s0.284-0.64 0.64-0.64h3.556c0.356 0 0.64 0.284 0.64 0.64zM26.667 13.582c0 0.356-0.284 0.64-0.64 0.64h-3.556c-0.356 0-0.64-0.284-0.64-0.64s0.284-0.64 0.64-0.64h3.556c0.356 0 0.64 0.284 0.64 0.64zM26.667 17.422c0 0.356-0.284 0.64-0.64 0.64h-3.556c-0.356 0-0.64-0.284-0.64-0.64s0.284-0.64 0.64-0.64h3.556c0.356 0 0.64 0.284 0.64 0.64zM26.667 21.262c0 0.356-0.284 0.64-0.64 0.64h-3.556c-0.356 0-0.64-0.284-0.64-0.64s0.284-0.64 0.64-0.64h3.556c0.356 0 0.64 0.284 0.64 0.64zM26.667 25.173c0 0.356-0.284 0.64-0.64 0.64h-3.556c-0.356 0-0.64-0.284-0.64-0.64s0.284-0.64 0.64-0.64h3.556c0.356 0 0.64 0.284 0.64 0.64z"></path>
</svg>
