<!-- Generated by IcoMoon.io -->
<svg version="1.1" xmlns="http://www.w3.org/2000/svg" width="32" height="32" viewBox="0 0 32 32">
<title>icons_permissions</title>
<path d="M5.611 12.089c-1.516 0-2.745 1.229-2.745 2.745s1.229 2.745 2.745 2.745c1.516 0 2.745-1.229 2.745-2.745v0c0-0.004 0-0.009 0-0.014 0-1.508-1.223-2.731-2.731-2.731-0.005 0-0.010 0-0.015 0h0.001z"></path>
<path d="M8.299 25.287l-0.121-0.092v-2.716c-0-0.015-0-0.033-0-0.051 0-1.028 0.207-2.008 0.58-2.9l-0.018 0.050c-0.814-0.754-1.907-1.216-3.108-1.216-0.005 0-0.010 0-0.015 0h0.001c-2.573 0.028-4.651 2.106-4.679 4.676l-0 0.003v1.465c1.283 0.691 2.808 1.098 4.428 1.098 0.076 0 0.152-0.001 0.227-0.003l-0.011 0c0.965-0.003 1.901-0.117 2.8-0.33l-0.083 0.017z"></path>
<path d="M26.567 17.586c1.516 0 2.745-1.229 2.745-2.745s-1.229-2.745-2.745-2.745c-1.516 0-2.745 1.229-2.745 2.745v0c0.012 1.511 1.234 2.733 2.744 2.745h0.001z"></path>
<path d="M24.014 25.195l-0.128 0.092c0.804 0.196 1.729 0.31 2.679 0.313h0.002c0.084 0.003 0.182 0.004 0.281 0.004 1.594 0 3.096-0.393 4.415-1.089l-0.052 0.025v-1.465c0-0.002 0-0.004 0-0.006 0-2.561-2.076-4.636-4.636-4.636-1.208 0-2.307 0.462-3.132 1.218l0.003-0.003c0.347 0.859 0.552 1.855 0.562 2.898l0 0.004z"></path>
<path d="M11.819 10.254c0 2.356 1.91 4.267 4.267 4.267s4.267-1.91 4.267-4.267c0-2.356-1.91-4.267-4.267-4.267v0c-2.356 0-4.267 1.91-4.267 4.267v0z"></path>
<path d="M23.232 24.789v-2.276c0-3.943-3.197-7.14-7.14-7.14s-7.14 3.197-7.14 7.14v0 2.276c1.65 1.060 4.302 1.685 7.111 1.685 0.131 0.004 0.285 0.007 0.44 0.007 2.464 0 4.782-0.627 6.803-1.729l-0.074 0.037z"></path>
</svg>
