<!-- Generated by IcoMoon.io -->
<svg version="1.1" xmlns="http://www.w3.org/2000/svg" width="32" height="32" viewBox="0 0 32 32">
<title>icons_bulk</title>
<path fill="#231f20" d="M21.84 0.8h-13.040v24.8h20v-18.128zM27.2 24h-16.8v-20.8h11.2v5.6h5.6z"></path>
<path fill="#231f20" d="M13.6 10.4h9.6v1.6h-9.6v-1.6z"></path>
<path fill="#231f20" d="M13.6 13.6h9.6v1.6h-9.6v-1.6z"></path>
<path fill="#231f20" d="M13.6 16.8h9.6v1.6h-9.6v-1.6z"></path>
<path fill="#231f20" d="M13.6 20h9.6v1.6h-9.6v-1.6z"></path>
<path fill="#fff" d="M24.584 27.088h-17.656v-21.808h11.6l6.056 6.272v15.536z"></path>
<path fill="#781a15" d="M18.64 3.2h-13.040v24.8h20v-18.128zM24 26.4h-16.8v-20.8h11.2v5.6h5.6z"></path>
<path fill="#781a15" d="M10.4 12.8h9.6v1.6h-9.6v-1.6z"></path>
<path fill="#781a15" d="M10.4 16h9.6v1.6h-9.6v-1.6z"></path>
<path fill="#781a15" d="M10.4 19.2h9.6v1.6h-9.6v-1.6z"></path>
<path fill="#781a15" d="M10.4 22.4h9.6v1.6h-9.6v-1.6z"></path>
<path fill="#fff" d="M20.584 30.288h-17.656v-21.808h11.6l6.056 6.272v15.536z"></path>
<path fill="#781a15" d="M14.64 6.4h-13.040v24.8h20v-18.128zM20 29.6h-16.8v-20.8h11.2v5.6h5.6z"></path>
<path fill="#781a15" d="M6.4 16h9.6v1.6h-9.6v-1.6z"></path>
<path fill="#781a15" d="M6.4 19.2h9.6v1.6h-9.6v-1.6z"></path>
<path fill="#781a15" d="M6.4 22.4h9.6v1.6h-9.6v-1.6z"></path>
<path fill="#781a15" d="M6.4 25.6h9.6v1.6h-9.6v-1.6z"></path>
</svg>
