<!-- Generated by IcoMoon.io -->
<svg version="1.1" xmlns="http://www.w3.org/2000/svg" width="32" height="32" viewBox="0 0 32 32">
<title>icons_add_space</title>
<path fill="#000" d="M18.96 1.6h-15.76v29.6h24v-21.92l-8.24-7.68zM25.6 29.6h-1.2l-1.76 1.6h-4.88l-1.68-1.6h-11.28v-25.6h13.6v6.4h7.2v10.32l1.6 1.12v4.88l-1.6 1.040v1.84z"></path>
<path fill="#000" d="M8.8 12.8h12v1.6h-12v-1.6z"></path>
<path fill="#000" d="M8.8 18.4h8l0.8-1.6h-8.8z"></path>
<path fill="#000" d="M8.8 20.8h4.8v1.6h-4.8v-1.6z"></path>
<path fill="#000" d="M8.8 24.8h4v1.6h-4v-1.6z"></path>
<path fill="#781a15" d="M27.76 24c0 4.32-3.52 7.76-7.76 7.76s-7.76-3.52-7.76-7.76 3.52-7.76 7.76-7.76 7.76 3.44 7.76 7.76zM20 17.6c-3.52 0-6.4 2.88-6.4 6.4 0 2.24 1.2 4.24 2.96 5.36 1.040 0.64 2.16 1.040 3.44 1.040 3.52 0 6.4-2.88 6.4-6.4s-2.88-6.4-6.4-6.4z"></path>
<path fill="#781a15" d="M15.2 23.2h9.6v1.6h-9.6v-1.6z"></path>
<path fill="#781a15" d="M19.2 19.2h1.6v9.6h-1.6v-9.6z"></path>
</svg>
