<!-- Generated by IcoMoon.io -->
<svg version="1.1" xmlns="http://www.w3.org/2000/svg" width="32" height="32" viewBox="0 0 32 32">
<title>icons_icon-sensory_data</title>
<path d="M8.734 10.447l5.647 2.588c0.399 0.162 0.861 0.256 1.346 0.256s0.947-0.094 1.371-0.264l-0.025 0.009 4.706-2.184 7.793-3.718c-0.148-0.114-0.314-0.218-0.491-0.303l-0.017-0.007-11.332-5.233c-0.598-0.242-1.292-0.382-2.019-0.382s-1.421 0.14-2.056 0.395l0.037-0.013-11.36 5.233c-0.197 0.097-0.367 0.207-0.523 0.333l0.005-0.004 6.918 3.294z"></path>
<path d="M15.172 16.772c-0.047-0.915-0.574-1.696-1.332-2.102l-0.014-0.007-8.584-3.934-3.896-1.807v13.336c0.070 1.37 0.863 2.541 2.003 3.143l0.021 0.010 11.36 5.233 0.329 0.122 0.113-6.936v-7.059z"></path>
<path d="M26.795 10.673v0l-8.584 3.953c-0.768 0.412-1.294 1.188-1.346 2.092l-0 0.007v14.099c0.178-0.053 0.328-0.111 0.472-0.178l-0.021 0.009 11.313-5.242c1.16-0.612 1.953-1.783 2.023-3.144l0-0.009v-13.365z"></path>
</svg>
