<!-- Generated by IcoMoon.io -->
<svg version="1.1" xmlns="http://www.w3.org/2000/svg" width="32" height="32" viewBox="0 0 32 32">
<title>icons_info-hands</title>
<path fill="#e2dfd8" d="M2.888 6.088c0.297-0.35 0.733-0.573 1.222-0.584l0.002-0c0.502 0.016 0.949 0.238 1.263 0.583l0.001 0.001c0.372 0.421 0.599 0.977 0.599 1.586 0 0.064-0.003 0.127-0.007 0.19l0.001-0.008v6.72c-0.519 0.077-0.976 0.3-1.338 0.626l0.002-0.002c-0.365 0.259-0.608 0.671-0.632 1.14l-0 0.004c-0 0.009-0 0.020-0 0.031 0 0.327 0.102 0.629 0.276 0.878l-0.003-0.005 2.248 3.728v-0.392l-2.080-3.44c-0.166-0.201-0.269-0.46-0.272-0.743v-0.001c-0-0.004-0-0.008-0-0.013 0-0.234 0.072-0.451 0.195-0.631l-0.003 0.004c0.143-0.219 0.316-0.404 0.515-0.556l0.005-0.004c0.207-0.144 0.446-0.263 0.701-0.347l0.019-0.005c0.204-0.081 0.439-0.13 0.685-0.136l0.003-0c0.436 0.005 0.82 0.224 1.053 0.556l0.003 0.004 5.288 7.2c0.367 0.539 0.645 1.172 0.793 1.852l0.007 0.036c0.143 0.595 0.224 1.279 0.224 1.982 0 0.020-0 0.041-0 0.061l0-0.003v4.248h-6.568v-3.552c0-0.002 0-0.004 0-0.006 0-0.373-0.095-0.724-0.262-1.029l0.006 0.011c-0.13-0.248-0.252-0.452-0.384-0.649l0.016 0.025q-1.4-2.008-2.24-3.2c-0.395-0.553-0.808-1.201-1.188-1.87l-0.060-0.114c-0.21-0.36-0.39-0.777-0.518-1.216l-0.010-0.040c-0.071-0.299-0.112-0.641-0.112-0.994 0-0.016 0-0.032 0-0.049l-0 0.002v-10.112c-0.005-0.057-0.007-0.124-0.007-0.191 0-0.6 0.211-1.151 0.563-1.582l-0.004 0.005z"></path>
<path fill="#e2dfd8" d="M30.84 17.944c0 0.011 0 0.023 0 0.036 0 0.356-0.041 0.702-0.118 1.035l0.006-0.031c-0.137 0.478-0.319 0.895-0.549 1.28l0.013-0.024c-0.28 0.512-0.688 1.168-1.224 1.984s-1.256 1.88-2.168 3.2c-0.145 0.179-0.266 0.385-0.354 0.608l-0.006 0.016c-0.131 0.295-0.208 0.64-0.208 1.003 0 0.007 0 0.015 0 0.022v-0.001 3.544h-6.568v-4.216c0.010-0.717 0.103-1.408 0.269-2.070l-0.013 0.062c0.155-0.716 0.432-1.349 0.812-1.907l-0.012 0.019 5.208-7.2c0.244-0.341 0.638-0.56 1.083-0.56 0.004 0 0.009 0 0.013 0h-0.001c0.519 0.022 0.988 0.218 1.355 0.531l-0.003-0.003c0.407 0.285 0.673 0.746 0.688 1.27l0 0.002c0.001 0.012 0.001 0.027 0.001 0.042 0 0.221-0.076 0.424-0.202 0.584l0.002-0.002-2.12 3.44v0.392l2.248-3.728c0.068-0.108 0.123-0.233 0.158-0.367l0.002-0.009c0.006-0.056 0.010-0.122 0.010-0.188s-0.003-0.132-0.010-0.196l0.001 0.008c0.001-0.019 0.001-0.041 0.001-0.063 0-0.497-0.213-0.944-0.552-1.256l-0.001-0.001c-0.329-0.331-0.761-0.559-1.244-0.631l-0.012-0.001v-6.712c-0.005-0.058-0.007-0.125-0.007-0.192 0-0.598 0.208-1.148 0.555-1.581l-0.004 0.005c0.282-0.356 0.715-0.582 1.2-0.582s0.918 0.226 1.198 0.579l0.002 0.003c0.343 0.43 0.551 0.981 0.551 1.581 0 0.066-0.003 0.131-0.007 0.196l0.001-0.009v10.088z"></path>
<path fill="#010101" d="M16.8 15.76c0.021 0 0.047 0 0.072 0 4.131 0 7.48-3.349 7.48-7.48s-3.349-7.48-7.48-7.48c-4.131 0-7.48 3.349-7.48 7.48 0 0.003 0 0.005 0 0.008v-0c-0 0.007-0 0.016-0 0.024 0 4.099 3.312 7.425 7.406 7.448h0.002zM16.8 2.52c0.014-0 0.031-0 0.048-0 3.177 0 5.752 2.575 5.752 5.752s-2.575 5.752-5.752 5.752c-3.174 0-5.747-2.571-5.752-5.743v-0c-0-0.012-0-0.026-0-0.040 0-3.154 2.552-5.711 5.703-5.72h0.001z"></path>
<path fill="#010101" d="M18.192 11.92c-0.080 0-0.152-0.096-0.152-0.216v-5.104h-3.2v0.656h0.576c0.084 0 0.152 0.068 0.152 0.152v0 4.36c0 0.084-0.068 0.152-0.152 0.152v0h-0.576v0.68h3.96v-0.68z"></path>
<path fill="#010101" d="M18.176 4.792c0 0.756-0.612 1.368-1.368 1.368s-1.368-0.612-1.368-1.368c0-0.756 0.612-1.368 1.368-1.368s1.368 0.612 1.368 1.368z"></path>
</svg>
