<!-- Generated by IcoMoon.io -->
<svg version="1.1" xmlns="http://www.w3.org/2000/svg" width="32" height="32" viewBox="0 0 32 32">
<title>icons_columns</title>
<path d="M26.048 2.354h-20.864c-2.124 0.008-3.843 1.73-3.847 3.854v21.184c0.004 2.127 1.727 3.85 3.854 3.854h20.857c2.127-0.004 3.85-1.727 3.854-3.854v-21.184c-0.004-2.127-1.727-3.85-3.854-3.854h-0zM27.975 6.208v1.927h-7.381v-3.868h5.454c1.065 0.004 1.927 0.868 1.927 1.934 0 0.003 0 0.005 0 0.008v-0zM11.925 8.135v-3.868h7.381v3.854zM19.307 9.422v19.911h-7.381v-19.911zM5.184 4.267h5.454v3.854h-7.381v-1.913c0-0.002 0-0.005 0-0.007 0-1.066 0.862-1.93 1.927-1.934h0zM3.257 27.392v-17.977h7.381v19.911h-5.454c-1.065-0.004-1.927-0.868-1.927-1.934 0 0 0 0 0 0v0zM26.012 29.319h-5.419v-19.911h7.381v17.984c-0.008 1.060-0.867 1.916-1.927 1.92h-0zM4.544 13.589c0.004-0.352 0.288-0.636 0.64-0.64h3.556c0.355 0 0.644 0.288 0.644 0.644s-0.288 0.644-0.644 0.644v0h-3.556c-0.354-0.004-0.64-0.292-0.64-0.647 0 0 0-0 0-0v0zM9.358 17.444c-0.004 0.352-0.288 0.636-0.64 0.64h-3.556c-0.355 0-0.644-0.288-0.644-0.644s0.288-0.644 0.644-0.644v0h3.556c0.354 0.004 0.64 0.292 0.64 0.647 0 0 0 0 0 0v0zM9.358 21.298c-0.004 0.352-0.288 0.636-0.64 0.64h-3.556c-0.355 0-0.644-0.288-0.644-0.644s0.288-0.644 0.644-0.644v0h3.556c0.352 0.004 0.636 0.288 0.64 0.64v0zM9.358 25.152c-0.004 0.352-0.288 0.636-0.64 0.64h-3.556c-0.355 0-0.644-0.288-0.644-0.644s0.288-0.644 0.644-0.644h3.556c0.352 0.004 0.636 0.288 0.64 0.64v0zM13.212 13.596c0.004-0.352 0.288-0.636 0.64-0.64h3.556c0.355 0 0.644 0.288 0.644 0.644s-0.288 0.644-0.644 0.644v0h-3.541c-0.004 0-0.009 0-0.014 0-0.357 0-0.647-0.29-0.647-0.647 0-0.003 0-0.005 0-0.008v0zM13.212 17.451c0.004-0.352 0.288-0.636 0.64-0.64h3.556c0.355 0 0.644 0.288 0.644 0.644s-0.288 0.644-0.644 0.644v0h-3.541c-0.004 0-0.009 0-0.014 0-0.357 0-0.647-0.29-0.647-0.647 0-0.003 0-0.005 0-0.008v0zM13.212 21.305c-0.001-0.011-0.001-0.023-0.001-0.036 0-0.357 0.29-0.647 0.647-0.647 0.003 0 0.006 0 0.009 0h3.555c0.355 0 0.644 0.288 0.644 0.644s-0.288 0.644-0.644 0.644v0h-3.556c-0.004 0-0.010 0-0.015 0-0.347 0-0.631-0.274-0.646-0.617l-0-0.001zM18.027 25.159c-0.004 0.352-0.288 0.636-0.64 0.64h-3.52c-0.355 0-0.644-0.288-0.644-0.644s0.288-0.644 0.644-0.644h3.556c0.331 0.026 0.591 0.298 0.597 0.632v0.001zM26.667 13.589c-0.004 0.352-0.288 0.636-0.64 0.64h-3.556c-0.355 0-0.644-0.288-0.644-0.644s0.288-0.644 0.644-0.644v0h3.556c0.354 0.004 0.64 0.292 0.64 0.647 0 0 0 0 0 0v0zM26.667 17.444c-0.004 0.352-0.288 0.636-0.64 0.64h-3.556c-0.355 0-0.644-0.288-0.644-0.644s0.288-0.644 0.644-0.644v0h3.556c0.354 0.004 0.64 0.292 0.64 0.647 0 0 0 0 0 0v0zM26.667 21.298c-0.004 0.352-0.288 0.636-0.64 0.64h-3.556c-0.355 0-0.644-0.288-0.644-0.644s0.288-0.644 0.644-0.644v0h3.556c0.352 0.004 0.636 0.288 0.64 0.64v0zM26.667 25.152c-0.004 0.352-0.288 0.636-0.64 0.64h-3.556c-0.355 0-0.644-0.288-0.644-0.644s0.288-0.644 0.644-0.644h3.556c0.352 0.004 0.636 0.288 0.64 0.64v0z"></path>
</svg>
