<!-- Generated by IcoMoon.io -->
<svg version="1.1" xmlns="http://www.w3.org/2000/svg" width="32" height="32" viewBox="0 0 32 32">
<title>icons_rss</title>
<path d="M10.2 21.552c2.111 2.057 3.466 4.881 3.615 8.021l0.001 0.027h3.024c0-2.4-1.6-7.312-4.504-10.040-2.875-2.495-6.606-4.072-10.702-4.239l-0.034-0.001v2.816c3.328 0.028 6.348 1.322 8.608 3.423l-0.008-0.007z"></path>
<path d="M15.008 17.072c3.68 3.424 5.6 6.928 5.6 12.528h3.016c0-0.015 0-0.032 0-0.049 0-5.747-2.499-10.91-6.469-14.463l-0.019-0.016c-3.927-3.765-9.267-6.083-15.149-6.083-0.136 0-0.272 0.001-0.407 0.004l0.020-0v2.816c6.256 0 9.736 1.84 13.408 5.264z"></path>
<path d="M19.824 12.64c4.8 4.512 7.952 11.032 8 16.96h2.52c-0.1-7.563-3.347-14.348-8.487-19.121l-0.017-0.015c-5.544-5.232-13.984-7.864-20.24-7.872v2.704c7.050 0.188 13.421 2.944 18.245 7.363l-0.021-0.019z"></path>
</svg>
