<!-- Generated by IcoMoon.io -->
<svg version="1.1" xmlns="http://www.w3.org/2000/svg" width="32" height="32" viewBox="0 0 32 32">
<title>icons_geospatial</title>
<path fill="#231f20" d="M19.768 2.4h-15.768v28.8h24v-21.256zM26.4 29.6h-20.8v-25.6h13.6v6.4h7.2z"></path>
<path fill="#010101" d="M16.576 12.464c-0.831 0.006-1.617 0.194-2.322 0.526l0.034-0.014h0.112c0.132 0.014 0.285 0.022 0.441 0.022 0.369 0 0.727-0.046 1.069-0.133l-0.030 0.006c0.472-0.192 0.856 0.328 0.672 0.328s-0.424 0.576-0.232 0.576 0.24 0.28 0.52-0.056 0.24-0.192 0.8 0.136-0.336 0.336-0.336 0.336-0.184 0.384-0.424 0.384-0.8 0.624-0.944 1.056-0.184 0.432-0.384 0.096-0.48-0.096-0.8 0.336 0.624 0.856 0.624 0.856l0.48 0.424c0.221-0.056 0.41-0.122 0.592-0.201l-0.024 0.009c0.192-0.096 0.144 0.192 0.8 0.472s0.096 0.336 0.72 0.52c0.364 0.080 0.657 0.328 0.797 0.657l0.003 0.007-0.192 0.384-0.184 0.576c-0.221 0.115-0.379 0.323-0.423 0.571l-0.001 0.005c-0.144 0.48-0.472 0.576-0.712 0.8s0.056 0.8 0.2 1.048-0.288-0.048-0.48-0.096-0.288-0.616-0.392-0.904c-0.022-0.193-0.035-0.417-0.035-0.644s0.013-0.451 0.037-0.671l-0.002 0.027c0-0.336-0.192-0.432-0.432-0.712-0.211-0.211-0.363-0.48-0.43-0.781l-0.002-0.011c-0.144-0.528-0.056-0.664 0.088-0.8s-0.384-0.28-0.624-0.376c-0.304-0.157-0.567-0.33-0.808-0.527l0.008 0.007c-0.336-0.24-0.432-0.616-0.576-0.8-0.118-0.36-0.186-0.775-0.186-1.206 0-0.046 0.001-0.091 0.002-0.137l-0 0.007c0-0.288 0.328-0.624 0.184-0.864-0.064-0.104-0.264-0.12-0.488-0.12-1.36 1.023-2.231 2.635-2.231 4.449 0 1.087 0.312 2.101 0.853 2.958l-0.014-0.023c0.23 0.091 0.5 0.163 0.779 0.205l0.021 0.003c0.24 0 0.92-0.056 1.104 0.432s0.488 0.552 0.064 1.040l-0.136 0.152c0.846 0.541 1.879 0.863 2.986 0.863 3.093 0 5.6-2.507 5.6-5.6s-2.507-5.6-5.6-5.6c-0.046 0-0.091 0.001-0.137 0.002l0.007-0z"></path>
<path fill="#010101" d="M18.552 25.168c0.794-0.226 1.488-0.551 2.115-0.969l-0.027 0.017-0.36-0.592c-1.007 0.657-2.24 1.047-3.564 1.047-3.638 0-6.587-2.949-6.587-6.587 0-2.314 1.193-4.349 2.998-5.524l0.025-0.016-0.352-0.544c-1.542 1.032-2.65 2.608-3.055 4.448l-0.009 0.048c-0.104 0.466-0.164 1-0.164 1.549 0 3.29 2.149 6.078 5.12 7.036l0.052 0.015c-0.766 0.225-1.404 0.685-1.849 1.294l-0.007 0.010h7.152c-0.346-0.561-0.859-0.991-1.468-1.225l-0.020-0.007z"></path>
</svg>
