<!-- Generated by IcoMoon.io -->
<svg version="1.1" xmlns="http://www.w3.org/2000/svg" width="32" height="32" viewBox="0 0 32 32">
<title>icons_edit-doc</title>
<path opacity="0.41999998688697815" fill="#000" d="M30.578 6.329c0-0.427-0.142-0.782-0.427-1.067l-1.067-0.996c-0.284-0.284-0.64-0.427-0.996-0.427s-0.782 0.142-1.067 0.427l-4.907 4.836v-4.622c0-0.782-0.64-1.493-1.493-1.493h-14.791c-0.782 0-1.493 0.64-1.493 1.493v1.493h-1.422c-0.782 0-1.493 0.64-1.493 1.493v22.187c0 0.782 0.64 1.493 1.493 1.493h14.791c0.782 0 1.493-0.64 1.493-1.493v-1.493h1.493c0.782 0 1.493-0.64 1.493-1.493v-11.236l8.036-8.036c0.142-0.284 0.356-0.64 0.356-1.067zM17.707 29.653h-14.791v-22.187h1.493v19.2c0 0.782 0.64 1.493 1.493 1.493h11.804v1.493zM20.622 26.667h-14.791v-22.187h14.791v6.116l-2.418 2.418h-6.471v0.711h5.76l-1.493 1.493h-4.267v0.711h3.556l-1.493 1.493h-2.062v0.711h1.28l-0.996 0.996c-0.071 0.071-0.142 0.213-0.213 0.284l-0.071-0.071-1.209 2.987v-0.498h-2.987v0.711h2.844l-0.569 1.493h-2.276v0.711h2.987v-0.569l4.124-1.636h3.982v-0.711h-3.129l1.493-1.493h1.636v-0.711h-0.924l2.773-2.773 0.142 9.813zM14.222 21.262l-1.067-1.067 13.084-13.084 1.067 1.067-13.084 13.084zM27.804 7.68l-1.067-1.067 1.28-1.28 1.067 1.067-1.28 1.28zM18.773 9.316h-7.040v-0.711h7.040v0.711zM10.667 13.724h-2.987v-0.711h2.987v0.711zM10.667 9.316h-2.987v-0.711h2.987v0.711zM10.667 7.111h-2.987v-0.711h2.987v0.711zM10.667 16h-2.987v-0.711h2.987v0.711zM10.667 18.204h-2.987v-0.711h2.987v0.711zM18.773 11.52h-7.040v-0.711h7.040v0.711zM18.773 7.111h-7.040v-0.711h7.040v0.711z"></path>
</svg>
