<!-- Generated by IcoMoon.io -->
<svg version="1.1" xmlns="http://www.w3.org/2000/svg" width="32" height="32" viewBox="0 0 32 32">
<title>icons_collection_add</title>
<path d="M3.833 0.967c-1.458 0.008-2.637 1.188-2.645 2.645v9.245c0.008 1.458 1.188 2.637 2.645 2.645h9.245c1.458-0.008 2.637-1.188 2.645-2.645v-9.245c-0.008-1.455-1.184-2.633-2.637-2.645h-0.001zM23.652 2.93c-0.543 0.004-0.981 0.445-0.981 0.988 0 0.005 0 0.010 0 0.015v-0.001 3.307h-3.406c-0.533 0.027-0.954 0.466-0.954 1.003 0 0.554 0.449 1.004 1.004 1.004 0.017 0 0.035-0 0.052-0.001l-0.002 0h3.307v3.307c0 0.548 0.444 0.992 0.992 0.992s0.992-0.444 0.992-0.992v0s0 0 0 0v-3.307h3.307c0.548 0 0.992-0.444 0.992-0.992s-0.444-0.992-0.992-0.992v0h-3.307v-3.321c0-0.006 0-0.014 0-0.021 0-0.541-0.435-0.98-0.974-0.988h-0.001zM3.833 16.171c-1.458 0.008-2.637 1.188-2.645 2.645v9.245c0.008 1.458 1.188 2.637 2.645 2.645h9.245c1.458-0.008 2.637-1.188 2.645-2.645v-9.245c-0.008-1.458-1.188-2.637-2.645-2.645h-0.001zM19.036 16.171c-1.458 0.008-2.637 1.188-2.645 2.645v9.245c0.008 1.458 1.188 2.637 2.645 2.645h9.245c1.458-0.004 2.64-1.181 2.652-2.637v-9.246c-0.008-1.458-1.188-2.637-2.645-2.645h-0.001z"></path>
</svg>
