<!-- Generated by IcoMoon.io -->
<svg version="1.1" xmlns="http://www.w3.org/2000/svg" width="32" height="32" viewBox="0 0 32 32">
<title>icons_permissions</title>
<path d="M5.618 12.089c-1.493 0-2.773 1.209-2.773 2.773s1.209 2.773 2.773 2.773 2.773-1.209 2.773-2.773-1.28-2.773-2.773-2.773z"></path>
<path d="M8.32 25.316l-0.142-0.142v-2.702c0-0.996 0.213-1.991 0.569-2.916-0.782-0.782-1.92-1.209-3.129-1.209-2.56 0-4.693 2.133-4.693 4.693v1.493c1.138 0.64 2.844 1.067 4.693 1.067 0.924 0 1.849-0.142 2.702-0.284z"></path>
<path d="M26.596 17.564c1.493 0 2.773-1.209 2.773-2.773 0-1.493-1.209-2.773-2.773-2.773-1.493 0-2.773 1.209-2.773 2.773s1.28 2.773 2.773 2.773z"></path>
<path d="M24.036 25.173l-0.142 0.071c0.782 0.213 1.707 0.284 2.702 0.284 1.849 0 3.556-0.427 4.622-1.067v-1.493c0-2.56-2.062-4.622-4.622-4.622-1.209 0-2.276 0.498-3.129 1.209 0.356 0.924 0.569 1.849 0.569 2.916v2.702z"></path>
<path d="M11.804 10.24c0 2.347 1.92 4.267 4.267 4.267s4.267-1.92 4.267-4.267c0-2.347-1.92-4.267-4.267-4.267s-4.267 1.92-4.267 4.267z"></path>
<path d="M23.253 24.818v-2.276c0-3.911-3.2-7.111-7.111-7.111s-7.111 3.2-7.111 7.111v2.276c1.636 1.067 4.338 1.707 7.111 1.707s5.404-0.711 7.111-1.707z"></path>
</svg>
