<!-- Generated by IcoMoon.io -->
<svg version="1.1" xmlns="http://www.w3.org/2000/svg" width="32" height="32" viewBox="0 0 32 32">
<title>icons_icon-image</title>
<path d="M16 14.212c-2.635 0-4.8 2.165-4.8 4.8s2.165 5.082 4.8 5.082 4.8-2.447 4.8-5.082c0-2.635-2.165-4.8-4.8-4.8zM27.953 8.094h-8.376v-1.224c0-0.659-0.565-1.224-1.224-1.224h-4.8c-0.659 0-1.224 0.565-1.224 1.224v1.224h-8.282c-1.318 0-2.353 1.035-2.353 2.353v16.847c0 1.318 1.035 2.353 2.353 2.353h23.812c1.318 0 2.353-1.035 2.353-2.353v-16.847c0.094-1.318-0.941-2.353-2.259-2.353zM16 26.165c-3.953 0-7.153-3.2-7.153-7.153s3.2-7.153 7.153-7.153c3.953 0 7.153 3.2 7.153 7.153s-3.2 7.153-7.153 7.153z"></path>
</svg>
