<!-- Generated by IcoMoon.io -->
<svg version="1.1" xmlns="http://www.w3.org/2000/svg" width="32" height="32" viewBox="0 0 32 32">
<title>icons_duplicate</title>
<path fill="#000" d="M23.253 1.422h-13.653v25.6h20.622v-18.418l-6.969-7.182zM28.089 25.6h-17.067v-22.044h10.667v5.689h6.4v16.356z"></path>
<path fill="#fff" d="M20.907 30.507h-18.844v-23.822h13.369l5.476 5.547z"></path>
<path fill="#7a1c17" d="M14.862 4.978h-13.796v26.311h20.622v-18.489l-6.827-7.822zM19.556 29.867h-17.067v-22.756h11.378v6.4h5.689v16.356z"></path>
<path fill="#7a1c17" d="M6.044 14.933h9.956v1.422h-9.956v-1.422z"></path>
<path fill="#7a1c17" d="M6.044 17.778h9.956v1.422h-9.956v-1.422z"></path>
<path fill="#7a1c17" d="M6.044 23.396h9.956v1.493h-9.956v-1.493z"></path>
<path fill="#7a1c17" d="M6.044 26.311h9.956v1.422h-9.956v-1.422z"></path>
<path fill="#7a1c17" d="M6.044 20.622h9.956v1.422h-9.956v-1.422z"></path>
</svg>
