<!-- Generated by IcoMoon.io -->
<svg version="1.1" xmlns="http://www.w3.org/2000/svg" width="32" height="32" viewBox="0 0 32 32">
<title>icons_delete</title>
<path d="M30.372 19.247c0.066-0.311 0.132-0.621 0.179-0.941 0-0.094 0-0.188 0-0.282 0-0.311 0.085-0.621 0.104-0.941 0-0.066 0-0.132 0-0.207 0.018-0.274 0.029-0.595 0.029-0.918s-0.010-0.643-0.031-0.961l0.002 0.043c0-0.094 0-0.179 0-0.273 0-0.245-0.047-0.489-0.085-0.734s-0.047-0.367-0.085-0.555-0.085-0.442-0.132-0.659-0.094-0.424-0.16-0.64-0.104-0.395-0.16-0.584-0.198-0.584-0.301-0.866-0.113-0.292-0.169-0.442c-0.141-0.358-0.311-0.706-0.489-1.054l-0.226-0.405c-0.141-0.264-0.292-0.518-0.452-0.772l-0.273-0.405q-0.264-0.386-0.555-0.753l-0.207-0.311c-0.292-0.358-0.593-0.696-0.941-1.026-2.671-2.667-6.36-4.316-10.433-4.316s-7.762 1.649-10.433 4.316l0-0c-0.329 0.329-0.631 0.668-0.941 1.026l-0.264 0.339q-0.292 0.367-0.555 0.753l-0.273 0.405c-0.16 0.254-0.311 0.508-0.452 0.772s-0.151 0.264-0.226 0.405c-0.179 0.348-0.339 0.696-0.489 1.054-0.066 0.141-0.113 0.292-0.169 0.442s-0.207 0.574-0.301 0.866-0.113 0.386-0.16 0.584-0.113 0.424-0.151 0.64-0.094 0.442-0.132 0.659-0.056 0.367-0.085 0.555-0.066 0.489-0.085 0.734c0 0.094 0 0.188 0 0.273-0.018 0.274-0.029 0.595-0.029 0.918s0.010 0.643 0.031 0.961l-0.002-0.043c0 0.066 0 0.141 0 0.207 0 0.311 0.066 0.621 0.104 0.941 0 0.094 0 0.188 0 0.282 0.047 0.311 0.104 0.621 0.179 0.941v0.188c1.595 6.541 7.404 11.32 14.329 11.32s12.734-4.779 14.309-11.219l0.021-0.101c0.132-0.094 0.151-0.151 0.16-0.216zM15.736 18.824l-4.96 4.951-1.299-1.299-1.308-1.261 4.96-4.951-4.96-4.969 2.607-2.607 4.96 4.96 4.969-4.951 2.598 2.598-4.96 4.96 4.96 4.951-2.598 2.616z"></path>
</svg>
