<!-- Generated by IcoMoon.io -->
<svg version="1.1" xmlns="http://www.w3.org/2000/svg" width="32" height="32" viewBox="0 0 32 32">
<title>icons_icon-project</title>
<path stroke="#010101" stroke-linejoin="miter" stroke-linecap="butt" stroke-miterlimit="10" stroke-width="0.9412" fill="#000" d="M26.635 1.788h-21.647c-0.471 0-0.753 0.282-0.753 0.659v27.106c0 0.376 0.376 0.659 0.753 0.659h21.647c0.471 0 0.753-0.282 0.753-0.659v-27.106c0-0.376-0.376-0.659-0.753-0.659zM25.412 28.894h-19.2v-12.235h19.2v12.235zM25.412 15.341h-19.2v-12.235h19.2v12.235z"></path>
<path d="M21.271 19.2h-1.506v3.388c0 0.282-0.188 0.471-0.471 0.471h-6.776c-0.282 0-0.471-0.188-0.471-0.471v-3.388h-1.412c-0.282 0-0.471 0.188-0.471 0.471v4.894c0 0.282 0.188 0.471 0.471 0.471h10.729c0.282 0 0.471-0.188 0.471-0.471v-4.894c-0.094-0.282-0.376-0.471-0.565-0.471z"></path>
<path d="M21.271 5.741h-1.506v3.388c0 0.282-0.188 0.471-0.471 0.471h-6.776c-0.282 0-0.471-0.188-0.471-0.471v-3.388h-1.412c-0.282 0-0.471 0.188-0.471 0.471v4.894c0 0.282 0.188 0.471 0.471 0.471h10.729c0.282 0 0.471-0.188 0.471-0.471v-4.8c-0.094-0.282-0.376-0.565-0.565-0.565z"></path>
</svg>
