<!-- Generated by IcoMoon.io -->
<svg version="1.1" xmlns="http://www.w3.org/2000/svg" width="32" height="32" viewBox="0 0 32 32">
<title>icons_cloud_upload</title>
<path d="M24.178 15.289c-1.067 0-2.133 0.356-3.129 0.924-1.138-2.916-3.627-4.836-6.4-4.836-3.769 0-6.969 3.627-7.111 8.107-1.778 0.213-3.271 1.636-3.911 3.627-1.493 0.427-2.56 1.991-2.56 3.911 0 2.204 1.493 3.982 3.342 3.982h9.813c0-2.133 0-4.196 0-6.329-0.427 0-1.209 0-1.636 0-0.356 0-0.427-0.427-0.213-0.711 0.996-1.422 2.347-2.844 3.342-4.267 0.071-0.071 0.142-0.142 0.213-0.142s0.213 0 0.213 0.142c0.996 1.422 2.347 2.844 3.342 4.267 0.213 0.284 0.071 0.711-0.213 0.711-0.427 0-1.209 0-1.636 0 0 2.133 0 4.196 0 6.329h6.613c3.627 0 6.542-3.556 6.542-7.822-0.071-4.338-2.987-7.893-6.613-7.893z"></path>
</svg>
