<?xml version="1.0" encoding="utf-8"?>
<!-- Generated by IcoMoon.io -->
<!DOCTYPE svg PUBLIC "-//W3C//DTD SVG 1.1//EN" "http://www.w3.org/Graphics/SVG/1.1/DTD/svg11.dtd">
<svg version="1.1" xmlns="http://www.w3.org/2000/svg" xmlns:xlink="http://www.w3.org/1999/xlink" width="32" height="32" viewBox="0 0 32 32">
<path d="M16 15.153c-2.635 0-4.8 2.165-4.8 4.8s2.165 5.082 4.8 5.082c2.635 0 4.8-2.447 4.8-5.082s-2.165-4.8-4.8-4.8zM27.953 9.035h-8.376v-1.224c0-0.659-0.565-1.224-1.224-1.224h-4.8c-0.659 0-1.224 0.565-1.224 1.224v1.224h-8.282c-1.318 0-2.353 1.035-2.353 2.353v16.847c0 1.318 1.035 2.353 2.353 2.353h23.812c1.318 0 2.353-1.035 2.353-2.353v-16.847c0.094-1.318-0.941-2.353-2.259-2.353zM16 27.106c-3.953 0-7.153-3.2-7.153-7.153s3.2-7.153 7.153-7.153c3.953 0 7.153 3.2 7.153 7.153s-3.2 7.153-7.153 7.153z"></path>
</svg>
