<!-- Generated by IcoMoon.io -->
<svg version="1.1" xmlns="http://www.w3.org/2000/svg" width="32" height="32" viewBox="0 0 32 32">
<title>icons_info-hands</title>
<path fill="#e2dfd8" d="M2.88 6.080c0.4-0.4 0.8-0.56 1.2-0.56 0.48 0 0.88 0.16 1.28 0.56s0.56 0.96 0.56 1.76v6.72c-0.48 0.080-0.88 0.24-1.36 0.56-0.32 0.4-0.56 0.8-0.56 1.2 0 0.32 0.080 0.64 0.24 0.88l2.24 3.76v-0.4l-2.080-3.44c-0.16-0.24-0.24-0.48-0.24-0.72s0.080-0.48 0.16-0.64c0.16-0.16 0.32-0.4 0.48-0.56 0.24-0.16 0.4-0.24 0.72-0.4 0.24-0.080 0.48-0.16 0.72-0.16 0.4 0 0.8 0.16 1.040 0.56l5.28 7.2c0.4 0.56 0.64 1.12 0.8 1.92 0.16 0.72 0.24 1.44 0.24 2v4.24h-6.48v-3.52c0-0.4-0.080-0.72-0.24-1.040s-0.32-0.56-0.4-0.64c-0.96-1.36-1.68-2.4-2.24-3.2s-0.96-1.44-1.28-2c-0.24-0.48-0.48-0.96-0.56-1.28s-0.080-0.64-0.080-1.040v-10c0-0.8 0.24-1.36 0.56-1.76v0z"></path>
<path fill="#e2dfd8" d="M30.8 17.92c0 0.4 0 0.72-0.080 1.040s-0.24 0.72-0.56 1.28c-0.24 0.48-0.72 1.2-1.2 2-0.56 0.8-1.28 1.92-2.16 3.2-0.080 0.080-0.24 0.32-0.4 0.64s-0.24 0.64-0.24 1.040v3.52h-6.56v-4.24c0-0.64 0.080-1.28 0.24-2s0.4-1.36 0.8-1.92l5.2-7.2c0.32-0.4 0.64-0.56 1.12-0.56s0.88 0.16 1.36 0.56c0.48 0.32 0.72 0.8 0.72 1.28 0 0.24-0.080 0.48-0.16 0.64l-2.16 3.44v0.4l2.24-3.76c0.080-0.16 0.16-0.24 0.16-0.4 0-0.080 0-0.24 0-0.4 0-0.48-0.16-0.96-0.56-1.28-0.4-0.4-0.8-0.56-1.28-0.64v-6.72c0-0.8 0.16-1.36 0.56-1.76s0.72-0.56 1.2-0.56c0.4 0 0.88 0.16 1.2 0.56 0.4 0.4 0.56 0.96 0.56 1.76v10.080z"></path>
<path fill="#010101" d="M16.8 15.76c4.080 0 7.44-3.36 7.44-7.44 0-4.16-3.36-7.52-7.44-7.52s-7.44 3.36-7.44 7.52c0.080 4.080 3.36 7.44 7.44 7.44zM16.8 2.56c3.12 0 5.68 2.56 5.68 5.76s-2.56 5.76-5.68 5.76c-3.12 0-5.68-2.56-5.68-5.76s2.56-5.76 5.68-5.76z"></path>
<path fill="#010101" d="M18.16 11.92c-0.080 0-0.16-0.080-0.16-0.24v-5.040h-3.2v0.64h0.56c0.080 0 0.16 0.080 0.16 0.16v4.32c0 0.080-0.080 0.16-0.16 0.16h-0.56v0.64h3.92v-0.64h-0.56z"></path>
<path fill="#010101" d="M18.16 4.8c0 0.751-0.609 1.36-1.36 1.36s-1.36-0.609-1.36-1.36c0-0.751 0.609-1.36 1.36-1.36s1.36 0.609 1.36 1.36z"></path>
</svg>
