<!-- Generated by IcoMoon.io -->
<svg version="1.1" xmlns="http://www.w3.org/2000/svg" width="32" height="32" viewBox="0 0 32 32">
<title>icons_two-docs</title>
<path fill="#000" d="M23.609 0.711h-14.009v26.311h21.333v-18.773l-7.324-7.538zM28.8 25.6h-17.778v-22.756h11.378v5.689h6.4v17.067z"></path>
<path fill="#000" d="M14.578 10.667h10.667v1.422h-10.667v-1.422z"></path>
<path fill="#000" d="M14.578 14.222h10.667v1.422h-10.667v-1.422z"></path>
<path fill="#000" d="M14.578 17.778h10.667v1.422h-10.667v-1.422z"></path>
<path fill="#000" d="M14.578 21.333h10.667v1.422h-10.667v-1.422z"></path>
<path fill="#fff" d="M21.191 30.578h-19.2v-24.32h13.582l5.618 5.689z"></path>
<path fill="#7a1c17" d="M15.076 4.978h-14.009v26.311h21.333v-18.773l-7.324-7.538zM20.267 29.867h-17.778v-22.756h11.378v5.689h6.4v17.067z"></path>
<path fill="#7a1c17" d="M6.044 14.933h10.667v1.422h-10.667v-1.422z"></path>
<path fill="#7a1c17" d="M6.044 18.489h10.667v1.422h-10.667v-1.422z"></path>
<path fill="#7a1c17" d="M6.044 22.044h10.667v1.422h-10.667v-1.422z"></path>
<path fill="#7a1c17" d="M6.044 25.6h10.667v1.422h-10.667v-1.422z"></path>
</svg>
