<!-- Generated by IcoMoon.io -->
<svg version="1.1" xmlns="http://www.w3.org/2000/svg" width="32" height="32" viewBox="0 0 32 32">
<title>icons_transfer</title>
<path d="M18.069 30.030c-0.491-0.498-1.102-1.131-1.358-1.422l-0.469-0.505 1.372-1.372c0.754-0.754 1.358-1.387 1.344-1.422s-3.086 0-6.82 0h-6.805v-3.876h6.791c3.733 0 6.805 0 6.82 0s-0.59-0.647-1.344-1.422l-1.372-1.372 0.711-0.711c0.391-0.405 1.003-1.031 1.372-1.422l0.661-0.661 3.74 3.74c2.468 2.468 3.74 3.769 3.74 3.819s-1.266 1.351-3.726 3.812c-2.048 2.048-3.74 3.726-3.748 3.726s-0.42-0.405-0.91-0.903zM9.116 12.089c-2.46-2.46-3.726-3.755-3.726-3.812s1.273-1.358 3.74-3.819l3.733-3.748 0.661 0.661c0.363 0.363 0.981 0.988 1.372 1.422l0.711 0.711-1.38 1.372c-0.754 0.754-1.358 1.387-1.344 1.422s3.086 0 6.82 0h6.791v3.883h-6.791c-3.733 0-6.805 0-6.82 0s0.59 0.647 1.344 1.422l1.372 1.372-0.469 0.505c-0.562 0.604-2.233 2.311-2.268 2.311s-1.7-1.657-3.748-3.705z"></path>
</svg>
