<!-- Generated by IcoMoon.io -->
<svg version="1.1" xmlns="http://www.w3.org/2000/svg" width="32" height="32" viewBox="0 0 32 32">
<title>icons_safe</title>
<path d="M5.8 9.776c0.149 0.079 0.248 0.233 0.248 0.411 0 0.007-0 0.015-0.001 0.022l0-0.001v2.464c0 0.006 0 0.014 0 0.021 0 0.177-0.1 0.332-0.246 0.41l-0.003 0.001v5.752c0.149 0.079 0.248 0.233 0.248 0.411 0 0.007-0 0.015-0.001 0.022l0-0.001v2.464c0 0.006 0 0.014 0 0.021 0 0.177-0.1 0.332-0.246 0.41l-0.003 0.001v0.216c0.049 0.534 0.379 0.981 0.839 1.196l0.009 0.004 7.824 3.304c0.424 0.176 0.656 0 0.656-0.352v-13.008c-0.052-0.531-0.381-0.975-0.839-1.188l-0.009-0.004-7.816-3.312c-0.424-0.176-0.656 0-0.656 0.352v0.384zM7.76 25.992l-1.36 0.584h-0.176l-1.544-0.656c-0.080-0.037-0.142-0.102-0.175-0.182l-0.001-0.002c-0.004-0.012-0.006-0.026-0.006-0.040s0.002-0.028 0.006-0.041l-0 0.001v-18.224c-0-0.008-0-0.017-0-0.026 0-0.157 0.039-0.305 0.107-0.435l-0.002 0.005c0.207-0.535 0.604-0.958 1.107-1.194l9.613-4.062c0.148-0.077 0.324-0.122 0.509-0.122 0.021 0 0.041 0.001 0.062 0.002l-0.003-0c0.004-0 0.009-0 0.013-0 0.178 0 0.346 0.038 0.498 0.107l-0.008-0.003 9.6 4.056c0.517 0.244 0.914 0.67 1.115 1.193l0.005 0.015c0.071 0.128 0.112 0.28 0.112 0.442 0 0.008-0 0.015-0 0.023l0-0.001v18.24c0.004 0.013 0.006 0.028 0.006 0.044s-0.002 0.031-0.006 0.045l0-0.001c-0.035 0.086-0.1 0.154-0.182 0.191l-0.002 0.001-1.544 0.648h-0.176l-1.416-0.6-6.176 2.608v1.064c0.003 0.013 0.005 0.028 0.005 0.044s-0.002 0.031-0.006 0.045l0-0.001c-0.035 0.086-0.1 0.153-0.182 0.191l-1.554 0.657h-0.176l-1.544-0.648c-0.080-0.038-0.142-0.102-0.175-0.182l-0.001-0.002c-0.004-0.012-0.006-0.026-0.006-0.040s0.002-0.028 0.006-0.041l-0 0.001v-1.040l-6.344-2.664zM6.92 17.704c0.152 0.64 0.648 1.064 1.112 0.936 0.383-0.179 0.644-0.561 0.644-1.003 0-0.137-0.025-0.267-0.070-0.388l0.002 0.008c-0.152-0.64-0.648-1.064-1.112-0.936-0.383 0.179-0.644 0.561-0.644 1.003 0 0.137 0.025 0.267 0.070 0.388l-0.003-0.008zM7.448 15.808c0.164-0.519 0.563-0.92 1.068-1.085l0.012-0.003c0.944-0.248 1.96 0.608 2.264 1.912s-0.224 2.568-1.192 2.816c-0.101 0.024-0.217 0.038-0.336 0.038-0.377 0-0.721-0.139-0.985-0.368l0.002 0.002-0.12 0.080c-0.672 0.176-1.384-0.432-1.6-1.352-0.063-0.165-0.099-0.355-0.099-0.554 0-0.628 0.362-1.172 0.89-1.434l0.009-0.004h0.056zM11.448 20.8v-2.32c0.020-0.665 0.325-1.254 0.797-1.653l0.003-0.003c-0.003-0.028-0.004-0.061-0.004-0.094 0-0.413 0.254-0.766 0.614-0.912l0.007-0.002c0.464-0.12 0.96 0.296 1.112 0.936 0.042 0.112 0.066 0.241 0.066 0.376 0 0.443-0.259 0.826-0.635 1.005l-0.007 0.003c-0.050 0.012-0.107 0.019-0.166 0.019-0.16 0-0.308-0.052-0.428-0.141l0.002 0.001c-0.099 0.131-0.163 0.293-0.176 0.469l-0 0.003v2.312c-0.036 0.309-0.296 0.546-0.612 0.546s-0.576-0.237-0.612-0.543l-0-0.003z"></path>
</svg>
