<!-- Generated by IcoMoon.io -->
<svg version="1.1" xmlns="http://www.w3.org/2000/svg" width="32" height="32" viewBox="0 0 32 32">
<title>icons_integration</title>
<path d="M27.426 13.449h-2.014c-0.255-0.971-0.619-1.823-1.088-2.605l0.025 0.045 1.393-1.402c0.3-0.3 0.486-0.714 0.486-1.172s-0.186-0.872-0.486-1.172v0l-1.129-1.158c-0.3-0.3-0.714-0.486-1.172-0.486s-0.872 0.186-1.172 0.486l-1.402 1.402c-0.737-0.448-1.588-0.815-2.491-1.057l-0.069-0.016v-1.986c0-0.915-0.742-1.656-1.656-1.656v0h-1.666c-0.915 0-1.656 0.742-1.656 1.656v0 1.986c-0.971 0.255-1.823 0.619-2.605 1.088l0.045-0.025-1.355-1.393c-0.3-0.3-0.714-0.486-1.172-0.486s-0.872 0.186-1.172 0.486v0l-1.205 1.158c-0.3 0.3-0.486 0.714-0.486 1.172s0.186 0.872 0.486 1.172l1.402 1.402c-0.448 0.737-0.815 1.588-1.057 2.491l-0.016 0.069h-1.986c-0 0-0 0-0.001 0-0.898 0-1.63 0.715-1.656 1.607l-0 0.002v1.656c0 0.915 0.742 1.656 1.656 1.656v0h1.986c0.255 0.971 0.619 1.823 1.088 2.605l-0.025-0.045-1.393 1.449c-0.3 0.3-0.486 0.714-0.486 1.172s0.186 0.872 0.486 1.172l1.158 1.158c0.3 0.3 0.714 0.486 1.172 0.486s0.872-0.186 1.172-0.486v0l1.402-1.412c0.737 0.448 1.588 0.815 2.491 1.057l0.069 0.016v1.986c0.005 0.911 0.745 1.647 1.656 1.647 0 0 0 0 0 0h1.656c0.915 0 1.656-0.742 1.656-1.656v0-1.967c0.975-0.26 1.83-0.631 2.613-1.107l-0.044 0.025 1.402 1.393c0.3 0.3 0.714 0.486 1.172 0.486s0.872-0.186 1.172-0.486v0l1.148-1.158c0.3-0.3 0.486-0.714 0.486-1.172s-0.186-0.872-0.486-1.172l-1.402-1.402c0.439-0.731 0.8-1.577 1.039-2.472l0.016-0.069h1.986c0.915 0 1.656-0.742 1.656-1.656v0-1.704c-0.026-0.885-0.742-1.594-1.627-1.609l-0.001-0zM15.821 20.038c-2.287 0-4.141-1.854-4.141-4.141s1.854-4.141 4.141-4.141c2.287 0 4.141 1.854 4.141 4.141v0c0 0.011 0 0.024 0 0.038 0 2.287-1.854 4.141-4.141 4.141-0.003 0-0.007 0-0.010 0h0.001z"></path>
</svg>
