<svg style="position: absolute; width: 0; height: 0;" width="0" height="0" version="1.1" xmlns="http://www.w3.org/2000/svg" xmlns:xlink="http://www.w3.org/1999/xlink">
<defs>
<symbol id="svg-icons_dataset2" viewBox="0 0 32 32">
<title>svg_dataset2</title>
<path class="path1" d="M19.36 1.2h-16.080v29.28h24v-21.2l-7.92-8.080zM23.84 27.040h-17.12v-22.32h10.88v5.76h6.24v16.56z"></path>
<path class="path2" d="M13.44 15.52h3.36v10.16h-3.36v-10.16z"></path>
<path class="path3" d="M18.48 12.080h3.36v13.52h-3.36v-13.52z"></path>
<path class="path4" d="M8.4 18.88h3.36v6.72h-3.36v-6.72z"></path>
</symbol>
<symbol id="svg-icons_digitize" viewBox="0 0 32 32">
<title>svg_digitize</title>
<path class="path1" d="M8.32 20.56v-16h9.28v4.96h5.28v11.040h2.96v-12.080l-6.72-6.88h-13.76v18.96z"></path>
<path class="path2" d="M5.36 23.52h2.96v2.96h-2.96v-2.96z"></path>
<path class="path3" d="M11.2 26.96h2.96v2.96h-2.96v-2.96z"></path>
<path class="path4" d="M22.88 23.52h2.96v2.96h-2.96v-2.96z"></path>
<path class="path5" d="M18.4 28.24h2.96v2.96h-2.96v-2.96z"></path>
<path class="path6" d="M16.88 22.8h2.96v2.96h-2.96v-2.96z"></path>
<path class="path7" d="M15.36 16.8h2.96v2.96h-2.96v-2.96z"></path>
<path class="path8" d="M11.040 20.96h2.96v2.96h-2.96v-2.96z"></path>
</symbol>
<symbol id="svg-icons_info-hands" viewBox="0 0 32 32">
<title>svg_info-hands</title>
<path fill="#e2dfd8" class="path1 fill-color2" d="M2.88 6.080c0.4-0.4 0.8-0.56 1.2-0.56 0.48 0 0.88 0.16 1.28 0.56s0.56 0.96 0.56 1.76v6.72c-0.48 0.080-0.88 0.24-1.36 0.56-0.32 0.4-0.56 0.8-0.56 1.2 0 0.32 0.080 0.64 0.24 0.88l2.24 3.76v-0.4l-2.080-3.44c-0.16-0.24-0.24-0.48-0.24-0.72s0.080-0.48 0.16-0.64c0.16-0.16 0.32-0.4 0.48-0.56 0.24-0.16 0.4-0.24 0.72-0.4 0.24-0.080 0.48-0.16 0.72-0.16 0.4 0 0.8 0.16 1.040 0.56l5.28 7.2c0.4 0.56 0.64 1.12 0.8 1.92 0.16 0.72 0.24 1.44 0.24 2v4.24h-6.48v-3.52c0-0.4-0.080-0.72-0.24-1.040s-0.32-0.56-0.4-0.64c-0.96-1.36-1.68-2.4-2.24-3.2s-0.96-1.44-1.28-2c-0.24-0.48-0.48-0.96-0.56-1.28s-0.080-0.64-0.080-1.040v-10c0-0.8 0.24-1.36 0.56-1.76v0z"></path>
<path fill="#e2dfd8" class="path2 fill-color2" d="M30.8 17.92c0 0.4 0 0.72-0.080 1.040s-0.24 0.72-0.56 1.28c-0.24 0.48-0.72 1.2-1.2 2-0.56 0.8-1.28 1.92-2.16 3.2-0.080 0.080-0.24 0.32-0.4 0.64s-0.24 0.64-0.24 1.040v3.52h-6.56v-4.24c0-0.64 0.080-1.28 0.24-2s0.4-1.36 0.8-1.92l5.2-7.2c0.32-0.4 0.64-0.56 1.12-0.56s0.88 0.16 1.36 0.56c0.48 0.32 0.72 0.8 0.72 1.28 0 0.24-0.080 0.48-0.16 0.64l-2.16 3.44v0.4l2.24-3.76c0.080-0.16 0.16-0.24 0.16-0.4 0-0.080 0-0.24 0-0.4 0-0.48-0.16-0.96-0.56-1.28-0.4-0.4-0.8-0.56-1.28-0.64v-6.72c0-0.8 0.16-1.36 0.56-1.76s0.72-0.56 1.2-0.56c0.4 0 0.88 0.16 1.2 0.56 0.4 0.4 0.56 0.96 0.56 1.76v10.080z"></path>
<path fill="#010101" class="path3 fill-color1" d="M16.8 15.76c4.080 0 7.44-3.36 7.44-7.44 0-4.16-3.36-7.52-7.44-7.52s-7.44 3.36-7.44 7.52c0.080 4.080 3.36 7.44 7.44 7.44zM16.8 2.56c3.12 0 5.68 2.56 5.68 5.76s-2.56 5.76-5.68 5.76c-3.12 0-5.68-2.56-5.68-5.76s2.56-5.76 5.68-5.76z"></path>
<path fill="#010101" class="path4 fill-color1" d="M18.16 11.92c-0.080 0-0.16-0.080-0.16-0.24v-5.040h-3.2v0.64h0.56c0.080 0 0.16 0.080 0.16 0.16v4.32c0 0.080-0.080 0.16-0.16 0.16h-0.56v0.64h3.92v-0.64h-0.56z"></path>
<path fill="#010101" class="path5 fill-color1" d="M18.16 4.8c0 0.751-0.609 1.36-1.36 1.36s-1.36-0.609-1.36-1.36c0-0.751 0.609-1.36 1.36-1.36s1.36 0.609 1.36 1.36z"></path>
</symbol>
<symbol id="svg-icons_add" viewBox="0 0 32 32">
<title>svg_add</title>
<path fill="#010101" class="path5 fill-color1" d="M18.16 4.8c0 0.751-0.609 1.36-1.36 1.36s-1.36-0.609-1.36-1.36c0-0.751 0.609-1.36 1.36-1.36s1.36 0.609 1.36 1.36z"></path>
</symbol>
<symbol id="svg-icons_collection" viewBox="0 0 32 32">
<title>svg_collection</title>
<path class="path1" d="M11.2 2.4h8.8v20h-8.8v-20z"></path>
<path class="path2" d="M11.2 24.8h8.8v6.4h-8.8v-6.4z"></path>
<path class="path3" d="M0.8 2.4h8v9.6h-8v-9.6z"></path>
<path class="path4" d="M21.6 2.4h8.8v7.2h-8.8v-7.2z"></path>
<path class="path5" d="M21.6 11.2h8.8v9.6h-8.8v-9.6z"></path>
<path class="path6" d="M21.6 22.4h8.8v8.8h-8.8v-8.8z"></path>
<path class="path7" d="M0.8 13.6h8v17.6h-8v-17.6z"></path>
</symbol>
<symbol id="svg-icons_document2" viewBox="0 0 32 32">
<title>svg_document2</title>
<path class="path1" d="M19.76 1.68l7.84 8v20.96h-23.84v-28.96h16zM7.2 27.2h16.88v-16.32h-6.16v-5.76h-10.72v22.080zM9.52 16h12.080v-1.36h-12.080v1.36zM9.52 19.84h12.080v-1.36h-12.080v1.36zM9.52 23.68h12.080v-1.36h-12.080v1.36z"></path>
</symbol>
<symbol id="svg-icons_download" viewBox="0 0 32 32">
<title>svg_download</title>
<path class="path1" d="M28.8 18.24l-12.4 12.24-12.4-12.24v-8.080l9.6 9.36v-17.92h4.8v17.84l10.4-9.28z"></path>
</symbol>
<symbol id="svg-icons_find" viewBox="0 0 32 32">
<title>svg_find</title>
<path class="path1" d="M28.64 26.32l-8-7.52c1.28-1.6 2.56-4.16 2.56-6.56 0-5.68-5.2-9.92-10.88-9.92-5.68-0.080-10.080 4.16-10.080 9.92 0 5.68 3.84 10.64 9.52 10.64 2.48 0 4.16-0.64 5.36-1.28l8.080 8.080c0.48 0.48 1.2 0.48 1.68 0l1.68-1.68c0.56-0.48 0.56-1.2 0.080-1.68zM12.8 19.6c-3.84 0-6.96-3.12-6.96-6.96-0.080-3.92 3.040-7.040 6.96-7.040 3.84 0 6.96 3.12 6.96 6.96 0 3.92-3.12 7.040-6.96 7.040z"></path>
</symbol>
<symbol id="svg-icons_gallery" viewBox="0 0 32 32">
<title>svg_gallery</title>
<path class="path1" d="M1.6 1.6h8v8h-8v-8z"></path>
<path class="path2" d="M12 1.6h8v8h-8v-8z"></path>
<path class="path3" d="M22.4 1.6h8v8h-8v-8z"></path>
<path class="path4" d="M1.6 12h8v8h-8v-8z"></path>
<path class="path5" d="M12 12h8v8h-8v-8z"></path>
<path class="path6" d="M22.4 12h8v8h-8v-8z"></path>
<path class="path7" d="M1.6 22.4h8v8h-8v-8z"></path>
<path class="path8" d="M12 22.4h8v8h-8v-8z"></path>
<path class="path9" d="M22.4 22.4h8v8h-8v-8z"></path>
</symbol>
<symbol id="svg-icons_geospatial" viewBox="0 0 32 32">
<title>svg_geospatial</title>
<path class="path1" d="M19.76 2.4h-15.76v28.8h24v-21.28l-8.24-7.52zM26.4 29.6h-20.8v-25.6h13.6v6.4h7.2v19.2z"></path>
<path class="path2" d="M16.56 12.48c-0.8 0-1.6 0.16-2.32 0.48 0.080 0 0.080 0 0.080 0s1.040 0.080 1.44-0.080c0.48-0.16 0.88 0.32 0.64 0.32-0.16 0-0.4 0.56-0.24 0.56s0.24 0.32 0.56-0.080c0.32-0.32 0.24-0.16 0.8 0.16s-0.32 0.32-0.32 0.32-0.16 0.4-0.4 0.4c-0.24 0-0.8 0.64-0.96 1.040s-0.16 0.4-0.4 0.080c-0.16-0.32-0.48-0.080-0.8 0.32s0.64 0.88 0.64 0.88l0.48 0.4c0 0 0.4-0.080 0.56-0.16s0.16 0.16 0.8 0.48c0.64 0.32 0.080 0.32 0.72 0.56 0.64 0.16 0.8 0.64 0.8 0.64l-0.16 0.4-0.16 0.56c0 0-0.32 0.080-0.4 0.56-0.16 0.48-0.48 0.56-0.72 0.8s0.080 0.8 0.16 1.040c0.16 0.32-0.32-0.080-0.48-0.080-0.16-0.080-0.32-0.64-0.4-0.88-0.080-0.32 0.080-0.96 0-1.28 0-0.32-0.16-0.4-0.4-0.72s-0.24-0.32-0.4-0.88-0.080-0.64 0.080-0.8c0.16-0.080-0.4-0.32-0.64-0.4s-0.48-0.32-0.8-0.48c-0.32-0.24-0.4-0.64-0.56-0.8s-0.16-0.96-0.16-1.28c0-0.32 0.32-0.64 0.16-0.88-0.080-0.080-0.24-0.080-0.48-0.080-1.36 1.040-2.24 2.64-2.24 4.48 0 1.040 0.32 2.080 0.8 2.88 0.16 0.080 0.64 0.24 0.8 0.24 0.24 0 0.88-0.080 1.12 0.4 0.16 0.48 0.48 0.56 0.080 1.040-0.080 0.080-0.080 0.080-0.16 0.16 0.88 0.48 1.84 0.8 2.96 0.8 3.040 0 5.52-2.56 5.52-5.6s-2.48-5.52-5.6-5.52z"></path>
<path class="path3" d="M18.56 25.2c0.72-0.16 1.44-0.56 2.080-0.96l-0.4-0.56c-1.36 0.88-3.12 1.2-4.88 0.8-3.52-0.8-5.84-4.24-5.040-7.84 0.4-1.76 1.44-3.2 2.8-4.080l-0.32-0.56c-1.52 1.040-2.64 2.56-3.040 4.48-0.8 3.76 1.44 7.52 5.040 8.64-1.2 0.16-1.92 1.28-1.92 1.28h7.12c0.080 0-0.56-0.96-1.44-1.2z"></path>
</symbol>
<symbol id="svg-icons_image" viewBox="0 0 32 32">
<title>svg_image</title>
<path class="path1" d="M21.6 18.4h-12v7.2h12v-7.2zM18.4 21.84c0 1.68-1.36 3.040-3.040 3.040s-3.040-1.36-3.040-3.040c0-1.68 1.36-3.040 3.040-3.040s3.040 1.36 3.040 3.040z"></path>
<path class="path2" d="M19.76 1.6h-15.76v29.6h24v-21.68l-8.24-7.92zM26.4 29.6h-20.8v-25.6h13.6v6.4h7.2v19.2z"></path>
<path class="path3" d="M23.2 26.4h-15.2v-8.8h15.2v8.8zM22.4 18.4h-13.6v7.2h13.6v-7.2z"></path>
<path class="path4" d="M18.080 16.8h-5.52l-0.56-1.84v-2.96h7.2v2.96l-1.12 1.84zM17.6 12.8h-4v3.2h4v-3.2z"></path>
<path class="path5" d="M17.84 21.84c0 1.36-1.12 2.4-2.4 2.4-1.36 0-2.4-1.12-2.4-2.4s1.12-2.4 2.4-2.4c1.28 0 2.4 1.040 2.4 2.4zM15.36 19.84c-1.12 0-2 0.88-2 2s0.88 2 2 2c1.12 0 2-0.88 2-2s-0.88-2-2-2z"></path>
<path class="path6" d="M20 16.8h2.4v0.8h-2.4v-0.8z"></path>
<path class="path7" d="M14.4 16.8h2.4v0.8h-2.4v-0.8z"></path>
</symbol>
<symbol id="svg-icons_info" viewBox="0 0 32 32">
<title>svg_info</title>
<path class="path1" d="M16.080 30.72c8 0 14.48-6.56 14.48-14.64s-6.48-14.64-14.48-14.64c-8-0.080-14.56 6.48-14.56 14.56 0 8.16 6.56 14.72 14.56 14.72zM16.080 4.72c6.16 0 11.2 5.040 11.12 11.28 0 6.24-4.96 11.28-11.12 11.28s-11.2-5.040-11.2-11.28c0-6.16 5.040-11.28 11.2-11.28z"></path>
<path class="path2" d="M18.72 23.2c-0.16 0-0.32-0.16-0.32-0.4v-10.080h-6.24v1.28h1.12c0.16 0 0.32 0.16 0.32 0.32v8.56c0 0.16-0.16 0.32-0.32 0.32h-1.12v1.36h7.84v-1.36h-1.28z"></path>
<path class="path3" d="M18.72 9.2c0 1.458-1.182 2.64-2.64 2.64s-2.64-1.182-2.64-2.64c0-1.458 1.182-2.64 2.64-2.64s2.64 1.182 2.64 2.64z"></path>
</symbol>
<symbol id="svg-icons_left" viewBox="0 0 32 32">
<title>svg_left</title>
<path class="path1" d="M31.2 28.24l-12.080-12 12.080-12.080-3.2-3.12-15.2 15.2 15.2 15.2z"></path>
</symbol>
<symbol id="svg-icons_list" viewBox="0 0 32 32">
<title>svg_list</title>
<path class="path1" d="M1.6 2.4h28.8v2.4h-28.8v-2.4z"></path>
<path class="path2" d="M1.6 10.4h28.8v2.4h-28.8v-2.4z"></path>
<path class="path3" d="M1.6 18.4h28.8v2.4h-28.8v-2.4z"></path>
<path class="path4" d="M1.6 25.6h28.8v3.2h-28.8v-3.2z"></path>
</symbol>
<symbol id="svg-icons_map" viewBox="0 0 32 32">
<title>svg_map</title>
<path class="path1" d="M15.84 2.24c-4.16 0-7.44 4-7.44 8.080 0 0.8 7.44 19.76 7.44 19.76l7.36-19.28c0.080 0 0.16-0.8 0.16-1.28 0-4.16-3.36-7.28-7.52-7.28zM15.84 13.28c-1.76 0-3.2-1.44-3.2-3.2s1.44-3.2 3.2-3.2c1.76 0 3.2 1.44 3.2 3.2s-1.44 3.2-3.2 3.2z"></path>
</symbol>
<symbol id="svg-icons_ontology" viewBox="0 0 32 32">
<title>svg_ontology</title>
<path class="path1" d="M16 18.4v-2.4h-0.8v2.4h-5.6v4h0.8v-2.4h4.8v2.4h0.8v-2.4h4.8v2.4h0.8v-4z"></path>
<path class="path2" d="M12.8 12h5.6v4h-5.6v-4z"></path>
<path class="path3" d="M8 23.2h4v3.2h-4v-3.2z"></path>
<path class="path4" d="M13.6 23.2h4.8v3.2h-4.8v-3.2z"></path>
<path class="path5" d="M19.2 23.2h4.8v3.2h-4.8v-3.2z"></path>
<path class="path6" d="M19.76 1.6h-15.76v29.6h24v-21.76l-8.24-7.84zM26.4 28.8h-20.8v-24.8h13.6v6.4h7.2v18.4z"></path>
</symbol>
<symbol id="svg-icons_project" viewBox="0 0 32 32">
<title>svg_project</title>
<path class="path1" d="M26.88 2h-21.6c-0.48 0-0.88 0.080-0.88 0.48v27.6c0 0.4 0.4 0.72 0.88 0.72h21.6c0.48 0 0.72-0.32 0.72-0.72v-27.6c0-0.4-0.32-0.48-0.72-0.48zM26.8 29.2h-21.6v-12.8h21.6v12.8zM26.8 17.2h-21.6v-13.6h21.6v13.6z"></path>
<path class="path2" d="M22.32 13.6h-12.8v-6.32h1.68v4.72h9.28v-4.72h1.84z"></path>
<path class="path3" d="M22.32 26.4h-12.8v-6.32h1.68v4.72h9.28v-4.72h1.84z"></path>
</symbol>
<symbol id="svg-icons_right" viewBox="0 0 32 32">
<title>svg_right</title>
<path class="path1" d="M0.56 28.24l12.080-12-12.080-12.080 3.2-3.12 15.2 15.2-15.2 15.2z"></path>
</symbol>
<symbol id="svg-icons_rss" viewBox="0 0 32 32">
<title>svg_rss</title>
<path class="path1" d="M10.24 21.52c2.32 2.16 3.6 5.68 3.6 8.080h3.040c0-2.4-1.6-7.28-4.48-10.080-2.96-2.72-7.68-4.16-10.8-4.16v2.8c3.12 0 6.24 1.2 8.64 3.36z"></path>
<path class="path2" d="M15.040 17.040c3.68 3.44 5.6 6.96 5.6 12.56h3.040c0-5.6-2.24-10.56-6.48-14.56s-9.28-6.080-15.52-6.080v2.8c6.16 0.080 9.68 1.92 13.36 5.28z"></path>
<path class="path3" d="M19.84 12.64c4.8 4.48 7.92 11.040 8 16.96h2.48c0-6.88-2.88-13.92-8.48-19.12-5.52-5.28-14-7.84-20.24-7.92v2.72c6.24 0 13.44 2.88 18.24 7.36z"></path>
</symbol>
<symbol id="svg-icons_safe" viewBox="0 0 32 32">
<title>svg_safe</title>
<path class="path1" d="M5.84 9.76c0.16 0.080 0.24 0.24 0.24 0.4v2.48c0 0.24-0.080 0.32-0.24 0.4v5.76c0.16 0.080 0.24 0.24 0.24 0.4v2.48c0 0.24-0.080 0.32-0.24 0.4v0.32c0 0.48 0.4 0.96 0.88 1.2l7.84 3.28c0.4 0.16 0.64 0 0.64-0.32v-13.040c0-0.48-0.4-0.96-0.88-1.2l-7.84-3.28c-0.4-0.16-0.64 0-0.64 0.32v0.4zM7.76 26l-1.36 0.56c0 0-0.080 0-0.080 0s-0.080 0-0.080 0l-1.52-0.64c-0.080 0-0.16-0.080-0.16-0.16 0 0 0-0.080 0-0.080v-18.24c0-0.16 0-0.32 0.080-0.48 0.16-0.48 0.64-0.96 1.12-1.2l9.6-4.080c0.16-0.080 0.32-0.080 0.56-0.080 0.16 0 0.32 0 0.48 0.080l9.6 4.080c0.48 0.24 0.88 0.64 1.12 1.2 0.080 0.16 0.080 0.32 0.080 0.48v0 18.16c0 0.080 0 0.080 0 0.080 0 0.080-0.080 0.16-0.16 0.16l-1.52 0.64c0 0-0.080 0-0.080 0s-0.080 0-0.080 0l-1.44-0.56-6.16 2.64v1.040c0 0.080 0 0.080 0 0.080 0 0.080-0.080 0.16-0.16 0.16l-1.6 0.8c0 0-0.080 0-0.080 0s-0.080 0-0.080 0l-1.52-0.64c-0.080 0-0.16-0.080-0.16-0.16 0 0 0-0.080 0-0.080v-1.040l-6.4-2.72zM6.88 17.68c0.16 0.64 0.64 1.040 1.12 0.96 0.48-0.16 0.72-0.72 0.56-1.36s-0.64-1.040-1.12-0.96c-0.4 0.16-0.64 0.72-0.56 1.36v0zM7.44 15.84c0.24-0.56 0.56-0.96 1.12-1.12 0.96-0.24 1.92 0.64 2.24 1.92s-0.24 2.56-1.2 2.8c-0.48 0.080-0.96 0-1.28-0.32-0.080 0-0.080 0-0.16 0.080-0.64 0.16-1.36-0.4-1.6-1.36s0.16-1.84 0.88-2v0 0zM11.44 20.8v-2.32c0-0.64 0.32-1.28 0.8-1.68 0-0.48 0.24-0.88 0.64-1.040 0.48-0.16 0.96 0.32 1.12 0.96s-0.080 1.28-0.56 1.36c-0.24 0.080-0.4 0-0.56-0.16-0.080 0.16-0.16 0.32-0.16 0.48v2.4c-0.080 0.8-1.28 0.8-1.28 0v0z"></path>
</symbol>
<symbol id="svg-icons_sensory_data" viewBox="0 0 32 32">
<title>svg_sensory_data</title>
<path class="path1" d="M11.12 19.36l2.16 1.040c0.32 0.16 0.72 0.16 1.040 0l1.84-0.88 3.040-1.44c-0.080-0.080-0.16-0.080-0.16-0.16l-4.4-2c-0.4-0.16-1.12-0.16-1.6 0l-4.4 2c-0.080 0-0.16 0.080-0.24 0.16l2.72 1.28z"></path>
<path class="path2" d="M10 19.2l-1.6-0.88v5.28c0 0.48 0.4 1.040 0.88 1.28 0 0 4.24 2.080 4.32 2.080v-5.36c0-0.32-0.24-0.72-0.56-0.8z"></path>
<path class="path3" d="M14.32 20.8c-0.32 0.16-0.32 0.56-0.32 0.88v5.44c0.080 0 0.16-0.080 0.16-0.080l4.32-2.080c0.4-0.16 0.72-0.8 0.72-1.28v-5.28z"></path>
<path class="path4" d="M19.76 1.6h-15.76v29.6h24v-21.92l-8.24-7.68zM26.4 28.8h-20.8v-25.6h13.6v7.2h7.2v18.4z"></path>
<path class="path5" d="M22.080 13.040c-0.56-0.48-0.8-1.040-0.8-1.84h-0.72c0 0.8 0.32 1.68 0.96 2.32 0.72 0.64 1.68 0.88 2.48 0.88v-0.64c0 0-1.44-0.24-1.92-0.72z"></path>
<path class="path6" d="M20.88 14.080c-0.88-0.8-1.28-1.28-1.28-2.88h-0.72c0 1.6 0.48 2.4 1.44 3.36 1.040 0.96 2.8 1.36 3.6 1.36v-0.64c-0.72-0.080-2.16-0.4-3.040-1.2z"></path>
<path class="path7" d="M19.76 15.040c-1.12-1.040-1.84-2.56-1.84-3.92h-0.56c0 1.6 0.64 3.2 1.92 4.48 1.28 1.2 3.12 1.84 4.72 1.84v-0.64c-0.8 0-3.12-0.72-4.24-1.76z"></path>
</symbol>
<symbol id="svg-icons_coding_sheet" viewBox="0 0 32 32">
<title>svg_coding_sheet</title>
<path class="path1" d="M13.6 14.4h10.4v1.6h-10.4v-1.6z"></path>
<path class="path2" d="M7.2 14.4h3.2v1.6h-3.2v-1.6z"></path>
<path class="path3" d="M13.6 17.6h10.4v1.6h-10.4v-1.6z"></path>
<path class="path4" d="M7.2 17.6h3.2v1.6h-3.2v-1.6z"></path>
<path class="path5" d="M13.6 20.8h10.4v1.6h-10.4v-1.6z"></path>
<path class="path6" d="M7.2 20.8h3.2v1.6h-3.2v-1.6z"></path>
<path class="path7" d="M13.6 24h10.4v1.6h-10.4v-1.6z"></path>
<path class="path8" d="M7.2 24h3.2v1.6h-3.2v-1.6z"></path>
<path class="path9" d="M19.76 2.4h-15.76v28.8h24v-21.36l-8.24-7.44zM26.4 29.6h-20.8v-25.6h13.6v6.4h7.2v19.2z"></path>
</symbol>
<symbol id="svg-icons_dataset" viewBox="0 0 32 32">
<title>svg_dataset</title>
<path class="path1" d="M13.6 16h3.2v11.2h-3.2v-11.2z"></path>
<path class="path2" d="M19.2 12h3.2v15.2h-3.2v-15.2z"></path>
<path class="path3" d="M8.8 20h3.2v7.2h-3.2v-7.2z"></path>
<path class="path4" d="M19.76 2.4h-15.76v28.8h24v-20.96l-8.24-7.84zM26.4 29.6h-20.8v-25.6h13.6v6.4h7.2v19.2z"></path>
</symbol>
<symbol id="svg-icons_delete" viewBox="0 0 32 32">
<title>svg_delete</title>
<path class="path1" d="M30.4 19.294c0.094-0.282 0.094-0.659 0.188-0.941 0-0.094 0-0.188 0-0.282 0-0.282 0.094-0.659 0.094-0.941 0-0.094 0-0.094 0-0.188 0-0.659 0-1.224 0-1.788 0-0.094 0-0.188 0-0.282 0-0.282-0.094-0.471-0.094-0.753 0-0.188-0.094-0.376-0.094-0.565s-0.094-0.471-0.094-0.659c-0.094-0.188-0.094-0.471-0.188-0.659s-0.094-0.376-0.188-0.565c-0.094-0.282-0.188-0.565-0.282-0.847-0.094-0.188-0.094-0.282-0.188-0.471-0.188-0.376-0.282-0.753-0.471-1.035-0.094-0.094-0.188-0.282-0.188-0.376-0.188-0.282-0.282-0.471-0.471-0.753-0.094-0.094-0.188-0.282-0.282-0.376-0.188-0.282-0.376-0.471-0.565-0.753-0.094-0.094-0.188-0.188-0.282-0.376-0.282-0.376-0.565-0.659-0.941-1.035-5.647-5.835-15.059-5.835-20.8-0.094-0.282 0.376-0.659 0.659-0.941 1.035-0.094 0.094-0.188 0.188-0.282 0.376-0.188 0.188-0.376 0.471-0.471 0.753-0.094 0.094-0.188 0.188-0.282 0.376-0.188 0.282-0.376 0.471-0.471 0.753-0.094 0.188-0.188 0.282-0.188 0.376-0.188 0.376-0.376 0.659-0.471 1.035-0.094 0.188-0.094 0.282-0.188 0.471-0.188 0.282-0.282 0.565-0.376 0.847 0 0.188-0.094 0.471-0.094 0.659-0.094 0.188-0.094 0.376-0.188 0.659-0.094 0.188-0.094 0.471-0.094 0.659s-0.094 0.376-0.094 0.565c0 0.282-0.094 0.471-0.094 0.753 0 0.094 0 0.188 0 0.282 0 0.659 0 1.224 0 1.788 0 0.094 0 0.094 0 0.188 0 0.282 0.094 0.659 0.094 0.941 0 0.094 0 0.188 0 0.282 0.094 0.282 0.094 0.659 0.188 0.941 0 0.094 0 0.094 0 0.188 0.565 2.541 1.882 4.988 3.859 6.965 5.741 5.741 15.153 5.741 20.894 0 1.976-1.976 3.294-4.424 3.859-6.965 0.094-0.094 0.188-0.188 0.188-0.188zM15.718 18.824l-4.988 4.988-2.635-2.635 4.988-4.988-4.894-4.894 2.635-2.635 4.988 4.988 4.894-4.988 2.635 2.635-4.988 4.988 4.988 4.988-2.635 2.541-4.988-4.988z"></path>
</symbol>
<symbol id="svg-icons_deselected" viewBox="0 0 32 32">
<title>svg_deselected</title>
<path class="path1" d="M29.176 30.118h-27.294v-27.294h27.294v27.294zM28.235 3.765h-25.412v25.412h25.412v-25.412z"></path>
</symbol>
<symbol id="svg-icons_document" viewBox="0 0 32 32">
<title>svg_document</title>
<path class="path1" d="M19.76 1.2h-15.76v29.6h24v-21.52l-8.24-8.080zM26.4 29.2h-20.8v-25.6h13.6v6.4h7.2v19.2z"></path>
<path class="path2" d="M9.6 12.4h12v1.6h-12v-1.6z"></path>
<path class="path3" d="M9.6 16.4h12v1.6h-12v-1.6z"></path>
<path class="path4" d="M9.6 20.4h12v1.6h-12v-1.6z"></path>
<path class="path5" d="M9.6 24.4h12v1.6h-12v-1.6z"></path>
</symbol>
<symbol id="svg-icons_edit" viewBox="0 0 32 32">
<title>svg_edit</title>
<path class="path1" d="M3.012 3.106c-1.788 1.788-1.788 4.8 0 6.588l6.588-6.588c-1.788-1.788-4.706-1.788-6.588 0z"></path>
<path class="path2" d="M19.294 25.976l11.294 4.706-4.706-11.294-14.4-14.494-6.588 6.588 14.4 14.494zM20.8 23.059c0.565-0.565 1.694-0.471 1.976-0.188-0.282-0.282-0.376-1.412 0.188-1.976s1.788-0.847 1.788-0.847l2.729 6.494-1.035 1.035-6.494-2.729c0 0 0.282-1.224 0.847-1.788z"></path>
</symbol>
<symbol id="svg-icons_icon-coding_sheet" viewBox="0 0 32 32">
<title>svg_icon-coding_sheet</title>
<path class="path1" d="M12.047 3.2h17.412v1.6h-17.412v-1.6z"></path>
<path class="path2" d="M12.047 11.012h17.412v1.6h-17.412v-1.6z"></path>
<path class="path3" d="M12.047 20.141h17.412v1.6h-17.412v-1.6z"></path>
<path class="path4" d="M12.047 27.388h17.412v1.6h-17.412v-1.6z"></path>
<path class="path5" d="M3.294 3.2h4.894v1.6h-4.894v-1.6z"></path>
<path class="path6" d="M3.294 11.012h4.894v1.6h-4.894v-1.6z"></path>
<path class="path7" d="M3.294 20.141h4.894v1.6h-4.894v-1.6z"></path>
<path class="path8" d="M3.294 27.388h4.894v1.6h-4.894v-1.6z"></path>
</symbol>
<symbol id="svg-icons_icon-dataset" viewBox="0 0 32 32">
<title>svg_icon-dataset</title>
<path class="path1" d="M12.329 8.565h7.341v22.118h-7.341v-22.118z"></path>
<path class="path2" d="M23.341 1.224h7.341v29.459h-7.341v-29.459z"></path>
<path class="path3" d="M1.318 16h7.341v14.682h-7.341v-14.682z"></path>
</symbol>
<symbol id="svg-icons_icon-document" viewBox="0 0 32 32">
<title>svg_icon-document</title>
<path class="path1" d="M19.859 1.224h-12.141c-1.318 0-2.447 1.129-2.447 2.447v24.471c0 1.318 1.129 2.447 2.447 2.447h17.129c1.318 0 2.447-1.129 2.447-2.447v-19.576l-7.435-7.341zM24.659 11.2h-4.424c0 0-2.824 0-2.824-2.541v-4.235c0 0-0.188-1.882 0.847-0.847l6.871 6.588c0 0 1.318 1.035-0.471 1.035z"></path>
</symbol>
<symbol id="svg-icons_icon-geospatial" viewBox="0 0 32 32">
<title>svg_icon-geospatial</title>
<path class="path1" d="M17.412 2.071c-1.694 0-3.294 0.376-4.8 1.035 0.094 0 0.188 0 0.188 0s2.071 0.188 3.106-0.188c0.941-0.376 1.788 0.659 1.412 0.659s-0.847 1.224-0.471 1.224c0.376 0 0.471 0.565 1.129-0.094 0.565-0.659 0.471-0.376 1.6 0.282 1.035 0.753-0.753 0.753-0.753 0.753s-0.376 0.753-0.847 0.753c-0.471 0-1.694 1.318-1.976 2.165s-0.376 0.941-0.753 0.188c-0.376-0.659-1.035-0.188-1.694 0.659-0.659 0.941 1.318 1.788 1.318 1.788l1.035 0.847c0 0 0.753-0.188 1.224-0.376 0.376-0.188 0.282 0.376 1.694 0.941s0.188 0.659 1.506 1.035c1.318 0.376 1.6 1.412 1.6 1.412l-0.376 0.753-0.376 1.224c0 0-0.565 0.188-0.847 1.224s-0.941 1.224-1.506 1.694c-0.471 0.471 0.094 1.6 0.376 2.165s-0.565-0.094-1.035-0.188c-0.376-0.094-0.565-1.318-0.847-1.882-0.188-0.565 0.094-1.976 0.094-2.635s-0.376-0.847-0.941-1.506c-0.471-0.565-0.471-0.659-0.847-1.788-0.282-1.129-0.094-1.412 0.188-1.6s-0.753-0.565-1.318-0.753c-0.471-0.188-1.035-0.565-1.694-1.035s-0.941-1.318-1.224-1.694c-0.282-0.376-0.376-2.165-0.376-2.729s0.659-1.318 0.376-1.788c-0.094-0.188-0.565-0.282-1.035-0.282-2.824 2.165-4.706 5.553-4.612 9.318 0 2.353 0.659 4.329 1.788 6.118 0.376 0.094 1.318 0.471 1.694 0.471 0.471 0 1.882-0.094 2.259 0.847 0.376 1.035 1.035 1.129 0.094 2.165-0.094 0.094-0.188 0.188-0.282 0.282 1.788 1.035 3.859 1.694 6.118 1.694 6.4 0 11.576-5.271 11.482-11.671 0-6.306-5.271-11.482-11.671-11.482z"></path>
<path class="path2" d="M21.553 28.235c1.506-0.376 3.012-1.035 4.329-1.882l-0.753-1.129c-2.918 1.788-6.494 2.541-10.071 1.788-7.341-1.6-12.047-8.941-10.447-16.282 0.753-3.576 2.918-6.588 5.741-8.471l-0.753-1.129c-3.106 2.071-5.553 5.365-6.4 9.318-1.694 7.718 2.918 15.341 10.447 17.6-2.259 0.471-3.859 1.412-3.859 2.447h14.871c0-0.941-1.224-1.788-3.106-2.259z"></path>
</symbol>
<symbol id="svg-icons_icon-image" viewBox="0 0 32 32">
<title>svg_icon-image</title>
<path class="path1" d="M16 15.153c-2.635 0-4.8 2.165-4.8 4.8s2.165 5.082 4.8 5.082c2.635 0 4.8-2.447 4.8-5.082s-2.165-4.8-4.8-4.8zM27.953 9.035h-8.376v-1.224c0-0.659-0.565-1.224-1.224-1.224h-4.8c-0.659 0-1.224 0.565-1.224 1.224v1.224h-8.282c-1.318 0-2.353 1.035-2.353 2.353v16.847c0 1.318 1.035 2.353 2.353 2.353h23.812c1.318 0 2.353-1.035 2.353-2.353v-16.847c0.094-1.318-0.941-2.353-2.259-2.353zM16 27.106c-3.953 0-7.153-3.2-7.153-7.153s3.2-7.153 7.153-7.153c3.953 0 7.153 3.2 7.153 7.153s-3.2 7.153-7.153 7.153z"></path>
</symbol>
<symbol id="svg-icons_icon-ontology" viewBox="0 0 32 32">
<title>svg_icon-ontology</title>
<path class="path1" d="M16.753 19.953v-2.541h-0.941v2.541h-10.165v4.235h0.941v-2.918h9.224v2.918h0.941v-2.918h9.129v2.918h1.035v-4.235z"></path>
<path class="path2" d="M11.576 10.447h9.412v6.4h-9.412v-6.4z"></path>
<path class="path3" d="M1.976 25.129h8.282v5.553h-8.282v-5.553z"></path>
<path class="path4" d="M12.141 25.129h8.282v5.553h-8.282v-5.553z"></path>
<path class="path5" d="M22.306 25.129h8.282v5.553h-8.282v-5.553z"></path>
</symbol>
<symbol id="svg-icons_icon-project" viewBox="0 0 32 32">
<title>svg_icon-project</title>
<path class="path1" d="M26.635 1.788h-21.647c-0.471 0-0.753 0.282-0.753 0.659v27.106c0 0.376 0.376 0.659 0.753 0.659h21.647c0.471 0 0.753-0.282 0.753-0.659v-27.106c0-0.376-0.376-0.659-0.753-0.659zM25.412 28.894h-19.2v-12.235h19.2v12.235zM25.412 15.341h-19.2v-12.235h19.2v12.235z"></path>
<path class="path2" d="M21.271 19.2h-1.506v3.388c0 0.282-0.188 0.471-0.471 0.471h-6.776c-0.282 0-0.471-0.188-0.471-0.471v-3.388h-1.412c-0.282 0-0.471 0.188-0.471 0.471v4.894c0 0.282 0.188 0.471 0.471 0.471h10.729c0.282 0 0.471-0.188 0.471-0.471v-4.894c-0.094-0.282-0.376-0.471-0.565-0.471z"></path>
<path class="path3" d="M21.271 5.741h-1.506v3.388c0 0.282-0.188 0.471-0.471 0.471h-6.776c-0.282 0-0.471-0.188-0.471-0.471v-3.388h-1.412c-0.282 0-0.471 0.188-0.471 0.471v4.894c0 0.282 0.188 0.471 0.471 0.471h10.729c0.282 0 0.471-0.188 0.471-0.471v-4.8c-0.094-0.282-0.376-0.565-0.565-0.565z"></path>
</symbol>
<symbol id="svg-icons_icon-sensory_data" viewBox="0 0 32 32">
<title>svg_icon-sensory_data</title>
<path class="path1" d="M8.753 10.447l5.647 2.635c0.753 0.376 1.976 0.376 2.729 0l4.706-2.165 7.812-3.671c-0.188-0.094-0.376-0.188-0.471-0.282l-11.482-5.365c-1.129-0.471-2.918-0.471-4.047 0l-11.294 5.176c-0.188 0.094-0.376 0.282-0.565 0.376l6.965 3.294z"></path>
<path class="path2" d="M15.153 16.753c0-0.847-0.565-1.788-1.318-2.071l-8.565-3.953c0 0 0 0 0 0l-3.953-1.788v13.365c0 1.224 0.941 2.635 1.976 3.2l11.388 5.271c0.094 0 0.188 0.094 0.282 0.094l0.094-6.965v-7.153h0.094z"></path>
<path class="path3" d="M26.824 10.635c0 0.094-0.094 0.094 0 0l-8.659 3.953c-0.753 0.376-1.318 1.318-1.318 2.071v14.118c0.188-0.094 0.282-0.094 0.471-0.188l11.294-5.176c1.129-0.471 1.976-1.976 1.976-3.106v-13.365l-3.765 1.694z"></path>
</symbol>
<symbol id="svg-icons_search" viewBox="0 0 32 32">
<title>svg_search</title>
<path class="path1" d="M28.706 24.847l-4.141-4.141c1.224-1.882 1.976-4.141 1.976-6.588 0-6.776-5.553-12.329-12.329-12.329s-12.424 5.459-12.424 12.329c0 6.776 5.553 12.329 12.329 12.329 2.447 0 4.706-0.753 6.588-1.882l4.141 4.141c1.035 1.035 2.729 1.035 3.859 0 1.035-1.129 1.035-2.824 0-3.859zM8.376 19.953c-1.506-1.506-2.447-3.576-2.447-5.835s0.941-4.329 2.447-5.835c1.506-1.506 3.576-2.447 5.835-2.447s4.329 0.941 5.835 2.447c1.506 1.506 2.447 3.576 2.447 5.835s-0.941 4.329-2.447 5.835c-1.506 1.506-3.576 2.447-5.835 2.447-2.353-0.094-4.424-1.035-5.835-2.447z"></path>
</symbol>
<symbol id="svg-icons_selected" viewBox="0 0 32 32">
<title>svg_selected</title>
<path class="path1" d="M2.353 2.353h27.294v27.294h-27.294v-27.294z"></path>
</symbol>
<symbol id="svg-icons_star-deselected" viewBox="0 0 32 32">
<title>svg_star-deselected</title>
<path class="path1" d="M16 3.294l3.2 9.882h10.447l-8.471 6.024 3.294 9.788-8.471-6.212-8.471 6.118 3.2-9.788-8.471-6.024h10.447l3.294-9.788zM13.365 14.118h-8.659l7.435 4.612-3.012 8.188 6.776-5.459 7.247 5.929-3.106-8.471 7.341-4.8h-8.565l-2.824-8.094-2.635 8.094z"></path>
</symbol>
<symbol id="svg-icons_star-selected" viewBox="0 0 32 32">
<title>svg_star-selected</title>
<path class="path1" d="M16 2.824l3.2 9.882h10.447l-8.471 6.212 3.294 9.976-8.471-6.118-8.471 6.118 3.294-9.976-8.471-6.212h10.447z"></path>
</symbol>
</defs>
</svg>
